<?xml version="1.0" encoding="UTF-8"?>
<svg id="Calque_2" data-name="Calque 2" xmlns="http://www.w3.org/2000/svg" viewBox="0 0 851.5 238.52">
  <defs>
    <style>
      .cls-1 {
        fill: #000;
        stroke-width: 0px;
      }
    </style>
  </defs>
  <g id="Layer_1" data-name="Layer 1">
    <path class="cls-1" d="M851.12,187.98v-19.11c-.32-.18-.64-.37-.88-.66-.58-.72-1.01-2.13-1.61-3.08-.15-.24-.29-.46-.42-.67.07.06.13.13.2.19.09.08.15.11.25.17-.08-.09-.12-.13-.2-.22-.16-.19-.28-.4-.39-.62.02.01.05.03.07.04.03.04.06.07.1.1.08.09.12.12.21.19-.05-.08-.08-.13-.12-.2.1.04.2.08.31.1.13.02.19.03.31.05-.12-.04-.18-.06-.29-.1-.16-.07-.32-.16-.45-.28-.02-.04-.04-.08-.05-.12.03.02.05.04.08.05.1.06.16.07.27.12-.09-.07-.14-.1-.23-.17-.09-.08-.16-.17-.23-.26-.02-.06-.04-.12-.06-.19-.04-.13-.07-.26-.1-.38l.05.07s0,0,0,0l.02.03c.06.09.12.19.19.28-.09-.17-.18-.34-.25-.52l-.06-.13-.05-.29.1.18s.02.04.03.05c.05.12.11.24.18.34.06.07.08.11.13.17,0-.02-.02-.04-.03-.06.03.04.05.08.08.11.06.08.09.12.15.18-.04-.08-.05-.12-.09-.21-.09-.21-.16-.43-.22-.66-.05-.19-.09-.38-.13-.57,0-.21.02-.43.04-.65.02.05.05.1.08.15,0,.04,0,.07,0,.12,0,.24,0,.5.04.78.02.11.03.17.05.29-.01-.12-.02-.18-.02-.3,0-.24.02-.46.05-.67.04.07.08.13.11.19,0,.02.01.05.02.07.07.22.16.43.26.58,0,.01.01.02.02.03.02.06.03.11.06.16.04.1.07.16.13.26-.05-.11-.07-.17-.09-.28,0-.02,0-.04-.01-.05,0,0,0,0,0,0,0,0,0-.02-.01-.03-.02-.09-.03-.17-.04-.26.07.09.13.17.2.25.01.02.03.03.04.04,0,0,0,0,0,0,.09.24.35.53.67.51.12,0,.17-.02.27-.06-.1.02-.16.02-.26,0-.27-.03-.44-.28-.49-.49.04.08.09.15.15.21.07.06.11.09.19.12-.07-.05-.1-.08-.14-.15-.12-.19-.15-.42-.16-.65,0-.11,0-.22,0-.33l.02.1c.02.09.05.18.08.27-.04-.16-.06-.32-.07-.48v-.12s.02-.25.02-.25l.03.17c.04.21.08.41.14.6.03.07.04.11.07.18-.01-.07-.02-.11-.02-.18-.02-.19-.03-.39-.02-.58.02-.48.09-.98.17-1.46.02.39.07.78.16,1.15.04.2.09.39.16.57.03.07.04.1.07.17-.01-.06-.02-.1-.03-.17-.02-.17-.04-.36-.04-.55,0-.64.03-1.29.15-1.82.03-.17.09-.34.18-.51,0,0,.02,0,.03-.01.25-.13.6-.37.86-.62v-35.01c-.07-.07-.12-.14-.2-.2-.24-.2-1-.45-.88-.85-.22-.06-1.87-.73-2.01-.4-.08.19-1.32,0-1.5,0-.59-.03-1.24.03-1.81.17-.33.08-.63.25-.96.34-.42.11-.75.04-1.15.27-1.26.73-2.55,1.23-3.87,1.91-.28.14-.82.42-1,.4-.23-.03-1.39.87-1.68,1-.67.31-1.06.97-1.67,1.35-.85.53-1.49,1.33-2.4,1.76-1.87.88-2.26,3.21-3.45,4.68-.37.95-.65,1.93-.83,2.93-.18,1.04-.09,2.12-.32,3.15-.23.97-.74,1.76-.89,2.78-.01.1-.07.53-.03.81-.6,1.99-1.08,3.91.84,4.75.07.45.09.92.09,1.39-.22,1.31-.06,2.9-.03,4.46-.02.04-.05.09-.07.13-.23.39-.45.72-.7.92-.09.05-.16.12-.25.14-.04.02-.06.02-.09.04.04,0,.06,0,.11,0,.11,0,.2-.04.32-.07.19-.08.4-.21.58-.39-.15.29-.34.54-.59.73-.09.09-.22.14-.34.2-.05.02-.08.03-.13.05.05,0,.08,0,.14-.01.13-.03.27-.06.4-.12l.1-.04c-.13.14-.29.24-.46.34-.15.07-.32.14-.49.18-.07.02-.11.03-.18.05.07,0,.11,0,.18,0,.06,0,.12,0,.18,0-.11.05-.21.09-.32.13-.07.03-.1.04-.17.06.08,0,.11,0,.19,0,.2-.02.4-.06.62-.11.19-.05.39-.11.59-.18h0c-.06.07-.12.12-.19.16.1-.05.19-.12.28-.19.06-.02.12-.05.19-.07-.1.13-.23.24-.36.35-.06.05-.09.07-.16.11.06-.03.1-.04.15-.06-.21.15-.42.3-.64.43-.19.12-.39.21-.59.29-.08.03-.12.05-.2.08.09,0,.13-.01.21-.02.22-.04.44-.08.67-.15l.18-.06c-.25.18-.52.35-.8.48-.24.12-.5.2-.76.25-.11.02-.16.02-.27.03.11.02.16.03.27.04.26.02.53,0,.79-.05-.09.05-.19.09-.29.12-.11.05-.16.06-.28.1.12,0,.18,0,.29-.01.29-.03.58-.09.86-.18.14-.03.27-.09.4-.13l-.11.08c-.09.07-.2.14-.3.21.19-.09.38-.2.55-.31l.09-.05c-.03.07-.06.14-.1.22-.12.1-.25.2-.39.29-.09.06-.14.1-.24.16.11-.03.16-.06.26-.09.09-.04.18-.08.27-.12,0,.02-.02.04-.03.06-.33.63-1.56,1.85-2.33,2.01-.32.07-1.13-.45-1.88-.44-.73.02-1.35.72-2.67.49-2.95-.51-2.34-3.25-3.41-6.16-.52-1.42-1.63-2.88-2.64-4.44.55-1.04,1.03-2.08,1.53-3.64.18-.58.88-1.83.86-2.15-.08-1.09-.73-.72-1.07-1.72,1.78-2.21,2.88-4.75,4.72-7.08,1.63-2.05,4.15-3.76,5.36-6.22,1.08-2.19,1.06-4.93,1.72-7.3.55-2,1.57-3.72,1.93-6.22,1.16-8.1,1.84-18.85,2.79-27.47.25-2.29.25-4.63.86-6.44.36-1.09,1.38-2.05,1.93-3.22,1.03-2.17,1.68-4.88,2.36-7.51.37-1.42.99-2.6,1.29-3.65.42-1.49,1.07-5.68,0-6.44-1.42-1-2.24,1.17-3,1.07-.31-1.33-.34-2.94-.86-4.08-.85-1.07-2.13.47-2.36.43-.45-.08-1.08-1.65-2.15-1.5-.92.13-.71,1.3-1.29,1.93-.59.65-1.14.91-1.5.64-.98-.72-.5-1.75-.43-3.43.16-3.74.73-7.25-.21-9.87-1.07-2.99-2.63-1.44-3,1.5-.39,3.1-.15,6.73-.43,9.66-.36,3.74-1.29,6.73-2.15,9.44-1.6-1.01-3.47-5.76-6.44-6.22-1.52-.24-3.46.26-3.65,1.07-.35,1.49,2.39,1.98,3.65,3,.71.58,1.55,1.81,1.72,2.15,1.01,2,.93,5.23,1.93,7.94,1.18,3.21,3.87,3.79,4.08,7.08.14,2.23-.75,5.95-1.29,8.37-1.17,5.27-2.97,9.73-4.51,14.81-.73,2.4-1.55,5.06-1.93,7.51-.61,3.92,1.1,8.57.21,11.37-.56,1.77-3.79,3.82-5.15,5.15-1.91,1.87-3.13,3.27-4.93,5.15-1.05-1.67-1.74-1.31-2.85-.48-.3-.42-.59-.84-.89-1.26-1.24-1.75-2.89-3.74-4.56-5.63-.43-.49-.95-.98-1.49-1.48.5-.06,1-.19,1.46-.35-.59.1-1.19.13-1.76.08-.08-.07-.15-.14-.23-.21.09-.13.18-.27.26-.41.49-.14.93-.42,1.25-.75-.34.17-.69.27-1.03.29.1-.25.17-.52.21-.78-.1.28-.22.54-.38.79-.36,0-.71-.09-1-.26-.63-.34-1.12-.92-1.54-1.55-.46-.68-.83-1.43-1.18-2.2-.09-.41-.17-.84-.23-1.31,1.16-.92,3.24-1.74,3.02-3.05-.1-.57-.67-1.31-1.6-.8.84-.58,1.3-1.77.32-2.57.75-.73.83-1.59.48-2.08-.48-.68-1.71-.58-3.03-.49-.13-.92-.28-1.84-.43-2.74.55-.69,1.14-1.37,1.7-2.06,1.22-1.51,3.21-2.87,2.88-4.97-1.07.02-1.98.67-2.72,1.28-.88.72-1.67,1.6-2.45,2.52-.21-1.08-.41-2.17-.59-3.25-1.27-7.5-2.68-15.33-1.79-22.38.62-4.87,4.42-5.77,4.88-11.02.22-2.52.09-7.43-.85-9.49-.62-1.38-1.81-3.58-3.54-1.81.6-2.49-1.84-3.32-3.16-1.99-1.38-.9-1.93-.23-3.23.47-.61.33-1.4.49-1.73.7-.44.29-.52.94-.98,1.3-.41.31-1.09.27-1.53.52-.71.41-2.93,2.22-3.12,2.93-.17.67.17,2.37.27,3.61.09,1.14.12,2.4.27,3.41.42,2.74,1.77,5.69,2.21,8.21.43,2.43.04,4.55.16,7.2.08,1.8.55,3.03.62,4.56.13,3.05-.46,6.18-.66,9.25-.11,1.72-.21,3.43-.28,5.15-.08-.1-.16-.2-.23-.29-.19-.26-.44-.5-.7-.68-.32-.22-.66-.37-1-.5-.03-.49-.06-.99-.23-1.46.09.46.04.91-.01,1.37-.7-.25-1.37-.46-1.87-1.04.41.7,1.16,1.06,1.83,1.45,0,0,0,.01,0,.02h-.5c-.06,1.1.17.56.18,1.3-.03-.02-.05-.04-.08-.07-1.46-1.18-3.23-.72-4.3-2.04.35.63.93,1,1.55,1.3h0c-.11.49-.73.47-1.21.59-.34-.06-.68-.14-1-.25.24.13.49.24.75.34-.08.04-.15.09-.2.15.36,0,.67.04.94.11.08.03.17.06.26.09.52.22.9.59,1.28.95-.14.02-.17.14-.18.28-.02-.01-.03-.02-.04-.03-1.24-.85-2.54-1.36-4.01-1.52-.36,0-.7.04-1.03.12-.4,0-.82.1-1.27.35-.57.15-1.12.24-1.73.06,1.04.51,2.23.12,3.25.1.51.11.93.35,1.04.82-2.47.47-5.15.74-5.74,3.09-.21.16-.45.26-.71.22-.27-.05-.51-.25-.72-.46.17.24.37.48.68.6.07.03.14.04.21.05-1.78.69-3.77,1.44-3.97,3.26-.07.27-.17.51-.44.67.23-.1.38-.27.49-.47.25.08.21.42.27.69-.1.19-.21.37-.34.54-.27.39-.74.67-1.24.47.44.29,1.07.08,1.42-.3.15-.14.29-.29.42-.45.03-.02.05-.06.07-.09.05-.07.1-.13.15-.2.04-.02.09-.02.17,0,.09,1.49-1.26,1.5-1.98,2.32-.11.13.09.52,0,.66-.62.95-1.74,2.16-2.09,3.24-.26.41-.49.84-.68,1.27-.4.77-.83,1.54-1.48,2.04-.64.55-1.62.48-2.37-.02.63.61,1.73.92,2.61.4.24-.13.47-.29.68-.46.32-.03.44-.25.85-.19,0,1.1-.24,1.97-.59,2.72l-.09-.06c-.14.25-.28.49-.42.73-.39.64-.78,1.3-1.38,1.67-.6.39-1.42.08-1.99-.42.46.55,1.26,1.1,2.12.78-.16.23-.31.46-.44.7.5.22,1.13-.62,1.16.17.02,0,.03,0,.04.01-.41.34-1.15.35-1.8.22-.69-.14-1.38-.39-1.97-.82.51.52,1.17.9,1.87,1.17.05.01.09.03.14.05-.69-.17-1.23-.42-1.43-.14.67.41,1.58.58,2.27.96-.78.65-1.46,1.35-2.36,1.8.79-.24,1.5-.7,2.2-1.12.01,0,.03,0,.04.01.07-.03.12-.08.17-.14.23-.14.46-.27.69-.39.04-.02.08-.04.12-.06-.01.73-.79.7-.83,1.42.02,0,.04,0,.06,0-.39.4-.87.72-1.41.94.65-.15,1.28-.46,1.82-.89.06.03.1.07.13.12-.02.02-.04.04-.06.07-.93,1.07-1.66,2.27-2.87,3,.49-.19.93-.46,1.34-.77,0,0,0,.01,0,.02.82-.11,1.3-.57,1.99-.83.23.48-.45.84,0,.99-.03-.63.13-.06.5-.17.1,2.58-2.01,2.96-4.13,3.31,2.45.41,3.88-.07,5.46-1.16,1.09,1.93,1.71,6.61,0,7.61.82-.17,1.23-.75,1.99-.99.03.06.06.13.09.2-.42.53-.84,1.06-1.23,1.57-.4.52-.75,1.16-1.15,1.75-1.97-1.66-4.01-3.33-5.82-5.01-1.44-1.34-2.62-2.92-3.86-3.86-.35-.27-1.34-.46-2.15-1.07-1.38-1.03-1.95-2.33-3.65-.43-1.92-1.68-3.19-3.7-4.94-5.58-2.03-2.19-5.03-3.45-6.65-5.79-1.19-1.71-1.58-4.27-2.36-6.44-2.21-6.16-5.37-11.29-8.8-16.95-2.02-3.34-4.15-7.46-6.01-11.16-.81-1.62-1.79-3.74-2.58-6.01-.78-2.27-1.88-5.18-1.72-6.87.09-.92,1.05-2.09,1.72-3.43,1.41-2.87,3.15-8.05,4.72-10.09,1.05-1.36,4.75-2.8,4.5-4.51-.17-1.18-1.57-1.59-3-1.5-3.31.21-4.05,5.07-7.08,6.01-1.84.57-4.93.24-6.01-.21-1.82-.78-2.06-2.63-3.22-4.29-.71-1.02-1.81-1.84-2.58-3-1.42-2.15-2.49-4.39-4.08-6.87-.97-1.52-1.78-3.3-4.29-2.79-.42,1.09.54,2.3,1.07,3.22.56.98,1.24,1.9,1.71,3,.31.72.29,1.61.65,2.36.88,1.87,2.62,3.3,3,5.36-1.72-1.44-3.12-4.33-4.94-6.65-1.66-2.11-3.78-4.8-6.87-4.08-.05,1.43,1.16,2.27,1.93,3.22,2.22,2.72,4.1,5.89,6.01,9.23-2.36-1.15-2.67-6.19-7.51-5.58-.12,1.96,1.79,2.91,2.58,4.29.34.59.35,1.34.64,1.93.71,1.43,2.1,2.92,2.58,4.93-1.51-.23-5.87-2.31-6.44-.21-.45,1.67,4.28,2.51,5.37,3.22,1.91,1.26,3.38,3.82,5.15,6.22,1.65,2.24,4.17,3.99,5.15,6.01.3.63.06,1.21.43,2.14.38.94,1.81,2.32,2.36,3.44.62,1.24.95,2.99,1.5,4.51,1.36,3.69,2.78,7.5,4.22,11.34-.63.34-1.17.84-1.73.86-.36.01-1.63-.82-2.01-.92-.65-.16-1.45.03-2.09-.16-1.12-.34-1.56-1.06-2.28-2.08-.99-1.4-.78-2.14-1.65-4.1-.25-.55-.71-1.1-.89-1.58-.21-.56.23-1.03-.54-2.04-.36-.47-1.19-.89-1.67-.5-.6.48.15,1.95-.12,2.78-.22-1.39-1.63-2.36-2.31-3.36-1.01-1.49-1.43-3.52-3.43-2.4.43,1.05.99,1.92,1.15,3.04-.93-1.49-2.38-2.95-3.97-1.71.25,1.2,1.45,1.64,2.21,2.54.71.85,1.17,1.85,1.79,3.17-1.51-.23-2.46-2.01-4.51-.74.87,1.23,2.46,1.69,3.78,2.52,1.24.78,2.69,1.92,3.58,3.33.66,1.03,1.18,2.53,1.83,3.87.66,1.35,1.44,2.74,2.06,4.05,1.23,2.61.97,3.81.97,6,0,3.75-.62,7.59-1.62,10.53-.47.05-1.01.16-1.35.49-.75.75-.18,1.89-.29,2.72-.03.2-.45.64-.55.98-.11.39-.12.77-.19,1.1-.33,1.33-.78,2.52-.32,3.88-1.15.73-.72,1.56-.99,2.76-.14.63-.55,1.33-.68,1.9-.25,1.11-.29,2.34-.65,3.47-.39,1.19-.95,2.61-.95,3.46,0,.41.34.72.38,1.11.03.27-.08.7-.2,1.13-.22-.06-.45-.08-.68-.07-.09,0-.17.03-.25.04-.76-.51-1.5-1.01-2.13-1.56-1.94-1.67-3.87-4.49-5.93-7.21-1.95-2.57-3.99-5.29-5.29-8.01-1.1-2.31-.88-5.2-1.12-8.17-.17-2.08-.51-4.28-.96-6.41-.94-4.48-1.35-9.34-.96-13.78.07-.79.45-1.29.32-2.24-.1-.73-.69-1.08-.8-1.92-.17-1.23.42-2.33.8-2.88,1.45-2.11,2.1-3.85,1.92-7.53-.11-2.34-.21-3.14-1.44-3.85-1.07-.61-.17-4.11,0-5.77.2-1.88.58-3.82.48-5.45-.02-.23-.21-2.5-1.28-2.4-.58.05-1.26,2.2-1.44,3.21-.53,2.92-.6,6.24-1.28,8.49-.62-.53-.19-1.24-.48-1.76-.96-1.72-2.95-.47-3.04,1.12-1.08-.67-1.52.74-2.4.96-.66.17-1.12-.38-1.76,0-.93.55-1.28,2.4-1.28,3.85,0,3.69,1.27,8.59,2.09,10.9-2.12.53-.98,1.71-.96,3.37.02,1.56-1,3.45-1.28,5.29-.09.61-.13,1.18-.16,1.76-.24,4.81.26,10.02.35,15.12-1.4,1.08-2.76,2.17-4.28,3.11-.18-.05-.36-.1-.5-.11-.54-.45-1.18-.75-2.08-.62-.53.07-.86.43-1.16.89-.12.04-.25.08-.37.13-1.16-3.19-2.21-6.61-2.88-10.23-.36-1.97-.96-4.3-.71-6.03.15-1.06,1.11-1.94,1.84-3.23.64-1.13.94-2.64,1.45-3.58.32-.59.88-.84,1.21-1.36.34-.54.3-1.17.63-1.88.51-1.09,1.83-2.2,2.22-3.07.4-.88.25-1.83.59-2.61.56-1.31,1.79-2.12,1.81-3.78-2.37-.43-3.38.15-4.33,1.53-.71,1.03-.36,2.43-.91,3.36-.08.13-.69.5-1.06.8-1.02.81-2.3,2.34-3.74,2.24-2.02-.14-1.94-2.68-2.65-4.64-.3-.82-1.01-1.73-1.45-2.86-.41-1.05-.5-2.31-.93-3.44-.26-.7-.76-1.39-1.04-2.15-.89-2.39-1.37-5.57-3.61-5.32-1.03,1.52.36,4.61.92,6.57.33,1.16,1.25,3.79,1.57,5.06.22.86.71,1.06-.11,1.3-.73.21-.55-.27-.8-1.06-.54-1.73-.95-4.56-1.25-5.82-.45-1.9-1.02-6.84-2.94-6.46-1.61.32-.87,2.71-.45,4.99.19,1.08.4,2.88.59,4.01.39,2.23,1.57,4.34.7,5.85-1.01-1.86-1.25-4.01-2.03-6.69-.39-1.34-1.52-6.32-3.23-5.15-1.22.83.09,3.63.49,5.49.22.99.14,2.1.36,3.11.46,2.12,1.69,4.18.9,6.2-.98-1.29-1.91-2.92-3.01-4.43-.97-1.33-1.97-3.59-4.04-3.08-.34,2.3,1.58,4.13,2.73,5.92,1.2,1.86,2.19,3.88,3.28,5.88,1.01,1.88,1.82,4.08,2.92,6.09,1.1,2,3.21,4.01,3.83,5.86,1.07,3.21,1.63,7.16,2.27,10.91.41,2.38.76,4.77,1.1,7.16-.09.05-.18.12-.27.16-1.55.73-1.87,2.66-2.87,3.89-.31.79-.54,1.6-.69,2.43-.15.87-.07,1.76-.27,2.62,0,.02-.01.03-.01.05-.58.44-1.19.88-1.87,1.36-3.19,2.2-6.32,4.1-9.69,5.91-.03.02-.06.04-.09.05-.04-.07-.08-.13-.12-.2-.42-.72-.88-1.45-1.35-2.24-.46-.78-.71-1.79-1.18-2.39-.58-.74-1.58-1.43-2.29-2.12-2.13-2.02-3.77-4.52-5.6-7.08-1.03-1.45-2.4-3.11-3.79-4.67-1.28-1.45-3.47-2.95-4.11-4.37-.92-2.03-.77-5.96-1.14-8.99-.36-2.93-1-5.71-1.47-8.53-1.06-6.23-2.23-12.73-1.48-18.59.52-4.05,3.67-4.8,4.05-9.15.18-2.09.07-6.17-.71-7.88-.52-1.14-1.5-2.98-2.94-1.5.5-2.07-1.53-2.76-2.62-1.65-1.15-.75-1.6-.19-2.68.39-.51.27-1.16.41-1.43.59-.36.24-.43.78-.82,1.08-.34.26-.91.22-1.27.43-.59.34-2.43,1.84-2.59,2.44-.14.56.14,1.97.23,2.99.08.95.1,1.99.23,2.84.35,2.28,1.47,4.72,1.84,6.81.36,2.02.04,3.78.14,5.98.07,1.5.46,2.51.52,3.79.11,2.53-.38,5.13-.55,7.69-.34,5.17-.53,10.36-.31,15.55.1,2.35.13,5.37.89,7.1,1.42,3.28,3.04,7.16,4.38,10.98.45,1.29,1.19,2.52,1.46,3.66.21.88.15,1.94.38,3,.59,2.67,1.34,4.64,2.3,6.98.86,2.1,2.19,3.75,2.47,6.52.12,1.12.12,2.25.09,3.37-.61.04-1.35-.47-1.91-.43-.33.02-.96.33-1.49.45-.64.15-1.58.12-1.87.21-.91.27-1.9,1.22-2.86,1.74-1.13.61-2.19.87-3.42,1.27-.55.17-1.14.32-1.73.46-.11-.48-.18-.95-.17-1.39.02-1.9,1.33-3.24-1.1-3.84.93-2.63,2.39-8.24,2.38-12.45,0-1.65-.41-3.77-1.47-4.39-.37-.22-.69-.17-1.02-.09.07-1.08-.08-2.3-.77-3.35-.24-.36-.55-.69-.9-.96.08-.3-.06-.57-.19-.9-.08-.2-.09-.41,0-.61.12-.03.23-.06.33-.11-.23.03-.45,0-.64-.05-.09-.09-.17-.2-.24-.32-.13-.24-.25-.48-.49-.62-.06-.22-.04-.46-.13-.66.16-.04.31-.11.44-.19-.18.05-.36.06-.52.05,0,0-.01-.01-.02-.02-.02,0-.04,0-.06.01-.37-.05-.72-.22-1.08-.4-.12-.17.08-.4-.18-.52-.32-.12-.51-.32-.69-.6-.36-.54-1.22-.72-1.82-.85-.82-.17-1.45-.66-2.18-1.07-.15-.07-.23.09-.35.11-.34-1.17-.9-2.54-1.39-2.58-.68-.06-1.05.7-1.25,1.44-.22-.12-.44-.24-.65-.38-.85-.56-1.65-1.27-1.95-2.35-.06.75.22,1.51.66,2.16-.34-.22-.65-.46-.87-.66-.06.23-.14.4-.32.35-.42-.34-.77-.72-.93-1.29-.07.62.27,1.24.67,1.72,0,0,0,0,0,.01-.53-.3-1.05-.58-1.53-.95.39.6.91,1.08,1.43,1.54-.14.05-.31.08-.35.15.22.05.6.13.86.3.08.08.17.15.25.23.06.09.09.19.08.31-.15-.02-.3-.01-.46,0-.08-.08-.17-.16-.26-.24-.88-.72-1.95-.67-2.69-.88-.78-.16-1.37-.83-1.75-1.66.05.45.16.91.4,1.33.06.1.12.2.19.29-.07,0-.14,0-.21.05.14.19,2.28,1.53.73,1.26-1.05-.18-1.88-.57-2.81-1.11,0,.02-.02.04-.02.06-.35-.23-.67-.5-.94-.86.17.69.72,1.25,1.28,1.67.18.13.37.25.55.36-.3.06-.63-.11-.94-.17-.72-.73-1.62-1.41-2.67-1.49,1.06.48,1.7,1.34,2.42,2.2-.33-.05-.68-.07-1.03-.05-.77.06-1.44.36-2.01.62-.29.14-.56.26-.84.39-.38.15-.55.28-.84.39-.53.22-1.1.38-1.66.34-.56-.02-1.12-.32-1.49-.85.16.62.68,1.2,1.37,1.42.28.1.58.15.87.16-.33.13-.64.27-.97.39-.55.19-1.14.41-1.73.18.49.43,1.23.42,1.85.37.37-.03.74-.09,1.1-.15.15.03.3.06.45.1.1-.07.24-.15.39-.21.2,0,.41-.02.61-.04,0,0,.02,0,.03.01-.47.19-.91.39-1.36.55-.12.03-.24.07-.36.12-.54.17-1.09.27-1.63.16-.55-.11-1.06-.47-1.5-.92.26.57.66,1.13,1.29,1.46.63.33,1.38.37,2.04.28.11-.02.21-.03.32-.05-.19.16-.36.3-.53.39-.27.15-.65.22-1.01.2-.75-.04-1.52-.46-2.3-.81.62.58,1.24,1.22,2.19,1.48.4.09.82.12,1.24,0,.06.02.11.05.15.07-.75.41-1.46.85-2.29,1.03,1.02.12,2-.28,2.9-.65-.02.03-.04.05-.06.08-.34.14-.66.29-.96.48-.74.46-1.38.98-2.11,1.44.64-.15,1.25-.38,1.85-.61.08,0,.15-.03.23-.06-.13.16-.25.31-.37.47-.35.14-.71.24-1.1.23.26.1.54.14.82.13-.08.11-.16.22-.24.33-.1,0-.21.01-.32,0,.08.04.17.06.25.09-.08.12-.16.24-.23.35-.14.23-.26.48-.37.73-.12-.03-.23-.06-.35-.09.1.07.2.14.3.21-.33.76-.63,1.55-1.34,2.05.09.6.32,1.1.65,1.51-2.15.55-1.86,3.15-2.5,5.89-.25,1.07-.83,1.99-.92,2.77-.09.77.28,1.52.18,2.07-.2,1.13-1.18,2.06-.76,3.2.36.98,2.04,1.39,2.86,1.96,1.14.78,1.75.93,1.56,2.64-2.86-.53-6.7-.6-9.06.24-.44.34-.21.95-.16,1.42-1.11-1.43-2.2.52-3.56.63-.65.06-2.12-.04-2.82-.51-1.47-.99-.68-4.21-1.38-6.11-.48-1.3-2.03-2.46-3.29-3.65-.64-.6-1.39-1.16-2.14-1.75.12-.51.25-.95.41-1.28.33-.66,1.01-1.01,1.32-1.54.75-1.28,1.28-4.09,1.07-5.93-.07-.62-.44-1.32-.64-1.89,3.67-6.44,6.64-13.87,10.18-19.91.78-1.33,1.72-2.43,2.5-3.75.37-.62.46-1.54.89-2.14.85-1.18,2.4-1.84,3.39-2.86.83-.85,1.57-1.93,2.32-2.85.81-1.01,1.72-1.9,2.5-2.86,1.64-2.02,2.61-4.4,3.93-6.6.77-1.28,2.41-2.28,1.96-4.1-1.43-.67-2.3,1.26-3.04,1.25.68-1.33,1.45-2.51,2.32-3.75.79-1.11,2.02-2.36,1.79-3.93-2.66-.23-3.74,2.4-5,4.1-1.38,1.87-2.64,3.83-4.1,5.35,0-.18.15-.21.18-.36,1.19-2.13,2.55-4.37,3.92-6.42,1.3-1.95,3.58-3.65,3.57-6.25-1.72-.38-2.76.85-3.57,1.78-1.76,2.04-3.21,4.01-4.64,6.07-.7,1.01-1.19,2.65-2.68,2.85.99-1.93,2.58-3.45,3.93-5.17,1.31-1.68,3.24-3.27,3.21-5.71-2.31-.61-3.36,1.81-4.64,3.21-.64.69-1.53,1.25-2.14,1.96-.7.8-1.14,1.81-1.79,2.5-.76.82-1.87,1.3-2.5,2.14-1.1,1.48-1.24,4-3.21,4.46.61-.7.41-2.35.89-3.93.37-1.21,1.11-2.11,1.07-3.21-.04-1.19-1.27-3.67-2.5-3.21-1.05.39-.79,4.26-1.6,6.42-.57,1.52-1.93,3.08-2.32,4.1-.2.53-.15,1.28-.36,1.96-.23.74-.65,1.3-.71,1.79-.18,1.29-.05,2.57.18,3.39.36,1.33,1.51,1.98,1.61,3.03.06.63-.22,1.45-.62,2.32-.1-.52-.19-1.05-.29-1.56-.58-3.1-1.52-6.17-2.12-9.33-.62-3.28-1.44-6.53-1.87-9.81-.3-2.29-.15-4.46-.53-6.48-.58-3.13-.84-6.62-2.08-9.03-.51-.99-1.43-1.77-1.73-2.82-.42-1.42-.06-2.67-.64-4.95-.16-.64-.86-2.95-2.11-2.17-.71.45.07,4.33.07,5.32,0,.65.49,1.64-.41,1.58-.41-1.8-1.02-2.88-1.48-4.38-.45-1.49-.7-4.33-2.19-3.98-1.46.34-.37,2.64-.1,3.97.14.71.19,1.79.37,2.85.21,1.26.64,2.15,0,2.44-.86.39-1.34-1.26-1.79-2.06-.54-.94-1.25-2.02-1.55-2.54-.84-1.51-1.32-4.8-3.69-3.79-.49,1.33.29,2.73.8,3.86.56,1.24.96,2.44,1.55,3.76.38.84,1.53,1.96.93,2.47-.53.45-1.28-.87-1.86-1.43-.74-.73-1.36-1.18-1.9-1.74-.77-.79-2.92-3.93-4.15-2.66-.8.81.77,2.72.63,2.51.62.92,1.1,1.18,1.64,2.07-.71-.08-1.26.04-1.65.21.06.95.82,1.3,1.32,1.96.5.67.77,1.47,1.34,2.11.56.64,1.65,1.17,2.39,1.98.51.56,1.02,1.29,1.62,1.92.59.62,1.14,1.18,1.75,1.75,1.17,1.1,3.12,2.54,3.5,3.51.44,1.12.3,3.02.58,4.5.84,4.36,1.09,8.76.78,13.15-.24,3.38-.96,6.68-.99,10.03-.03,3.22.34,6.16.05,8.68-.27,2.26-.37,2.68-1.28,4.28-.59,1.04-.87,1.76-1.44,1.86-1.16.21-.9,1.54-1.38,2.31-.19.3-.67.55-.95.89-.78.92-1.4,1.85-2.1,2.73-.14-.23-.27-.46-.37-.72-.63-1.55-.85-3.39-1.29-5.07-.44-1.67-.92-3.21-1.72-4.91-3.43-7.34-9.04-14.16-11.52-22.22-.71-2.31-2.07-5.08-1.41-7.76.24-.99,1.12-1.73,1.31-2.53.62-2.58-.68-3.07-.68-5,0-.89.84-1.67.49-2.61-.84-2.25-3.42-.71-4.71-.11-.19-1.33-1.35-2.53-1.99-4.33-1.01-2.84-1.1-6.43-1.95-8.43-.37-.88-1.33-1.95-1.87-1.64-.12,0-.48.21-.46.39-.29,3.28.95,6.87,1.35,10.18-2.32-.32-3.91.99-3.22,3.14-1.07-.25-1.82-.11-2.3.36-.5.71-.07,1.28-.02,2.05-1.37.07-1.35.34-1.55,1.06-.22.78,1.54,4.91,1.86,5.54.61,1.2,1.75,2.29,2.5,3.36,1.34,1.9,2.26,2.8,2.78,4.62.36,1.29.64,2.72,1,4.01,1.4,5.09,2.79,9.92,3.94,15.02-2.11-1.07-4.56-1.7-6.72-1.43-6.77.84-11.24,6.97-9.33,14.1-.89-.55-1.8-1.08-2.76-1.55.38-.35.65-.8.84-1.27-.24.47-.55.91-.97,1.21-.45-.22-.92-.43-1.39-.62.02-.06.04-.12.05-.18-.03.06-.06.11-.1.17-.26-.1-.51-.21-.78-.3-.68-.29-2.53-.64-2.55-.6.03-.03,1.89.35,2.53.64.26.09.51.2.76.31,0,.01-.02.03-.03.04-.12-.05-.23-.11-.35-.16-1.26-.47-2.74-.88-4.32-.83-.07,0-.13-.02-.2-.02-.3-.09-.61-.15-.94-.15-.65-.03-1.31,0-1.97.13-.66.13-1.31.35-1.91.68-.31.17-.59.37-.85.58-.43-.44-.8-.91-1.02-1.45-.63-1.56-.1-3.68-.56-5.56-.29-1.17-1.22-2.28-1.98-3.55-.71-1.19-1.3-2.51-1.98-3.55-.36-.55-.72-1.1-1.08-1.63,1.47-3.6,3.08-7.15,4.53-10.23.94-2,1.09-5.52,1.29-8.28.43-6.07.4-12.14.18-18.21-.11-3-.58-6.05-.37-9.01.11-1.49.6-2.67.74-4.41.19-2.57-.12-4.64.37-6.99.51-2.44,1.91-5.25,2.39-7.91.18-.98.25-2.2.37-3.31.13-1.2.52-2.84.37-3.5-.16-.7-2.26-2.52-2.94-2.94-.42-.26-1.08-.23-1.47-.55-.44-.36-.5-.99-.92-1.29-.31-.22-1.07-.4-1.65-.74-1.25-.72-1.75-1.39-3.12-.55-1.24-1.33-3.64-.6-3.13,1.84-1.63-1.77-2.85.34-3.49,1.66-.97,1.97-1.24,6.74-1.1,9.19.29,5.11,3.95,6.1,4.41,10.85.67,6.88-.94,14.45-2.39,21.7-.66,3.28-1.5,6.51-2.02,9.93-.35,2.26-.46,4.96-.8,7.24-.06-.16-.13-.31-.19-.46-.52-1.41-1.24-2.91-1.46-4.23-.08-.51.04-1.23-.08-1.82-.19-.88-1.01-1.83-1.14-2.9-.08-.7.4-1.91.38-2.94-.01-.93-.3-2.51-.65-3.88-.32-1.24-.57-2.77-.93-3.69-.29-.75-1.79-3.06-2.07-3.09-.85-.07-1.38,1.75-1.34,2.61.05,1.11.76,2.07.53,2.98-.21.87-.87.85-1.34,1.39-1.28-.88-1.99-2.41-2.85-4.36-.41-.93-1.48-5.12-3.39-3.83-.7.47.15,2.9.5,3.9.52,1.52,1.25,2.7,1.25,3.8-1.33.33-1.98-1.24-2.71-2.09-.76-.89-1.74-1.71-2.46-2.58-1.03-1.24-1.94-3.96-4.28-2.5,1.2,3.45,3.92,5.88,5.35,8.45-1.09-.6-3-2.14-4.19-2.96-.51-.35-1.24-.53-1.63-.86-.45-.37-2.47-3.26-3.72-1.65-.74.96,1.14,1.66,1.38,2.41-3.96-.27,1.21,3.32,2.04,4,.63.52,1.13,1.27,1.75,1.76.74.59,1.55.93,2.01,1.42.57.62.99,1.59,1.49,2.09,1.09,1.12,2.45,1.9,3.72,2.87,1.21.93,2.88,1.99,3.46,3.21.43.91.37,1.9.86,3.09.64,1.58,1.4,2.95,1.96,4.62.46,1.36.9,2.72,1.33,4.08-1.47,1.59-2.9,3.23-4.01,4.7-2.23,2.94-4.24,5.8-6.8,8.09-.86.77-2.05,1.54-2.76,2.39-.45.54-.75,1.37-1.13,2.14-3.1-3.65-6.17-7.36-8.72-11.72-1.05-1.79-2.4-3.86-2.32-5.53.08-1.47,1.12-2.56,1.25-3.75.15-1.4-.08-2.35-.36-3.57-.56-2.48-1.14-2.84-2.68-4.1-.8-.66-1.71-1.25-2.32-1.96-1.45-1.67-1.44-3.4-3.21-4.82-.97.52-1.05,1.93-1.25,3.21-1.44-.7-2.02-2.25-3.03-3.39-.84-.95-2.03-1.67-3.03-2.86-.48-.57-2.17-3.08-3.39-2.14-.7.54.36,2.53.71,3.04.71,1.03,1.64,1.71,2.14,2.32,1.53,1.87,2.99,3.5,3.93,4.82-1.55.1-2.23-1.44-2.86-2.32-1.47-2.07-2.75-3.87-4.46-5.89-.54-.64-2.11-2.51-3.03-1.61-.92.91.53,2.26,1.07,3.04.63.9,1.47,2.29,1.96,3.03,1.55,2.3,2.94,3.74,3.93,6.07-1.73-1.16-2.76-3.26-4.1-5-1.27-1.64-2.29-4.15-4.82-3.92-.42,1.5.89,2.53,1.61,3.57.79,1.14,1.24,2.42,1.96,3.57.56.89,1.37,1.56,1.96,2.5.61.96,1.19,1.93,1.6,3.03-.81-1.22-1.92-2.57-2.86-3.93-.88-1.28-1.63-3.35-3.75-2.85-.34,1.81,1.19,2.8,1.96,4.1.25.42.27.97.54,1.43.44.76,1.36,1.44,1.96,2.32.23.33.43.7.63,1.07-.29-.16-.57-.32-.85-.5-.38-.23-.7-.17-1.11-.29-.32-.1-.61-.27-.92-.36-.55-.15-1.18-.23-1.75-.22-.18,0-1.39.14-1.46-.04-.09-.23-.95,0-1.51.19.54-5.73,1.02-11.73,1.6-16.96.25-2.28.25-4.63.86-6.44.36-1.09,1.38-2.06,1.93-3.22,1.03-2.17,1.68-4.88,2.36-7.51.37-1.42.99-2.6,1.29-3.65.42-1.49,1.07-5.68,0-6.44-1.42-1-2.24,1.17-3,1.07-.31-1.33-.34-2.95-.86-4.08-.85-1.07-2.13.47-2.36.43-.45-.08-1.08-1.66-2.14-1.5-.92.13-.71,1.3-1.29,1.93-.59.65-1.14.91-1.5.64-.98-.72-.5-1.76-.43-3.43.16-3.74.73-7.25-.22-9.87-1.07-2.99-2.63-1.44-3,1.5-.39,3.1-.15,6.73-.43,9.66-.36,3.74-1.29,6.73-2.15,9.44-1.6-1.01-3.47-5.76-6.44-6.22-1.52-.24-3.46.26-3.65,1.07-.35,1.49,2.39,1.99,3.65,3,.71.58,1.55,1.81,1.72,2.15,1.01,2,.94,5.23,1.93,7.94,1.18,3.21,3.88,3.79,4.08,7.08.14,2.22-.75,5.94-1.29,8.37-1.16,5.27-2.97,9.73-4.51,14.81-.73,2.4-1.55,5.06-1.93,7.51-.26,1.66-.1,3.45.1,5.18-.15-.06-.3-.13-.46-.2-.21-.11-.42-.2-.64-.28.27-.01.54-.03.81-.04-.51-.1-1.04-.17-1.57-.19-.44-.11-.89-.19-1.32-.24-.11-.01-.22-.03-.33-.04-.19-.23-.36-.48-.47-.65-.15-.23-.3-.43-.45-.61,0-.03.02-.05.02-.07.28-.79.72-1.59,1.56-1.94-.86.13-1.53.86-1.93,1.62-.1-.11-.21-.21-.33-.32-.04-.04-.08-.07-.11-.09-.31-.66-.47-1.4-.4-2.17-.23.66-.23,1.39-.07,2.1-.09-.05-.19-.1-.27-.16-.34-.17-.54-.4-.7-.76-.17-.33-.31-.7-.42-1.06.03.38.09.77.2,1.15.06.19.12.37.24.57.11.16.25.29.39.4-.08.38-.23.74-.39,1.09-.04.01-.07.02-.11.04-.34-.99-.9-1.84-.63-2.88-.35.61-.26,1.39-.08,2.05.07.27.15.54.23.8-.09-.03-.19-.05-.32-.04-.06,0-.11.02-.16.04-.26-.07-.6.33-.85.72-.3.03-.59.08-.88.13h0c-.39-.65-.5-1.51-.73-2.3.05.79,0,1.58.3,2.39-1.01.22-1.98.54-2.88.95,0,0-.02,0-.03-.01-.39-.22-.46-.82-.42-1.32-.13.44-.24,1.03.14,1.48-.08.04-.16.08-.24.12-.33.04-.65.11-.97.21-.1.04-.11.03-.28.12-.11.07-.17.12-.23.17-.12.11-.24.21-.35.31-.22.21-.44.41-.66.62-.44.4-.88.81-1.36,1.1-.25.13-.5.23-.6-.01-.1-.25-.07-.57-.05-.87-.09.29-.19.58-.14.92.01.18.21.37.42.38.12.01.23,0,.34-.03-.05.06-.09.12-.14.17-.2.1-.48.09-.73.13-.69.02-1.48-.08-1.8-.8.07.38.34.72.71.91.24.13.51.2.77.25.1.31-.28.5-.54.56-.18.02-.3.12-.34.3-.22-.12-.36-.13-.42-.03-.37-.24-.72-.58-1.06-.89.3.42.58.86,1.02,1.2-.02.04-.04.08-.07.12l-.02-.08c-.28.07-.55.15-.82.23-.33.1-.66.22-.99.35-.35-.31-.65-.69-.92-1.09-.84-1.27-1.43-2.74-2-4.24-.06-.15-.11-.3-.17-.45-.15-1-.32-1.97-.61-2.82-.5-.24-.89-.58-1.25-.96,1.13.68,2.2,1.78,3.51,2.29-1.36-.81-2.13-2.18-3.5-3.17.07.01.14.02.22.03.78.34,1.64.55,2.46.37-1.07.05-1.99-.49-2.78-1.11-.12-.1-.24-.21-.37-.31-.05-1.45-.09-2.9-.07-4.35.07-4.04-.12-8.1.17-12.1.2-2.78.91-5.33.95-7.82.07-3.86.62-8.05-.26-11.22-.36-1.3-1.26-2.45-1.37-3.77-.15-1.79.58-3.18.45-6.02-.04-.8-.31-3.71-1.97-3.08-.95.36-.97,5.15-1.21,6.33-.15.77.17,2.07-.87,1.77-.05-2.23-.51-3.67-.69-5.56-.17-1.88.22-5.31-1.63-5.26-1.81.05-1.08,3.05-1.09,4.69,0,.88-.21,2.17-.26,3.47-.06,1.55.23,2.7-.58,2.89-1.12.26-1.28-1.82-1.62-2.87-.41-1.25-1-2.7-1.21-3.4-.63-2-.39-6.01-3.45-5.4-.9,1.46-.32,3.31.01,4.77.36,1.6.54,3.13.92,4.84.24,1.09,1.34,2.7.5,3.16-.73.4-1.31-1.34-1.86-2.16-.7-1.04-1.32-1.74-1.83-2.52-.73-1.13-2.5-5.37-4.28-4.17-1.14.77.25,3.42.13,3.13.51,1.24,1.01,1.67,1.44,2.86-.82-.26-1.51-.26-2.01-.15-.16,1.14.66,1.75,1.09,2.65.43.91.55,1.93,1.07,2.83.52.89,1.68,1.79,2.35,2.93.47.79.9,1.78,1.45,2.68.55.89,1.06,1.68,1.65,2.51,1.12,1.59,3.08,3.77,3.3,5.02.25,1.44-.39,3.66-.41,5.48-.03,2.44-.22,4.86-.53,7.26-.11-.15-.22-.29-.32-.41-.19-.27-.44-.5-.7-.68-.32-.22-.66-.37-1-.5-.03-.49-.06-.99-.23-1.46.09.46.04.91-.01,1.37-.7-.25-1.37-.45-1.87-1.04.41.7,1.16,1.06,1.83,1.44v.02h-.5c-.06,1.1.17.56.18,1.3-.03-.02-.05-.04-.08-.07-1.46-1.18-3.23-.72-4.3-2.04.35.63.93,1,1.55,1.3h0c-.11.49-.73.47-1.21.58-.34-.06-.68-.14-1-.25.24.13.49.24.75.34-.08.04-.15.09-.2.15.36,0,.67.04.94.12.08.03.17.06.26.09.53.22.9.59,1.29.95-.14.02-.17.14-.18.28-.02-.01-.03-.02-.04-.03-1.23-.85-2.54-1.36-4.01-1.52-.36,0-.7.04-1.03.11-.4,0-.82.1-1.27.35-.57.15-1.12.24-1.73.06,1.03.5,2.23.12,3.25.09.51.11.93.35,1.04.82-2.47.47-5.15.73-5.74,3.09-.21.16-.45.26-.7.21-.27-.05-.51-.24-.72-.46.17.24.37.48.68.6.07.03.14.04.21.05-1.78.69-3.77,1.44-3.97,3.26-.07.27-.17.51-.44.68.23-.1.38-.27.49-.47.24.08.21.42.27.69-.1.19-.21.37-.34.54-.27.39-.74.67-1.24.47.44.3,1.07.08,1.42-.3.15-.14.29-.3.42-.45.03-.02.05-.06.07-.09.05-.07.1-.14.16-.2.04-.02.09-.02.17,0,.09,1.49-1.26,1.5-1.99,2.32-.11.12.09.52,0,.66-.62.95-1.74,2.16-2.09,3.24-.21.34-.4.69-.57,1.05-3.68-3.97-8.07-7.52-11.32-12.04-.62-.87-1.59-1.94-1.64-2.39-.1-.84.43-2.4.82-3.3.36-.83,1.24-1.47,1.38-2.14.12-.61-.27-1.49-.23-2.19.07-1.24.72-2.58.89-3.83.33-2.42-.08-5.62-.28-8.3-.25-3.28-.89-5.91-1.58-7.94-.59.13-1.23.75-1.43,1.24-.5,1.24.1,2.39.16,3.97.07,1.6-.42,3.15-.06,4.3-2.29.58-4.93-2.27-6.26-.16-1.36.06-2.45-.6-3.22-.09-.72.48-1.27,3.82-1.02,4.7.05.17.32.03.31.4-.01.25-.29.34-.25.5.15.69.6,1.27.63,1.89.17,2.73-1.19,6.12,0,8.98.27.66.85,1.23,1.34,1.98.42.65.73,1.4,1.14,2.14.75,1.35,1.93,2.54,2.68,3.97,1.75,3.33,2.57,7.38,3.88,10.78.67,1.73,1.31,3.48,2.15,5.15.83,1.65,1.74,3.55,2.76,4.69.5.57,1.29.81,1.79,1.33,1.44,1.47,2.35,3.5,3.23,5.12,1.01,1.86,1.62,3.78,2.63,5.57-.05.05-.09.1-.13.15-1.37-1.15-2.74-2.31-3.99-3.47-1.44-1.34-2.62-2.92-3.86-3.86-.31-.24-1.14-.43-1.89-.9.46-2.88.38-5.63-.65-7.89-1.72-3.75-6.94-7.83-11.68-8.21-1.64-.13-3.21.01-4.69.39-.26-.91-.51-1.83-.82-2.7-2.21-6.16-5.37-11.29-8.8-16.95-2.02-3.34-4.15-7.46-6.01-11.16-.81-1.62-1.79-3.74-2.58-6.01-.78-2.27-1.88-5.18-1.72-6.87.09-.92,1.05-2.09,1.72-3.44,1.41-2.87,3.15-8.05,4.72-10.08,1.05-1.36,4.75-2.8,4.5-4.51-.17-1.18-1.57-1.59-3-1.5-3.31.21-4.05,5.07-7.08,6.01-1.84.57-4.93.24-6.01-.21-1.82-.78-2.06-2.63-3.22-4.29-.71-1.02-1.81-1.84-2.58-3-1.42-2.15-2.49-4.39-4.08-6.87-.97-1.51-1.78-3.3-4.29-2.79-.42,1.09.54,2.3,1.07,3.22.56.98,1.24,1.9,1.71,3,.31.72.29,1.61.65,2.36.88,1.87,2.62,3.3,3,5.37-1.72-1.45-3.12-4.34-4.94-6.65-1.66-2.11-3.78-4.8-6.87-4.08-.05,1.43,1.16,2.27,1.93,3.22,2.22,2.72,4.1,5.89,6.01,9.23-2.36-1.15-2.67-6.2-7.51-5.58-.12,1.96,1.79,2.91,2.58,4.29.09.16.15.32.21.5-.11.28-.19.55-.23.78-.21,1.32.4,2.64-.09,3.66-.24.5-.56.7-.91.84-.52-.07-1-.06-1.38.06-1.04-1.34-1.47-3.17-1.96-5.44-.26-1.21-.51-6.44-3.08-5.37-.94.39-.52,3.47-.35,4.75.25,1.93.82,3.51.56,4.81-1.66.06-2.05-1.95-2.7-3.13-.69-1.25-1.65-2.46-2.29-3.66-.03-.05-.05-.11-.08-.16.54-1.87.58-3.94,1.33-5.88.67-1.72,3.1-2.96,1.4-5.58,4.12-2.51,6.01-6.96,8.08-11.18.41-.83,1.16-1.62,1.56-2.47.41-.88.39-2.08.82-2.92.42-.83,1.45-1.58,2.03-2.5.64-1,1.2-2.1,1.77-2.96,1.26-1.9,3.18-3.77,2.32-6.34-2.06-.34-2.19,2.27-3.25,2.08.78-.73.83-.87,1.14-1.25.93-1.16,5.64-5.6,3.48-7.12-1.68-1.19-6.71,5.81-7.58,6.61-.43.39-1.09.45-1.4.79-1.24,1.35-2.22,4.34-3.65,3.77-2.43-.97.16-8.24.68-10.58.27-1.21.7-3.18,1.42-5.34.88-2.66,1.31-4.43-.25-5.02-1.75-.66-2.53,3.16-3.59,4.97.05-1.09.76-3.28-.89-3.55-.94-.15-2.09,2.5-2.69,3.73-2.16,4.4-3.24,11.03-4.81,14.38-.34.73-1.73,2.8-2.03,2.5-1.04-1.29-.41-3.36-.96-4.98-.6-1.78-2.01-3.64-3.75-3.17-.68,4.49.02,10.1.27,15.32.09,1.8.63,3.82.5,5.25-.25,2.64-2.19,4.37-2.56,6.36-.93.28-1.41-.46-1.91.09.3.75-.37.86-.65,1.47-.65,1.44-.8,2.84-1.46,4.38-2.48,5.83-5.49,11.41-9.27,16.27-1.3,1.67-2.46,3.22-3.59,4.97-1.11,1.72-2.24,3.42-3.34,5.2-1.8,2.91-3.3,6.1-5.43,8.89-.32-.9-.64-1.8-.95-2.71-1.53-4.55-3.14-9.66-3.84-15.18-.25-1.98-.71-4.33-.37-6.04.21-1.04,1.21-1.86,2.01-3.11.7-1.09,1.08-2.57,1.65-3.48.36-.57.92-.78,1.28-1.28.37-.52.37-1.15.73-1.83.57-1.05,1.94-2.08,2.38-2.92.44-.85.35-1.81.73-2.56.64-1.27,1.9-2.01,2.01-3.66-2.33-.56-3.37-.04-4.39,1.28-.76.98-.49,2.39-1.1,3.29-.08.13-.71.46-1.1.73-1.06.75-2.42,2.2-3.84,2.01-2-.26-1.78-2.78-2.38-4.76-.25-.83-.9-1.78-1.28-2.93-.35-1.07-.37-2.32-.73-3.47-.22-.71-.68-1.43-.91-2.2-.75-2.42-1.05-5.61-3.29-5.49-1.11,1.45.1,4.6.55,6.59.27,1.17,1.03,3.84,1.28,5.12.17.86.65,1.09-.18,1.28-.73.17-.53-.3-.73-1.1-.44-1.75-.69-4.58-.92-5.85-.34-1.92-.63-6.85-2.56-6.58-1.62.23-1.01,2.64-.73,4.94.13,1.09.23,2.89.37,4.02.26,2.24,1.32,4.4.37,5.85-.9-1.91-1.01-4.06-1.64-6.77-.32-1.36-1.16-6.37-2.93-5.3-1.26.76-.12,3.62.18,5.49.16,1,.03,2.1.18,3.11.33,2.13,1.45,4.25.55,6.22-.9-1.33-1.73-3.01-2.74-4.57-.89-1.37-1.76-3.68-3.84-3.29-.47,2.27,1.33,4.2,2.38,6.04,1.08,1.91,1.96,3.97,2.93,6.03.9,1.92,1.58,4.16,2.56,6.22.98,2.05,2.97,4.17,3.48,6.04.89,3.25,1.21,7.21,1.64,10.97.82,7.15,1.16,14.41,2.05,21.1-5.1,5.19-9.48,11.55-15.45,15.46-2.7,1.77-5.4,3.39-7.65,5.17-.83.65-1.93,1.16-2.55,1.8-.66.68-3.74,5.39-3.78,5.94-.1,1.36-.3,3.7-.7,5.2-.37,1.39.34.67-.43,1.08-.95.51-1.73,1.34-2.57,1.33,1.17-5.26.97-11.76,2.28-16.89,1.36-.08,3.48-1.1,3.98-1.87,1.06-1.65,1.26-8.08.03-9.11-.26-.22-.63-.12-.94-.14-.25-.62-.32-1.28-.28-1.95,0-.09,0-.17.02-.26.09.07.17.15.28.2.01.02.02.04.04.06.01.03.02.05.04.08,0,.01.01.03.02.04.15.29.31.62.48.93.63,1.25,1.52,2.63,2.96,3.04-1.08-.53-1.65-1.53-2.04-2.58,0-.04.03-.07.07-.08.36.37.77.67,1.27.84-.37-.2-.66-.47-.91-.77-.06-.2-.2-.31-.29-.49.37.41.81.75,1.35.93-.5-.27-.86-.66-1.14-1.11-.07-.18-.17-.34-.27-.49-.25-.52-.42-1.08-.57-1.63-.37-1.31-.69-2.51-1.04-3.84,0-.01,0-.02,0-.04.39.33.78.65,1.18.97-.47-.52-.91-1.05-1.36-1.59-.03-.09-.06-.17-.09-.26.63.56,1.43.94,2.25.91-1.08-.15-1.88-.92-2.35-1.79,0-.01,0-.03,0-.04.08.02.16.03.22.06.01.01.03.02.05.03.03.03.05.06.06.1.03,0,.05,0,.07,0,1.01.68,2.08,1.25,3.11,1.88-1.28-1.1-2.67-2.13-3.7-3.37,0,0-.01-.02-.02-.03-.01-.07-.03-.14-.04-.21.27.13.51.37.82.42-.03-.07-.05-.13-.04-.17.26.33.48.71.78,1.02-.21-.31-.34-.65-.51-.99.22.11.44.23.65.35.84.43,1.52,1.44,2.59,1.6-.81-.27-1.22-.94-1.78-1.54.38.17.78.28,1.2.26-.82-.11-1.45-.64-2-1.21-.47-.49-.98-.94-1.46-1.4.29.02.59.09.86.05,2.17,1.29,4.29,2.6,6.11,4.37-.84-1.15-1.83-2.2-2.87-3.19.75.46,1.58.78,2.43.93-2.15-.72-3.41-2.52-4.64-4.28-.03-.03-.05-.07-.07-.1.09.05.18.09.26.15.27,0,.49.35.72.2-.21-.11-.37-.27-.56-.41,1.35.55,2.72,1.08,4.11,1.52-2.58-1.31-4.93-2.95-7.48-4.39.26.08.52.17.77.28,1.04.45,2.15.97,3.23,1.44,1.09.46,2.23.97,3.44.99-.95-.18-1.78-.65-2.59-1.15-.01-.04-.03-.07-.05-.09.67.24,1.36.42,2.07.44-.99-.18-1.84-.68-2.68-1.21,0,0,0,0,0,0,.56.05,1.11.02,1.65-.11-.95.06-1.89-.16-2.71-.57-.18-.12-.36-.24-.54-.36,0,0-.02-.02-.03-.03,0,0,0,0-.01,0-.24-.16-.48-.32-.72-.48-.03-.03-.07-.06-.09-.09-.13-.12-.24-.25-.34-.39.05-.02.1-.03.16-.04,0-.04.02-.06.04-.08.13,0,.25,0,.37-.02.59-.06,1.26-.18,1.66-.65-.47.38-1.1.38-1.66.35-.08,0-.16-.02-.24-.03-.26-.07-.53-.13-.84-.15-.02,0-.05-.01-.07-.02-.07-.12-.04-.35-.17-.41-.24,0-.43-.08-.72-.04-.01-.04-.05-.06-.11-.05-.01,0-.02-.01-.03-.02,1,.16,2.02.13,2.94-.26-1.52.35-2.99-.15-4.26-.87.13-.03.26-.04.38-.08.07-.15.27-.17.49-.17,0,0,0,0,.02-.02,1.59-.19,3.31-.22,4.81-.91-.93.26-1.85.27-2.78.23.14-.02.28-.04.41-.05-.42-.03-.84-.02-1.26,0-.81-.05-1.64-.12-2.5-.07-.07-.02-.1-.08-.06-.23.56-.27,1.07-.58,1.63-.85.31-.07.62-.23.93-.35.27-.1.58-.15.79-.32.32-.15.64-.32.92-.54-1.22.63-2.57.57-3.94.91.09-.05.22-.06.23-.18.22-.07.43-.14.64-.22.38-.16.81-.31,1.05-.66-.29.3-.72.37-1.11.46-.4.08-.81.13-1.21.16-.81.06-1.64.07-2.42,0-.27-.03-.6-.08-.74-.16.3-.36.66-.66,1-.98,0,0,0,0,.02,0,.02-.01.04-.03.06-.04.19-.11.42-.19.51-.39.04-.03.07-.07.11-.1-1.14.79-2.5.83-3.84,1.36.56-.4,1.16-.79,1.63-1.3-.11.09-.23.17-.35.25,0-.02,0-.04-.08-.03-.45.18-.79.46-1.2.68-.05.03-.1.07-.15.1-.33.16-.65.33-.97.54,0,0-.01,0-.02-.01.48-.75.8-1.65,1.21-2.46-.12.05-.22.14-.31.23.01-.02.02-.04.03-.05-.02.04-.05.07-.08.11-.03.04-.07.09-.1.13-.28.39-.57.78-.88,1.15-.05,0-.11-.01-.18.03-.11.19-.28.32-.34.55-.17.18-.35.35-.54.51-.3.29-.64.51-1,.7-.28-.14-.56-.27-.85-.39.07-.13.15-.26.22-.38.02-.04.04-.07.05-.1.25-.24.52-.48.81-.69.38-.68,1.03-1.12,1.56-1.66.45-.33.86-.69,1.2-1.12.12-.1.23-.2.34-.3.25-.08.39-.27.51-.47-.01,0-.03,0-.04,0,.25-.27.48-.56.68-.88-.41.45-.87.81-1.37,1.14-.52.12-.75.5-1.23.65-.11.02-.11-.07-.17-.11-.26.16-.45.39-.63.62-.04.02-.08.04-.11.06.79-.82,1.61-1.69,2.01-2.76-.69,1.15-1.79,1.87-2.86,2.68-.55.43-1,.82-1.57,1.16-.55.35-1.13.69-1.71,1.12-.02.01-.03.02-.05.03.57-1.12,1.26-2.19,2.02-3.23.02-.02.04-.03.07-.05.02-.04.04-.09.07-.14.41-.55.83-1.09,1.27-1.62-.23.2-.46.41-.69.62,0-.02,0-.04,0-.07.11-.09.27-.13.27-.33-.28-.05-.22.21-.32.33-.05.03-.09.07-.13.11.2-.54.29-1.1.21-1.67-.04,1.31-.92,2.3-1.78,3.2-.41.44-.86.87-1.28,1.35.54-1.85,1.45-3.72,1.77-5.69.15-.32.26-.64.25-.99-.15.89-.93,1.38-1.32,2.25,0,.01,0,.03-.01.04-.09-.13,0-.4-.04-.5.09-.42.12-.84.06-1.27-.04,1.08-.64,1.97-1.16,2.91-.06.12-.11.23-.17.34.08-.49.16-.99.22-1.49.03-.14.05-.28.05-.42.02-.23.04-.46.06-.69-.12.51-.27,1.02-.43,1.52-.02.03-.04.05-.06.07,0,.03,0,.05.01.07-.06.17-.11.33-.17.49-.02.03-.03.06-.05.08,0,.02,0,.04,0,.05-.18.51-.36,1.02-.55,1.53-.24.65-.43,1.28-.69,1.87-.13.3-.27.6-.4.9-.04-.51-.14-1-.2-1.46-.15-1.02-.29-2.06-.59-3.05.06.53.08,1.06.08,1.58-.02,0-.03,0-.05,0-.04.15,0,.34.05.54,0,.32-.01.64-.02.97-.01.51,0,.99-.05,1.45-.17-.33-.35-.66-.53-.98-.36-1.15-.53-2.42-.86-3.62.04.42.06.84.08,1.26-.02,0-.03-.02-.05-.03.01.23.03.43.07.64,0,.14.01.28.02.42-.77-1.35-1.56-2.68-2.25-4.07.1.45.2.89.31,1.34,0,.01,0,.02,0,.04,0,.02.02.03.03.05,0,.03.02.06.02.09-.25-.46-.5-.93-.74-1.4.32,1.47.73,2.94,1.12,4.4-.23-.45-.47-.89-.72-1.33.37,1.04.7,2.09,1,3.14-.63-.94-1.32-1.78-1.87-2.74.31,1.13.82,2.22,1.18,3.3-.52-.82-1.07-1.61-1.5-2.49.24.84.6,1.64.94,2.44,0,.02,0,.05,0,.07.02.05.06.09.09.14.12.28.23.57.33.85-.06.04-.14.07-.2.1-.83-.66-1.6-1.27-2.08-2.18-.55-.95-.84-2.07-1.16-3.16.14,1.11.22,2.24.62,3.35,0,.03.01.06.02.09-.18.09-.24-.22-.33-.05.12.25.58.44.41.8-.06-.03-.13-.06-.19-.09-.67-.46-1.36-.85-2.05-1.26.16.13.31.26.47.39-.04,0-.08,0-.13.02.17.25.48.34.74.49.11.09.21.18.31.28,0,0,0,.01.01.02,0,0,.01,0,.01,0,.21.19.41.38.6.58-.11-.04-.21-.07-.32-.11-.65-.2-1.27-.45-1.92-.69-1.28-.47-2.57-.96-3.87-1.38.77.4,1.53.82,2.28,1.25-1.3-.56-2.6-1.11-3.89-1.7.98.66,1.97,1.29,2.96,1.93-.06,0-.1.01-.15.04-1.04-.35-2.07-.76-3.12-1.1.93.48,1.83,1.02,2.76,1.52.03.04.07.08.1.13.24,0,.35.12.44.26.14-.03.19.04.27.07-.07,0-.13,0-.19,0,0,0,0,0-.01,0-.02-.02-.04-.05-.06-.08-.26.07-.44-.19-.61-.12-.85-.26-1.69-.57-2.55-.82.61.29,1.2.62,1.8.93-1.22-.13-2.47-.33-3.71-.19,1.62.09,3.07.73,4.71,1.07.2.04.4.08.61.1,0,0,.01,0,.02.02-1.58-.29-3.2-.34-4.76-.16,1.86.1,3.67.5,5.33,1.22.42.17.84.37,1.23.56.42.21.84.41,1.25.61,0,0,0,0,.01,0-.13.12-.26.24-.39.37-1.15-.43-2.31-.86-3.49-1.24.39.2.77.41,1.15.62.49.33.96.69,1.43,1.06-.66-.17-1.3-.34-1.96-.58-1.39-.44-2.85-.79-4.31-.84,1.43.29,2.75.85,4.03,1.5.42.24.87.45,1.32.66-.96-.34-1.89-.47-2.8-.71-1.06-.26-2.13-.46-3.2-.63.65.21,1.28.44,1.91.69-.17-.04-.34-.06-.52-.03.14,0,.16.11.17.24-.92-.19-1.85-.25-2.76-.22.7.09,1.39.24,2.06.45.05.04.13.06.22.07.46.16.91.35,1.33.57.52.28,1.06.54,1.59.81-1.18-.12-2.25-.05-3.35-.1-1.14-.05-2.32-.13-3.46.03.82.02,1.61.16,2.41.33-.68.05-1.34.19-1.95.43,1.32-.05,2.49.3,3.59.85-.09.05-.18.09-.26.14.11-.04.21-.08.32-.11.15.08.3.16.45.24-.21.09-.41.19-.6.3.24-.09.49-.17.74-.22.24.13.47.28.7.42-.95.42-1.85.83-2.84,1.09-1.21.34-2.47.61-3.67,1.05.68-.13,1.36-.2,2.05-.27.13.06.26.02.39-.04.3-.03.6-.05.89-.08.01,0,.02,0,.04.01-.09.03-.18.06-.27.09-.89.28-1.7.68-2.53,1.03.49-.12.99-.25,1.48-.36,0,.05,0,.11,0,.16.89-.1,1.81-.18,2.7-.28.14.06.37.03.56.04-.28.15-.57.28-.87.35-.63.16-1.35.14-2,.38.68-.13,1.34,0,2.05-.05.07,0,.14-.02.2-.02,0,.07,0,.15,0,.22-.18.1-.29.26-.49.34-.05.12-.08.24-.16.33-.06.04-.11.08-.16.13-.87.61-1.77,1.12-2.9,1.25,1.01.05,1.95-.24,2.85-.63.64-.25,1.3-.42,1.96-.61,0,.1-.04.17-.09.24-.3.22-.59.45-.87.68-.99.85-1.93,1.8-2.52,2.94.31-.41.67-.78,1.06-1.11,0,.03,0,.07.02.11.31-.24.58-.52.86-.79.32-.22.64-.43.97-.62.22-.13.45-.26.68-.38.01,0,.02,0,.04,0,0,0,0-.01,0-.02.09-.05.19-.1.28-.14.02.03.05.05.1.04.04,0,.08,0,.12.01-1.18,1.34-1.9,2.88-2.66,4.38.8-1.11,1.64-2.25,2.61-3.19,0,.01,0,.02,0,.03-.19.21-.38.43-.54.67-.17.13-.32.27-.45.41-1.09,1.3-1.53,2.77-2.22,4.15.73-1,1.37-2.14,2.17-3.02-.3.47-.59.95-.89,1.42.13-.14.25-.28.38-.42-.34.48-.62.99-.85,1.51.57-.88,1.29-1.64,2.13-2.21.01,0,.02-.01.03-.02,0,0,0,.01,0,.02-.02.04-.03.09-.05.14-.45,1.29-.82,2.59-1.37,3.81-.09.16-.19.31-.3.46,0,.1-.06.23-.09.34-.25.46-.53.9-.86,1.32.64-.57,1.17-1.24,1.64-1.95-.18.42-.31.85-.46,1.27-.08.16-.15.33-.21.51-.04.1-.09.2-.14.3.04-.06.08-.12.12-.17.28-.03.37-.34.51-.52-.46,1.41-.37,2.82-1.27,3.96.31-.27.54-.59.74-.93,0,0,.02.02.03.03-.17.45-.27.98-.33,1.55-.19.23-.4.46-.64.66.23-.15.43-.33.62-.52,0,.02,0,.04,0,.06-.07,1,.16,5.75.31,6.21.34,1.09,1.71,1.17,2.51,2.27.32.45.24,1.39.58,2.13.41.88.91,1.1,1.05,1.87.59,3.35-.92,5.47-.5,9.37-3.02.22-3.12-3.07-4.07-4.83-.59-1.08-1.81-2.04-2.56-3.23-.64-1.01-1.02-2.26-1.59-3.04-2.42-3.34-6.71-4.76-9.95-7.42-1.18-.97-2.36-2.39-3.53-3.66-.12-.13-.23-.27-.35-.41,1.15-2.53,2.35-4.94,2.48-7.97.13-2.84-.35-5.9-.76-8.73-.47-3.29-1.33-6.57-1.82-9.92-.51-3.48-1.23-6.94-1.54-10.42-.22-2.42.03-4.71-.28-6.85-.48-3.33-.59-7.01-1.79-9.6-.49-1.07-1.42-1.93-1.7-3.05-.38-1.51.06-2.81-.45-5.24-.14-.68-.78-3.15-2.13-2.37-.77.44-.12,4.56-.16,5.61-.02.69.44,1.75-.5,1.64-.36-1.91-.95-3.08-1.37-4.68-.41-1.59-.55-4.6-2.13-4.29-1.55.29-.5,2.77-.28,4.18.12.75.13,1.89.26,3.02.17,1.34.58,2.29-.1,2.57-.92.38-1.35-1.39-1.79-2.24-.52-1.02-1.23-2.18-1.52-2.75-.82-1.63-1.18-5.11-3.72-4.16-.57,1.38.19,2.89.68,4.1.54,1.33.9,2.61,1.47,4.03.36.9,1.53,2.13.87,2.64-.58.45-1.31-.97-1.9-1.59-.75-.8-1.38-1.31-1.93-1.91-.78-.87-2.9-4.27-4.26-2.99-.87.82.69,2.9.55,2.67.61,1,1.1,1.29,1.63,2.26-.74-.11-1.33-.01-1.75.15.02,1,.81,1.41,1.3,2.13.5.72.74,1.58,1.32,2.28.57.69,1.69,1.3,2.43,2.19.51.61,1.02,1.41,1.62,2.1.6.68,1.15,1.3,1.77,1.93,1.18,1.21,3.18,2.81,3.53,3.85.41,1.2.18,3.2.41,4.76.69,4.63.76,9.28.25,13.89-.3,2.66-.88,5.26-1.23,7.88-2.43-1.95-4.94-3.69-6.88-6.02-2.91-3.48-4.77-7.87-7.77-11.84-2.75-3.64-6.18-6.92-8.91-10.59-1.35-1.82-2.43-4.03-3.65-6.05-1.29-2.13-2.78-4.13-3.66-6.29-.44-1.06-.48-2.35-1.12-3.3-.6-.9-1.58-1.1-2.24-1.81-2.16-2.3-1.42-4.67-.88-8.11.29-1.85.5-3.87.69-5.54.3-2.83,1.19-5.71,1.28-7.97.03-.82.28-2.17-.62-2.85-2.14.03-3.13,1.17-3.91,3.31-.39,1.05-.05,3.15-.53,3.86-.66.96-3.15.76-3.75,1.62-1.37-2.5-2.49-5.81-3.57-9.17-1.01-3.14-1.22-7.9-4.71-8.16-1.37,3.39,1.65,7.11,1.22,10.25-.53-2.14-1.31-3.97-2-6.61-.44-1.7-1.1-6.25-3.37-5.11-1.25.64-.26,4.96.07,6.23.58,2.26.9,4.6,1.29,6.65.17.9.94,2.31.89,3.55-.07,1.6-.16,1.88-1.54,2.71-1.61-1.96-3.72-3.73-5.78-5.47-1.91-1.61-3.62-5.1-6.68-4.23-.66,2.28,1.79,3.21,2.62,4.67-1.31.45-.95,1.01-.87,1.72.2,1.78,2.03,3.14,3.36,4.87.57.74.99,1.82,1.56,2.56,1.53,1.99,2.29,3.41,3.63,5.57.6.98,1.14,2.09,1.83,3.03,1.27,1.74,6.39,5.45,6.82,7.09.22.85-.57,1.85-.34,2.89.27,1.22,1.89,2.45,2.33,3.48.85,2.01.73,4.07,1.5,6.16.39,1.06,1.24,2.3,1.85,3.5,1.88,3.68,4,6.74,6.01,10.01,2.04,3.31,4.54,6.57,6.23,9.76.66,1.25,1.13,2.6,1.86,3.74,1.31,2.05,3.69,3.3,5.05,5.26,1.52,2.2,2.54,5.01,3.7,7.01.46.79.86,1.69,1.32,2.57,2.36,4.54,4.52,8.93,6.97,13.27-.87.74-1.76,1.47-2.48,2.32-1.28,1.53-2.21,3.69-3.2,5.56-1.01,1.91-2.15,4.18-2.51,6.14-.13.7.01,2.42-.26,2.58-.74.45-3.26.22-4,.03-1.54-.42-3.23-2.02-3.45-2.9-.22-.9.26-3.27.47-3.88.48-1.4,1.73-2.4,2.08-3.7.29-1.08.14-1.98.21-3.06,2.02-.13,2-2.33,2.16-4.67.1-1.51.38-3.07-.19-3.98-.08-.8-1.44.31-1.31-.37.41-3.66.2-7.28-1.49-9.79-2-2.98-7.06-5.76-11.19-5.43-7.53.61-12.66,7.49-10.16,15.6-3.57-.56-1.53,6.61-.44,7.88.34.4,1.72.8,2.03,1.26.24.37.47,1.72.51,2.19.32,3.69-1.56,6.56-3.12,8.27-.53.57-1.17,1.27-1.8,1.43-.28-1.63-1.34-2.9-1.67-4.49-.25-1.23-.25-2.23-.58-2.99-.33-.77-.8-1.49-1.32-2.2.89-6.27,1.42-14.57,2.15-21.23.19-1.77.19-3.58.66-4.99.28-.84,1.07-1.59,1.5-2.49.8-1.68,1.3-3.78,1.83-5.82.28-1.1.76-2.01,1-2.83.33-1.15.83-4.4,0-4.98-1.1-.77-1.73.91-2.33.83-.24-1.03-.27-2.28-.66-3.16-.66-.83-1.65.37-1.83.33-.35-.06-.84-1.28-1.66-1.16-.71.1-.55,1.01-1,1.5-.46.5-.88.71-1.16.5-.76-.56-.39-1.36-.33-2.66.13-2.9.56-5.62-.17-7.65-.83-2.32-2.04-1.12-2.33,1.17-.31,2.4-.11,5.21-.33,7.48-.28,2.9-1,5.22-1.66,7.31-1.24-.78-2.69-4.46-4.99-4.82-1.18-.18-2.68.2-2.83.83-.27,1.16,1.85,1.54,2.83,2.33.55.45,1.2,1.4,1.33,1.66.78,1.55.72,4.05,1.49,6.15.91,2.49,3,2.93,3.16,5.48.1,1.72-.58,4.6-1,6.48-.48,2.15-1.09,4.13-1.74,6.09-.92-.99-2.06-1.9-2.5-3.13-.59-1.67.05-3.88-.35-5.89-.25-1.25-1.19-2.46-1.93-3.83-.7-1.29-1.26-2.7-1.93-3.83-1.52-2.57-3.1-4.96-4.3-7.14-1.92-3.49-4.18-7.75-5.5-11.84-.49-1.51-1.18-3.12-1.35-4.52-.07-.54.1-1.3,0-1.92-.16-.94-.99-1.97-1.07-3.11-.05-.74.51-2,.53-3.08.02-.98-.21-2.65-.52-4.11-.28-1.32-.48-2.95-.82-3.93-.28-.8-1.75-3.3-2.05-3.34-.9-.11-1.53,1.78-1.53,2.69,0,1.17.71,2.21.43,3.16-.27.91-.95.86-1.48,1.41-1.31-.98-1.99-2.63-2.81-4.71-.39-1-1.34-5.46-3.4-4.18-.75.47.04,3.06.36,4.13.49,1.62,1.2,2.9,1.15,4.06-1.42.29-2.03-1.39-2.76-2.32-.76-.98-1.76-1.88-2.48-2.82-1.03-1.35-1.88-4.26-4.4-2.82,1.12,3.69,3.87,6.37,5.27,9.14-1.13-.68-3.07-2.39-4.28-3.31-.42-.32-.99-.52-1.41-.78v5.68c.31.38.62.75.96,1.05.75.66,1.6,1.04,2.06,1.58.58.68.97,1.71,1.48,2.27,1.1,1.22,2.5,2.1,3.79,3.19,1.23,1.04,2.95,2.22,3.5,3.53.41.98.31,2.01.77,3.29.61,1.69,1.35,3.17,1.87,4.96,1.58,5.45,2.9,10.8,4.48,16.57,2.11,7.72,6.16,13.37,6.78,21,.11,1.42.36,2.9.34,3.97-.01.93-.45,1.73-.43,2.44.08,2.49,1.41,5.01,2.26,7.64.38,1.16.84,2.53,1.12,3.74.15.64.27,1.26.4,1.88-.36.38-.73.78-1.15,1.21-1.07-1.71-1.66-.68-3.16.33-.71.48-1.42.84-1.83,1.16-2.29,1.79-4.38,3.9-6.67,5.71-.45.02-.9-.1-1.2-.39-.41-.38-.54-.95-.42-1.47.01-.07.03-.15.06-.22.54.01,1.44.02,2.07-.09.54,0,1.07-.08,1.59-.18-.89.02-1.81-.04-2.6-.37-.06-.02-.12-.05-.18-.08.13-.04.22-.12.2-.31.57.05,1.14-.15,1.56-.48-.64.33-1.41.37-1.97.02-.36-.22-.6-.54-.74-.91-.02-.33.06-.67.25-.94.04,0,.09,0,.13.02.27.21.58.37.89.46.26.14.51.23.76.12.12,0,.25,0,.37,0,.26.05.52.06.77,0-.15,0-.3,0-.44-.04.28-.04.56-.12.82-.22-.41.08-.84.1-1.24.05,0,0,0,0,0,0-.04,0-.07,0-.1-.02-.34-.19-.61-.49-.79-.84-.2-.36-.33-.76-.45-1.17.28.05.51.16.72.29.19.15.4.3.6.42.51.32,1.04.42,1.51.69-.29-.34-.69-.61-.99-.91,0-.04,0-.08.01-.14.06-.03.12-.02.18,0,.47.61,1.1,1.1,1.81,1.3-.77-.38-1.3-1.03-1.63-1.77.05-.11.12-.24.14-.42.28.18.58.31.92.35-.68-.21-1.12-.72-1.45-1.3.01-.13.06-.25.16-.35.23.51.71.75,1.23.96.32.24.68.42,1.07.5-.36-.15-.67-.37-.93-.64-.04-.1-.12-.17-.21-.24-.11-.13-.2-.27-.29-.42,0-.05,0-.1.01-.17,0-.18.39.07.56-.05.52.19,1.07.28,1.61.31-.58-.13-1.14-.33-1.63-.63-.2-.22-.46-.39-.71-.57-.21-.22-.4-.45-.57-.7-.01-.04-.02-.08-.03-.12.28.12.57.2.87.25.77.13,1.51-.03,2.2-.26-.72.12-1.46.13-2.12-.1-.02,0-.05-.02-.07-.02.16,0,.32-.02.47-.07-.63.09-1.15-.26-1.56-.67,0-.04-.02-.07-.02-.11.27-.51.11-.98.33-1.64.32.09.67.06.94-.07.29-.12.52-.31.72-.51.13-.05.24-.11.36-.18.57,0,1.13-.13,1.65-.3-.54.09-1.1.12-1.63.03.1-.15.2-.3.28-.45.38-.11.72-.32.96-.58-.26.13-.53.21-.8.22.07-.2.13-.4.16-.61-.07.22-.17.42-.29.61-.28,0-.55-.07-.78-.2-.49-.26-.87-.71-1.19-1.2-.65-.98-1.11-2.12-1.55-3.28-.04-.12-.09-.23-.13-.35-.11-.77-.25-1.52-.47-2.19-.38-.19-.69-.45-.97-.75.88.53,1.7,1.38,2.72,1.78-1.05-.63-1.65-1.69-2.71-2.46.05.01.11.02.17.02.6.26,1.27.42,1.91.28-.82.04-1.54-.38-2.16-.86-.51-.4-.98-.85-1.5-1.29.91-2.11-1.48-4.94-4.32-3.86,0-.16-.02-.33-.08-.48-.56-1.17-1.85-1.28-2.1-2.4.03.58.4,1.01.78,1.41-.26-.11-.52-.22-.73-.38-.22.07-.09.49-.34.53-.07-.17-.14-.34-.22-.51-.2-.43-.43-.85-.69-1.24-.13-.19-.28-.4-.42-.56-.15-.21-.34-.39-.54-.53-.25-.17-.51-.29-.77-.38-.02-.38-.04-.77-.18-1.13.07.35.03.7,0,1.06-.54-.19-1.06-.35-1.45-.81.32.54.9.82,1.42,1.12h0c-.13.01-.26.01-.39.01-.04.85.13.44.14,1.01-.02-.02-.04-.04-.06-.05-1.13-.92-2.5-.56-3.33-1.58.27.49.72.78,1.2,1.01h0c-.08.38-.56.36-.93.45-.26-.05-.52-.11-.77-.2.19.1.38.18.58.26-.06.03-.11.07-.15.12.28,0,.52.03.73.09.07.02.13.05.2.07.41.17.7.46,1,.74-.11.01-.13.11-.14.22-.01,0-.02-.02-.03-.02-.7-.48-1.43-.82-2.22-1.01v77.45h-.55v50.54h851.5v-50.54h-.37ZM848.72,161.75c.02.13.04.26.07.4-.02-.05-.04-.11-.06-.16,0-.02-.01-.05-.02-.07v-.16ZM601.72,72.27c.04,1.03.67,1.51.39,2.84-1.3-.6-1.62-2.06-.39-2.84ZM564.4,99.83c.04.63-1.11,1.62-1.43,2.5-.12-.72.91-1.83,1.43-2.5ZM253.05,23.21c.62.43-.78.96-.64,1.71-.83-.62.57-1.15.64-1.71ZM163.71,83.87l-.03.07c-.09-.05-.18-.1-.28-.15.1.03.2.06.3.08ZM162.15,85.77c.32-.09.51.05.71.19l-.09.11s0-.02,0-.04c-.18-.02-.28-.12-.39-.21-.07.03-.15.04-.23.04-.1-.1-.2-.21-.3-.31.12.05.2.15.31.22ZM155.71,76.52s-.04.08-.07.11c0,0,0,0,0,0,.03-.04.06-.08.08-.12ZM151.4,70.29s-.04.09-.06.14c0,0,0-.02,0-.03.02-.04.04-.08.06-.11ZM151.05,71.01s.03-.07.04-.11c.03-.02.06-.06.09-.09-.04.1-.09.21-.14.31,0-.03,0-.07,0-.11ZM136.01,77.97h0s.02,0,.02,0c0,0-.02,0-.03,0ZM131.16,103.35s-.04.02-.05.03c.03-.06.07-.12.1-.18,0,.02,0,.03,0,.05-.02.04-.04.06-.05.1ZM51.69,22.33c.46.84.79,1.82.87,3.07-.69-.58-.67-1.94-.87-3.07ZM20.07,128.46c.22.04.44.04.66,0-.1.12-.21.23-.32.33-.06-.02-.13-.04-.19-.06-.36-.12-.7-.31-1-.54.27.12.55.21.84.26ZM19.5,128.93c.12.04.24.08.36.11-.36.06-.68.07-1.16-.14-.04-.38.4-.05.8.03ZM793.96,123.77s-.09.09-.13.14c-.04-.04-.09-.08-.13-.12.09,0,.18,0,.26-.02ZM786.57,58.23c.05,1.24.8,1.82.47,3.42-1.56-.72-1.95-2.48-.47-3.42ZM783.07,139.23c.12.01.18.06.22.12.03.09.06.18.09.28.01.16.03.33.15.45,0,0,0,0,0,.01.04.18.07.37.09.56-.35-.19-.45-.65-.88-.76.31-.03.1-.56.33-.66ZM732.79,185.17c.54-.6,2.45-3.14,2.56-3.64.05-.24-.19-3.58-.21-3.67-.09-.35-.51-1.08-.99-1.71,1.4-1.95,2.59-3.99,3.88-5.9.88,1.73,1.77,3.49,2.61,5.27,1.49,3.18,3.32,6.85,3.86,10.09.13.77.13,1.59.12,2.39h-14.69c1.03-.93,2.01-1.87,2.86-2.81ZM276.79,148.21c-.35-1.41-1.08-2.75-1.83-4.11,2.25-1.73,4.66-3.55,6.55-5.4.15-.15.39-.42.68-.74.03,1.94.46,3.95.9,4.66.32.52,1.8,1.23,2.07,1.81.21.46.21,2.04.17,2.58-.32,4.24-2.97,7.15-5.06,8.8-.7.55-1.56,1.23-2.3,1.29-.02-1.9-.99-3.53-1.07-5.4-.06-1.44.12-2.57-.1-3.5ZM485.13,135.23c-.16,0-.31.01-.48.06-.17-.08-.35-.16-.52-.23.16-.02.32-.06.46-.11.18.1.36.18.54.28ZM484.75,134.87s0,0,0,0c.02.01.05.03.07.04-.03-.02-.05-.03-.08-.04ZM485.41,135.22s-.02,0-.02,0c-.16-.09-.31-.18-.48-.27.17.09.34.17.5.27ZM484.95,134.77s.03,0,.04-.02c.4.21.78.43,1.16.65-.39-.22-.8-.42-1.2-.63ZM483.56,135.08s.01,0,.02,0c.25.11.51.21.75.34,0,0-.02,0-.02,0-.25-.12-.49-.24-.75-.35ZM484.19,135.48s-.01,0-.02,0c-.24-.12-.48-.23-.73-.34-.05-.02-.1-.05-.15-.07.01,0,.02,0,.03,0,.29.13.59.26.87.41ZM483.93,135.07s.03,0,.05,0c.19.09.38.17.57.26-.01,0-.02,0-.03.01-.19-.09-.39-.18-.59-.27ZM484.52,134.76c-.26-.13-.53-.27-.8-.39-.06-.03-.12-.05-.18-.08,0,0,0,0,0-.01.34.15.67.31,1,.48,0,0,0,0-.02,0ZM483.68,134.47c.22.1.42.22.63.33-.24.04-.49.04-.74,0-.14-.06-.3-.11-.45-.17.14-.06.25-.16.34-.26.07.03.14.06.21.09ZM483.37,134.2s-.01,0-.02.01c-.94-.39-1.96-.74-3.06-.91-.02,0-.04-.02-.05-.03,1.12.17,2.16.5,3.13.92ZM480.07,133.2s-.07-.04-.12-.06c.69.1,1.76.3,2.24.5.41.15.83.28,1.21.46-1.02-.42-2.13-.76-3.33-.91ZM483.25,134.28c-.07.04-.15.07-.23.08-.34.06-.69-.05-1.03-.2-.09-.04-.18-.08-.28-.13,0-.01,0-.03,0-.05-.04,0-.07,0-.1,0-.36-.18-.73-.39-1.13-.59.99.18,1.92.52,2.77.88ZM483.04,134.67c.07.03.14.05.21.08-.03,0-.05,0-.08-.01-.06-.02-.11-.03-.17-.05.01,0,.03-.01.04-.02ZM483.49,134.11c-.43-.18-.84-.37-1.29-.51-.51-.21-1.6-.39-2.29-.48-.02,0-.04-.02-.07-.03-.04-.02-.09-.03-.13-.04.59.05,1.26.13,1.6.25.78.2,1.51.46,2.22.76-.01.01-.02.03-.03.04ZM514.91,154.23c-.01.08-.03.15-.04.23-.11.02-.23.04-.34.05-1.98.16-3.93-.09-5.77-.62.82.19,1.66.31,2.51.4,1.2.16,2.43.13,3.64-.06ZM511.65,152.77l.64.03.59.02c-.41.03-.82-.03-1.23-.05ZM514.27,153.16c.31-.03.62-.08.93-.14,0,0,0,.02,0,.03-.3.05-.61.11-.92.12ZM514.25,154.79c.19-.02.38-.04.57-.07,0,.01,0,.03,0,.04-.4.05-.8.09-1.21.1l.63-.07ZM514.82,155.76c-1.93.24-3.87.13-5.62-.31.58.12,1.18.2,1.78.26.9.11,1.83.14,2.76.11.36-.02.72-.05,1.08-.1,0,.01,0,.02,0,.04ZM514.83,156.12v.04c-.49.04-.98.1-1.46.08.49,0,.97-.06,1.46-.12ZM514.83,156.3c0,.13,0,.24-.01.35-1.13.11-2.25.1-3.31,0-.91-.1-1.79-.26-2.65-.46-.12-.1-.24-.2-.35-.3,2,.46,4.11.67,6.33.42ZM514.8,156.74c-.02.16-.05.28-.11.32-.68.46-3.07.34-3.78.18-.38-.19-.78-.36-1.16-.55-.13-.07-.27-.14-.41-.21.7.13,1.41.25,2.14.31,1.07.08,2.19.07,3.31-.05ZM721.13,150.77c1.17-.1,1.83-.61,2.56-1.28.99-.9,1.02-1.82,1.44-3.37.61-2.27.77-3.69-.96-3.84.48-1.47.87-3.1,1.05-4.73,1.12,1.48,2.32,3.09,2.31,3.2-.05.76-1.6,1-1.72,2.14-.02.19.49,1.36.64,1.93.77,2.86,2.08,5.41,3.38,7.97-1.51.38-2.96.84-4.23,1.5-1.24.65-2.31,1.97-3.53,2.72-.63.39-1.28.45-1.76.8-.16.12-.23.4-.48.64-.58.56-1.16,1.22-1.76,1.28,1.36-2.65,2.69-5.32,3.04-8.97ZM698.29,149.8c.11-.19.12-.35.19-.52.37-1.01.75-2.4.83-3.41.04-.5-.17-.88-.2-1.34-.02-.35.4-.88.43-1.21.03-.29-.12-.53-.1-.82.13-1.4.84-2.8.9-4.16.03-.7.33-1.8.17-2.38-.06-.22-.19-.07-.17-.35.06-.65.48-1.47.69-2.19.46-1.64.64-2.84.68-4.63.02-.88.03-1.81-.3-2.44-.5-.97-1.3-.91-1.59-1.54-.15-.33-.05-1.56-.07-2.27-.05-2.27-.15-5.05.15-6.96.32-2.04,1.51-3.53,1.74-5.13.13-.93-.27-2.14-.11-2.96.06-.3.85-1.94.91-2.01.12-.14.53-.16.82-.39.17-.14.27-.52.42-.63.47-.36,1-.65,1.43-.94.9,2.39,1.8,4.78,2.69,7.16,1.08,2.86,2.01,5.88,3.44,8.15.38.6,1.31,1.25,1.71,1.93.61,1.03.97,2.08,1.5,3,.3.51.61,1.01.94,1.5-1.89,0-3.77.48-5.16,1.12-4.5,2.08-7.12,5.57-6.89,12.02-1.69.69-1.07,2.15-1.28,4.49-.05.58-.32,1.18-.32,1.76,0,.9.44,1.95.48,2.88.04.98-.21,1.86-.16,2.56.09,1.21.95,2.24.96,3.04.01.78-.49,1.6-1,2.1-.29-.94-.55-1.98-1.08-3-.72-1.17-1.67-1.9-2.7-2.39.01-.03.02-.06.04-.09ZM658.77,149.69c.21-.19.38-.39.6-.6.74-.72.94-1.87,1.56-2.71.67-.9,1-2.05,1.29-3.12.11-.39.19-.78.22-1.16,1.12,2.15,2.23,4.29,3.31,6.42-1.14-.52-2.35-.77-4.02.18.24,2.39,3.72.96,3.83,2.73-2.55,0-4.35,1.2-6.25,1.8.23-.35.4-.73.47-1.14.1-.54-.02-1.28-.51-1.67-.2-.18-.47-.3-.75-.32.08-.13.15-.26.24-.41ZM658.26,150.56c.24-.03.47.07.61.27.46.55.06,1.48-.47,1.95-.23-.23-.57-.35-.92-.4,0-.06,0-.12.01-.18.05-.14.09-.27.14-.41.03-.08.07-.2.11-.33.14.06.29.06.42.06-.13-.02-.28-.07-.38-.15.16-.25.31-.53.47-.81ZM657.84,125.56c0,.18,0,.36-.01.54-.01.25-.02.48-.02.72-.57.4-1.07.86-1.59.58.41-.71.99-1.3,1.63-1.84ZM633.81,153.68c.34-.32.7-.64,1.06-.96.05-.01.1-.03.15-.04.16-.06.33-.17.48-.33-.13.24-.28.45-.49.6-.08.07-.18.12-.28.17-.04.01-.06.02-.11.04.04,0,.07,0,.12-.01.11-.03.23-.05.33-.1l.08-.04c-.11.11-.24.2-.39.28-.13.06-.26.12-.41.15-.06.02-.09.02-.15.04.06,0,.09,0,.15,0,.05,0,.1,0,.15,0-.09.04-.18.08-.26.11-.06.02-.09.03-.14.05.06,0,.09,0,.16,0,.16-.01.33-.05.51-.09.16-.04.33-.09.49-.15h0c-.05.06-.1.1-.16.13.09-.04.16-.1.23-.16.05-.02.1-.04.16-.06-.08.1-.19.2-.3.29-.05.04-.08.06-.13.09.05-.02.08-.03.13-.05-.17.13-.35.25-.53.35-.16.1-.33.18-.49.24-.07.03-.1.04-.17.06.07,0,.11-.01.18-.02.18-.03.37-.07.56-.12l.15-.05c-.21.15-.43.29-.66.4-.2.1-.41.17-.63.21-.09.02-.13.02-.22.03.09.01.13.03.22.03.22.02.44,0,.66-.04-.08.04-.16.07-.24.1-.09.04-.14.05-.23.08.1,0,.15,0,.24,0,.24-.03.48-.08.71-.15.11-.03.22-.07.33-.11l-.09.06c-.08.06-.16.12-.25.17.16-.08.32-.16.46-.26l.07-.05c-.02.06-.05.12-.08.18-.1.08-.21.16-.32.24-.08.05-.12.08-.2.13.09-.03.13-.05.22-.08.08-.03.15-.07.22-.1,0,.02-.01.04-.02.05-.28.52-1.3,1.54-1.94,1.67-.27.05-.94-.38-1.56-.36-.34,0-.65.19-1.05.32,1.14-1,2.25-1.99,3.29-2.95ZM600.54,181.65c1.29-1.46,2.47-3.12,3.76-4.31.68-.62,1.46-1.09,2.23-1.55.17,2.36.15,4.88.49,7.28.08.54.12,1.09.14,1.65-.26.02-.72.34-.99.33-.45-.03-1.18-.53-1.73-.62-.76-.12-2.3-.2-3.13-.24-.44-.02-.86.18-1.22.15-.54-.05-1.04-.31-1.58-.39.67-.77,1.34-1.53,2.03-2.3ZM578.95,165.31c.11,1.54.14,3.11.09,4.7-.49,0-1.03-.11-1.63-.34.3-1.67.87-3.05,1.54-4.35ZM568.83,131.7s.03.05.05.09c-.08.04-.17.08-.26.11l.22-.2ZM515.41,152.34c-.46.08-.92.18-1.38.2.49-.06.96-.17,1.42-.3-.01.03-.02.07-.04.1ZM515.4,151.6c-.35.08-.7.14-1.05.17.35-.06.7-.14,1.03-.23,0,.02,0,.04.01.06ZM513.11,145.27c-.82.69-1.8,1.15-2.86,1.33l.77-.32c.74-.35,1.38-.84,1.91-1.43.06.13.12.28.18.42ZM511.51,141.84c.34.66.67,1.31.97,1.98.12.27.25.56.38.87-.57.54-1.24.96-1.98,1.22-.36.13-.74.21-1.13.27,0-.27,0-.54-.02-.81.65-.24,1.2-.57,1.64-.95.2-.23.34-.29.49-.56-.18.24-.33.28-.55.47-.45.31-.98.56-1.59.72,0-.2-.01-.4,0-.62,1.34-.14,1.68-1.21,1.79-2.6ZM509.36,148.1c.08-.01.17-.02.25-.03l.7-.12c.96-.17,1.93-.53,2.78-1.09-.49.3-1.04.52-1.57.69l-.59.15c.63-.21,1.21-.53,1.78-.88.28-.19.53-.4.78-.63.09.23.19.46.28.7-.29.19-.5.33-.87.52-1.16.61-2.43.81-3.62.86.03-.05.05-.11.08-.16ZM508.99,148.75c.08,0,.15,0,.22-.02,1.27-.17,2.59-.49,3.75-1.23.35-.22.55-.39.82-.6.49,1.22.95,2.47,1.29,3.52-1.87.44-4.01.25-6.16-.31.79-.04,1.6-.13,2.42-.33.6-.19.9-.25,1.49-.51-.61.21-.91.25-1.52.4-1.03.17-2.03.18-2.97.11.21-.36.44-.7.66-1.04ZM508.08,150.27c2.48.72,4.92.92,7.05.36.03.09.06.19.08.28-.43.1-.88.19-1.34.23-1.86.19-3.85-.15-5.83-.79.01-.02.02-.05.04-.07ZM507.95,150.58c2.03.62,4.06.93,5.95.69.47-.05.92-.15,1.36-.26.03.1.05.2.08.29-2.32.53-4.88.18-7.41-.65,0-.02.02-.05.03-.07ZM514.81,155.29c0,.07,0,.14,0,.21-2.06.24-4.11.05-6.02-.4-.41-.1-.81-.23-1.21-.36-.02-.04-.04-.08-.05-.12,0,0,0,0,0,0,2.29.67,4.79,1,7.29.67ZM485.23,134.56c.87.45,1.71.94,2.52,1.46-.81-.51-1.67-.98-2.56-1.42.01-.01.03-.02.04-.03ZM486.79,135.65c-.56-.33-1.14-.65-1.73-.95,0,0,.02-.01.02-.02.59.31,1.15.63,1.71.97ZM483.75,133.88c.46.19.91.39,1.34.61-.02.01-.03.02-.05.03-.42-.21-.86-.41-1.31-.6,0-.02,0-.03.01-.05ZM483.69,134.03c.42.18.84.37,1.24.58,0,0,0,0,0,0,0,0-.01,0-.02,0-.4-.2-.81-.39-1.23-.56,0-.01.01-.02.02-.03ZM483.65,134.12c.39.17.77.35,1.15.54-.01,0-.02,0-.04.01-.37-.18-.75-.35-1.13-.51,0-.01.02-.03.02-.04ZM483.28,133.84c.11.04.21.1.32.15,0,0-.02.02-.02.03-.72-.29-1.46-.56-2.25-.75-.38-.12-1.08-.2-1.68-.24-.07-.02-.14-.05-.21-.07,1.41.05,2.73.44,3.85.88ZM476.09,133.79c-.17.14-.43.22-.74.26.23-.1.48-.19.74-.26ZM467.32,165.11c-.17-.17-.35-.34-.51-.5.1-.17.19-.35.28-.53.08.34.16.68.24,1.02ZM467.02,163.85c-.09.23-.18.47-.28.7-.08-.08-.17-.16-.25-.24.17-.2.33-.42.49-.64.01.06.03.12.04.18ZM462.57,48.74c-.28-1.56.47-2.1.55-3.31,1.41.95.99,2.65-.55,3.31ZM456.5,155.04c.61-3.56.07-7.25.55-10.85.43-3.24,2.04-5.12,3.13-7.54.07-.16.14-.32.21-.47.81,2.08,1.45,4.24,1.74,6.62.16,1.34.45,2.73.48,3.75.02.88-.36,1.66-.31,2.32.14,1.96,1.1,3.91,1.95,5.92-.07.16-.13.32-.2.48.08-.13.16-.26.24-.39.16.38.31.76.46,1.14.32.86.69,1.84,1,2.78-.02.89.27,1.92.72,2.7.14.58.28,1.16.42,1.73-.15.33-.31.65-.5.96-.22-.22-.45-.45-.66-.66-.96-.96-1.67-2.18-2.5-2.86-.32-.26-1.13-.61-1.78-1.07-1.61-1.13-1.92-1.7-3.57-.71-.46-.82-1.04-1.58-1.7-2.33.13-.51.24-1.02.33-1.53ZM420.79,132.88c0-.46.04-.91.12-1.35,1.88-.76,1.47-2.64.95-4.59.05-.28,0-.7,0-.79-.12-.99-.6-1.78-.79-2.73-.09-.44-.11-.88-.12-1.33,2.29,3.64,4.41,7.37,6.4,11.1,1.08,2.02,2.12,4.17,3.33,6.23-.46,1.95-.72,3.53-2.88,3.83-1.29.18-1.86-.51-2.58-.55-.73-.04-1.53.44-1.84.37-.74-.18-1.9-1.4-2.21-2.02-.01-.02-.02-.04-.03-.06.09.04.17.09.26.13.1.04.15.06.25.1-.1-.06-.14-.1-.23-.16-.13-.09-.25-.19-.37-.29-.03-.07-.06-.14-.09-.21l.08.06c.17.12.34.22.53.32-.1-.07-.2-.14-.29-.21l-.1-.08c.13.05.25.1.39.14.27.09.54.16.83.2.11.02.17.01.28.02-.11-.04-.16-.05-.27-.1-.1-.04-.19-.08-.28-.12.25.05.51.08.77.07.11,0,.16-.02.26-.03-.11-.02-.16-.02-.26-.04-.26-.05-.5-.14-.73-.26-.27-.14-.52-.3-.76-.49l.17.06c.22.07.43.12.65.16.08.01.12.02.21.03-.08-.03-.12-.05-.19-.08-.19-.08-.39-.18-.57-.3-.21-.13-.41-.28-.61-.43.05.02.09.04.15.07-.06-.05-.09-.07-.15-.11-.13-.11-.24-.22-.34-.35.06.03.12.05.18.08.08.07.17.15.27.2-.07-.04-.13-.09-.18-.16h0c.19.07.38.14.57.19.21.05.41.1.6.12.08.01.12.01.19.02-.07-.02-.1-.03-.17-.06-.1-.04-.2-.08-.3-.13.06,0,.12,0,.18,0,.07,0,.1,0,.17,0-.07-.02-.1-.03-.17-.05-.17-.04-.33-.11-.47-.19-.17-.1-.32-.21-.44-.34l.1.05c.12.06.26.09.38.13.05,0,.08,0,.13.02-.05-.02-.07-.03-.12-.05-.11-.06-.23-.12-.32-.2-.23-.19-.41-.43-.55-.72.17.19.36.32.55.4.11.03.2.07.31.08.04,0,.06,0,.1.01-.03-.02-.05-.03-.09-.04-.09-.03-.16-.1-.24-.15-.24-.2-.44-.52-.65-.91-.02-.04-.04-.08-.07-.12.08-1.52.28-3.06.1-4.33ZM399.7,144.2v.16s-.01.04-.02.07c-.02.05-.04.11-.06.16.03-.13.06-.26.08-.38ZM383.71,118.29c.22.07.45.14.69.19.04.3.07.61.11.91-.69-.54-1.4-1.02-2.13-1.41-.01-.01-.02-.03-.04-.04.46.08.92.19,1.37.35ZM382.53,152.78c1.13-2.2,1.94-3.35,2.79-6.01,0-.01,0-.03.01-.04.62-.51,1.59-1.12,2.23-2.2.96-1.61,2.09-4.93,1.37-6.15.08-.36.31-.72.39-1.1.06-.32.08-.6.07-.89.14-.19.28-.38.43-.57.26-.32.54-.64.84-.95,0,0,.01,0,.02.01.03.02.06.05.09.07,0,.05,0,.08-.01.1.02-.02.03-.05.04-.09.31.23.66.45,1.04.47-.41-.13-.7-.44-.98-.75,0,0,0,0-.01-.01.18-.19.36-.38.55-.57.11.06.22.12.34.15.42.13.85.08,1.24-.04-.4.02-.82-.02-1.15-.19-.08-.04-.13-.1-.19-.15.34-.33.67-.66,1.01-1,.09.14.2.27.32.4.25.26.44.49.68.72.12.22.24.43.34.62.27.52.52,1,.78,1.44.05.18.09.34.12.44.1.26.17.54.26.8.06.18.31-.1.45.14.26.46.55,1.09.62,1.61.32.45.68.88.98,1.35.21.33.74.76,1.09.94,0,0,.02,0,.02.01.08.17.14.34.16.5.11.52.11,1.15.1,1.78,0,.19-.02.37-.05.54-.01.07-.02.1-.03.16.03-.06.05-.09.07-.16.07-.17.12-.36.17-.55.09-.36.15-.74.18-1.12.06.47.11.95.12,1.42,0,.19,0,.38-.04.57,0,.07-.02.11-.03.17.03-.06.05-.1.07-.17.06-.18.12-.38.16-.58l.03-.16.02.24-.02.12c-.02.16-.05.32-.08.46.03-.08.06-.17.08-.26l.02-.1c0,.11,0,.22,0,.32-.02.22-.06.45-.18.62-.05.07-.08.1-.15.14.08-.02.12-.05.19-.11.06-.06.11-.13.16-.2-.06.21-.23.45-.49.47-.1,0-.15,0-.25-.02.1.04.14.05.26.06.3.03.56-.25.66-.48,0,0,0,0,0,0,0-.01.02-.03.04-.04.07-.08.13-.15.2-.24,0,.08-.02.16-.04.25,0,0,0,.02-.01.03,0,0,0,0,0,0,0,.02,0,.03-.01.05-.03.1-.05.16-.1.26.06-.1.09-.15.13-.25.02-.05.04-.1.06-.16,0,0,.01-.02.02-.03.11-.15.2-.34.27-.56,0-.02.01-.04.02-.07.04-.06.08-.12.12-.18.03.2.04.42.03.66,0,.11,0,.17-.02.29.03-.12.04-.17.06-.28.04-.27.05-.52.06-.75,0-.04,0-.07,0-.11.03-.05.05-.1.08-.15.02.21.03.42.02.63-.04.19-.09.37-.14.56-.06.22-.14.43-.23.63-.04.08-.05.12-.09.2.06-.06.09-.1.15-.18.03-.03.06-.07.08-.11,0,.02-.02.03-.03.06.06-.06.08-.09.14-.16.07-.1.13-.21.18-.33.01-.02.02-.04.03-.05l.1-.17-.06.28-.06.12c-.08.17-.17.34-.26.5.07-.09.13-.17.19-.27l.02-.03s0,0,0,0l.05-.07c-.04.12-.07.25-.11.37-.02.06-.04.12-.06.18-.07.09-.14.18-.23.25-.08.07-.13.1-.22.16.1-.04.16-.05.26-.1.02-.02.05-.03.08-.05-.02.04-.04.07-.05.11-.13.11-.28.2-.45.26-.11.04-.17.06-.29.09.12-.01.18-.02.31-.03.1-.02.2-.05.3-.09-.04.07-.07.11-.12.19.09-.07.14-.1.21-.18.03-.03.06-.06.1-.1.02-.01.05-.02.07-.04-.11.21-.23.41-.39.59-.07.09-.12.13-.2.21.1-.06.15-.09.25-.16.07-.06.14-.12.2-.18-.13.2-.27.41-.42.64-.61.9-1.07,2.26-1.66,2.94-.5.58-1.37.71-1.84,1.29-.6.73-.75,1.78-1.29,2.39-.72.82-1.84,1.45-2.76,2.21-1.97,1.63-3.79,3.01-5.7,4.41-.44.32-.91.59-1.37.85-1.72-1.24-3.36-2.52-5.1-3.65.83-1.72,1.68-3.44,2.56-5.16ZM377.81,116.53c.08-.16.16-.29.17-.34-.02-.01-.04-.02-.05-.03.1-.36.18-.73.17-1.1.01.01.03.02.04.04.07.06.14.11.21.16,0,.31.32-.12.1.67-.08.3-.19.59-.3.88-.13-.01-.26-.01-.39-.02,0-.02,0-.05-.01-.06.02-.06.04-.12.06-.18ZM362.85,125.6c-.14.02-.27.04-.41.04.03-.05.06-.09.09-.14.11.03.21.07.32.09ZM362.25,124.6c.12.05.24.09.36.13-.01.05-.02.1-.04.14-.13-.08-.26-.16-.39-.25.02,0,.04-.02.06-.02ZM362.29,125.44c-.03.07-.07.14-.11.21-.25-.02-.51-.08-.83-.22-.05-.46.45-.12.94.02ZM361.31,126.71c.41.12.86.07,1.21-.09.02,0,.04-.03.06-.04-.02.06-.04.11-.05.14-.21.55-.82.7-.92,1.31.04,0,.11,0,.2-.02-.22.15-.47.25-.74.3.09-.48.04-.98.24-1.61ZM362.58,127.14c-.05.07-.09.14-.14.21,0,0,0,0,0,0,0-.13.06-.2.15-.21ZM361.02,128.45c.18.02.36,0,.54-.04.34-.09.65-.27.92-.5.09.02.15.08.14.21-.05.46-.13.58-.4.81.08.06.15.12.22.19,0,.27-.09.46-.21.66-.5-.13-.94-.44-1.31-.81,0-.05-.02-.09-.03-.14.07-.13.1-.25.14-.38ZM362.02,130.36c-.02.15-.05.29-.15.43-.04.06-.07.09-.1.13-.19-.22-.38-.43-.55-.67-.01-.05-.03-.1-.04-.15.27.11.55.2.83.26ZM361.02,132.37c.15.33.38.57.66.76-.07.19-.13.39-.19.6-.26-.27-.49-.58-.67-.91.02-.16.08-.32.21-.45ZM361.12,135.23c-.02.11-.04.22-.06.33-.07-.06-.15-.12-.21-.19,0-.05,0-.11.01-.18.08-.04.16-.03.23,0,.01.01.02.03.04.04ZM359.4,135.11c.25.2.51.38.77.55.27.17.54.28.81.39-.07.45-.12.89-.15,1.33-.22,0-.43,0-.64-.03,0,0,0,0,0,0-.05,0-.09-.01-.13-.02-.44-.25-.79-.63-1.01-1.08-.26-.47-.43-.98-.58-1.51.37.07.66.21.93.38ZM360.82,137.55s0,.02,0,.03c-.03,0-.06,0-.09,0,.03,0,.06-.01.09-.02ZM357.55,136.84c.06,0,.11,0,.17.02.35.28.74.48,1.14.59.33.18.66.3.98.16.16,0,.32,0,.47,0,.17.04.34.06.51.06-.05,1.24.09,2.37.53,3.14-.93-.02-1.85-.14-2.66-.47-.08-.03-.16-.07-.23-.1.17-.05.28-.16.26-.4.74.06,1.47-.2,2.02-.62-.82.43-1.82.48-2.54.02-.46-.28-.78-.7-.96-1.17-.02-.42.08-.86.33-1.21ZM357.23,141.44c.02-.1.05-.19.08-.29.7.02,1.86.03,2.67-.12.49,0,.96-.06,1.44-.13.15.24.32.44.54.59,0,.05-.01.1-.01.15-.86.75-1.72,1.49-2.61,2.2-.59.03-1.16-.12-1.56-.5-.53-.48-.7-1.23-.55-1.89ZM356.61,142.48c.18.48.5.9.93,1.17.51.33,1.09.4,1.64.31-.57.45-1.15.89-1.75,1.3-.05.03-.1.06-.15.09-.3-.19-.56-.42-.76-.68-.52-.7-.25-1.34.09-2.19ZM353.08,140.31c.63.07-.04.92.83.99.05-.14.12-.22.19-.25-.02.14-.03.28-.04.42,0,.12-.01.24-.01.35-.74.03-.73-.7-1.29-.85.31-.02.1-.56.33-.66ZM255.91,73.79c.07-.85.94-2.17,1.17-3.4.02-.13.05-.27.06-.42,1.1,1.3,2.13,2.92,3.28,4.48,1.65,2.24,4.17,3.99,5.15,6.01.3.63.06,1.21.43,2.14.38.94,1.81,2.32,2.36,3.44.62,1.24.94,2.99,1.5,4.5,2.52,6.86,5.26,14.12,7.94,21.25,1.08,2.86,2.01,5.88,3.44,8.16.38.6,1.31,1.25,1.71,1.93.61,1.03.97,2.08,1.5,3.01.37.64.77,1.25,1.18,1.85-.72,2.09-.98,4.46-.62,7.04-.27-.09-.52-.13-.74-.13,0-.97-.02-2.02-.03-2.08-.11-.56-1.01-2.1-1.65-2.74-1.57-1.57-3.94-1.88-6.22-2.74-1.28-.48-2.55-1.23-3.84-1.83-1.8-.83-3.71-1.51-5.64-2.21.24-1.37.64-2.82.59-4.26-.05-1.46-.89-3.01-1.49-4.7-.55-1.58-.93-3.3-1.48-4.7-1.25-3.19-2.6-6.2-3.56-8.89-1.54-4.31-3.31-9.56-4.06-14.44-.28-1.8-.76-3.76-.7-5.38.02-.62.35-1.45.35-2.18,0-1.09-.75-2.42-.64-3.72ZM252.49,132.06c.03-.06.07-.12.1-.18,0,.3,0,.61-.01.91-.06-.02-.11-.04-.17-.08-.08-.05-.16-.1-.23-.17.11-.16.21-.32.32-.49ZM252.5,134.3c0,.12-.02.25-.02.37-.11-.08-.21-.18-.29-.34.1,0,.21-.01.31-.03ZM252.17,130.69c-.04.12-.08.25-.13.38,0-.01,0-.03,0-.05.05-.11.1-.22.14-.33ZM252.39,136.19c-.05.92-.1,1.78-.22,2.47-.02.13-.07.26-.11.38-.08-.16-.16-.35-.21-.54-.04-.13-.07-.27-.1-.41.04-.11.08-.23.12-.34-.04.08-.08.18-.13.27-.15-.65-.23-1.34-.28-2.03.28.15.62.22.94.19ZM250.75,138.46c.08.13.18.24.34.31.04.08.09.16.13.23.14.22.29.43.48.61.04.04.09.07.14.11-.2.47-.4.91-.51,1.33-.01,0-.03,0-.04-.02.18-.31.05-.46-.15-.59-.03-.69-.17-1.34-.36-1.9,0-.02-.02-.05-.03-.07,0,0,0,0,0,0ZM251.22,141.2s-.07.04-.11.07c0-.01,0-.03,0-.04,0,0,.01,0,.02,0,.01-.02.03-.04.04-.05.01,0,.03,0,.05.01ZM250.25,136.82c.05.15.1.3.16.45.02.18.05.36.1.53.02.05.03.1.04.15-.11-.26-.22-.5-.33-.74,0-.13.02-.27.03-.4ZM253.99,175.66s0,.02,0,.04c.47,3.42,1.42,7.41,2.34,10.45.17.58.34,1.22.51,1.84h-11.45c.07-.28.15-.56.26-.81.68-1.56,2.02-3.23,3.11-4.76,1.69-2.35,3.43-4.6,5.23-6.76ZM213.73,123.7s-.09-.06-.13-.09c-.05-.09-.09-.18-.14-.28-.12-.23-.24-.47-.35-.69,0-.17.04-.36.11-.57.13-.37.38-.76.68-.97.05-.03.09-.05.14-.07,0,.04,0,.08.02.12.1.59.54,1.15,1.02,1.38-.12.29-.18.57-.22.83-.42.35-.81.52-1.13.35ZM214.86,125.48c-.07.1-.14.2-.21.3-.02-.04-.04-.08-.06-.13.09-.06.18-.12.26-.17ZM217.08,119.86c.04-.13.09-.26.13-.38-.03.12-.06.23-.1.35-.01.02-.03.03-.04.03ZM217.53,117.41s.09.02.14.03c-.03.02-.07.05-.1.08-.01-.03-.02-.07-.04-.1ZM228.01,102.57c.08.17.19.32.32.46-.08.04-.15.07-.22.12-.05-.17-.08-.37-.09-.58ZM238.62,61.31c.22-.43.43-.86.64-1.29.57,1.18,1.1,2.33,1.46,3.46-.57-.49-1.33-1.31-2.1-2.16,0,0,0,0,0-.01ZM219.97,96.25c1.94-2.67,3.91-4.85,5.37-7.69,3.75-7.29,7.08-14.67,10.59-21.86.39.37.75.71.97,1.08.53.87.79,2.12,1.26,2.85,1.03,1.59,2.45,2.84,3.71,4.31,1.21,1.41,2.94,3.06,3.32,4.65.29,1.19-.02,2.34.26,3.87.37,2.03.95,3.84,1.21,5.96.48,3.91.85,7.78,1.24,11.72-1.14-.4-2.31-.58-3.33-.78-.06-.01-.12-.02-.19-.04l.04-.11c-.28-.01-.56-.04-.85-.06-.42-.1-.81-.21-1.18-.34-.21-.11-.53-.12-.53-.39-.43-.08-.87-.16-1.3-.23,0,.02,0,.04-.02.06h0c-.55-.42-1.18-.73-1.86-.84-.39-.27-.88-.44-1.36-.44-.82,0-1.5.34-2.04.69-.34.22-.63.45-.91.69-.15.07-.3.15-.45.22-.49.23-1.04.58-1.5.98-.15.14-.29.28-.42.43-.05.04-.1.08-.14.12,0,0-.01,0-.02,0-.08.06-.15.13-.23.2-.15.13-.31.25-.46.37-.18.11-.36.22-.54.34-.53.19-1.09.4-1.68.69-.04,0-.09-.02-.13-.03-.32-.09-.58-.35-.8-.67,0-.03,0-.06,0-.08,0,.02,0,.04-.01.06-.13-.2-.24-.42-.34-.65.06.34.14.69.26,1.02-.06.31-.1.62-.07.94-.07.04-.14.08-.2.12-.06-.09-.12-.19-.16-.3.04.11.08.22.14.32-.01,0-.03.02-.04.03-.08-.14-.15-.29-.21-.44.03.17.06.34.11.52-.17.11-.33.23-.5.36-1.28-1.21-2.55-2.55-3.61-3.08-1.09-.54-2.61-.45-3.84-.91-.55-.21-1.04-.5-1.54-.8.67-.97,1.33-1.93,2.01-2.87ZM218.31,111.51c-.04.16-.11.34-.18.5.09-.14.19-.28.26-.44.55.36,1.02.74,1.36,1.2-.35.28-.7.54-1.04.73-.18.04-.37.09-.56.12-.18-.29-.23-.71-.2-1.13-.08.38-.11.79,0,1.15-.2.02-.41.03-.64,0-.06,0-.12-.02-.18-.03-.17-.31-.26-.95-.22-1.35.04-.42.3-.89.66-1.19.26.14.5.29.74.44ZM216.55,101.2c.01.06.03.12.03.19-.05,0-.1,0-.15,0,.04-.06.08-.13.12-.19ZM209.05,113.09c1.04-1.7,2.07-3.39,3.12-5.07,1.13.55,2.19,1.2,3.12,1.78.56.34,1.14.65,1.71.96-.41.31-.76.79-.95,1.36-.12.37-.17.71-.2,1.04-1.38-.64-2.98-1.57-4.58-.79-.31.15-1.34.71-1.28,1.83.1,1.8,2.12,1.51,4.02,2.01.47.12.94.58,1.47.73.62.19,1.3.32,1.96.45.01.06.03.12.04.18-.1.08-.2.17-.3.26-.08.04-.16.09-.23.11-.3.14-.54-.15-.58-.55-.01.2,0,.41.08.59.07.15.22.24.38.26-.03.04-.06.08-.09.12-.45.68-.59,1.43-.67,2.05-.02.19-.04.38-.05.57-.1.01-.2.02-.3.01-.32-.04-.52-.12-.7-.46-.17-.31-.25-.76-.23-1.23.02-.46.13-.97.39-1.38.25-.42.7-.7,1.15-.71-.41-.13-.96.01-1.37.46-.42.44-.68,1.03-.83,1.63-.12.47-.17.96-.12,1.44-.06,0-.11.02-.16.04-.45.17-.82.55-1.11,1.02-.01.02-.02.03-.03.05-.5-.91-1.09-1.66-2.36-1.99-.32-2.33-.97-4.33-1.51-6.44.07-.11.14-.22.21-.33ZM185.38,162.91c1.89-4.34,3.65-8.77,5.1-13.2,1.24-3.76,2.77-7.33,4.17-10.83-.24,2.52-.6,5.04-.58,7.32.02,3.05,1.11,6.13.91,9.14-.11,1.66-.87,3.44-1.1,5.3-.48,3.93-.6,8.08-1.65,11.53-.51,1.69-1.43,3.29-1.64,4.94-.37,2.85.44,6.44.37,9.69,0,.39-.04.78-.07,1.18h-12.13c.56-8.91,3.47-17.84,6.61-25.07ZM158.83,77.5v.03s-.02,0-.02-.01c0,0,.01-.01.02-.02ZM154.45,78.07s-.03.06-.04.1c-.04.01-.07.03-.1.05.05-.05.1-.09.14-.14ZM45.12,176.26c.37.6.74,1.17,1.09,1.72-.25.09-.49.19-.7.34-.16.12-.23.4-.48.64-.12.12-.24.23-.36.35-.33.24-.66.51-.98.79-.14.07-.28.12-.42.14.66-1.28,1.31-2.57,1.85-3.98ZM15.75,143.02c.39.26.84.31,1.27.24-.44.35-.89.69-1.35,1.01-.04.03-.08.05-.11.07-.23-.14-.43-.32-.59-.53-.41-.54-.2-1.04.07-1.7.14.37.39.7.72.91ZM14.96,118.79c.16.1.32.19.49.29,0,0,.01.01.02.02-.15-.07-.34-.13-.55-.14-.06-.06-.12-.12-.19-.17.09,0,.17,0,.24.01ZM12.29,140.44c.49.05-.03.72.64.77.04-.11.09-.17.15-.2-.01.11-.03.21-.03.32,0,.09-.01.18-.01.28-.58.02-.56-.54-1-.66.24-.02.08-.43.25-.51ZM103.07,182.16c-.31-2.22.01-4.6-.29-7.01-.4-3.21-1.9-6.51-2.45-9.87-.39-2.41-.9-5.84-.7-8.1.06-.71.5-1.73.73-2.62,0-.03.01-.06.02-.09,1.05-.97,2.12-1.94,3.05-2.97.55,2.55,1.09,5.13,1.72,7.69,1.64,6.68,3.66,13.16,4.8,19.66.53,3.02.97,6.08,1.42,9.14h-6.64c-.71-1.85-1.38-3.74-1.67-5.82Z"/>
  </g>
</svg>