<?xml version="1.0" encoding="UTF-8"?>
<svg xmlns="http://www.w3.org/2000/svg" xmlns:xlink="http://www.w3.org/1999/xlink" viewBox="0 0 732.63 246.3">
  <defs>
    <style>
      .cls-1 {
        fill: url(#_ÂÁ_Ï_ÌÌ_È_ËÂÌÚ_2);
      }

      .cls-1, .cls-2, .cls-3, .cls-4, .cls-5, .cls-6, .cls-7, .cls-8, .cls-9, .cls-10, .cls-11, .cls-12, .cls-13, .cls-14, .cls-15, .cls-16, .cls-17, .cls-18, .cls-19, .cls-20, .cls-21, .cls-22, .cls-23, .cls-24, .cls-25, .cls-26, .cls-27, .cls-28, .cls-29, .cls-30, .cls-31, .cls-32, .cls-33, .cls-34, .cls-35, .cls-36, .cls-37, .cls-38, .cls-39, .cls-40, .cls-41, .cls-42, .cls-43, .cls-44, .cls-45, .cls-46, .cls-47, .cls-48, .cls-49, .cls-50, .cls-51, .cls-52, .cls-53, .cls-54, .cls-55, .cls-56 {
        stroke-width: 0px;
      }

      .cls-2 {
        fill: url(#_ÂÁ_Ï_ÌÌ_È_ËÂÌÚ_48);
      }

      .cls-2, .cls-3, .cls-4, .cls-6, .cls-7, .cls-8, .cls-9, .cls-10, .cls-11, .cls-12, .cls-13, .cls-14, .cls-15, .cls-36, .cls-37, .cls-38, .cls-39, .cls-40, .cls-41, .cls-42, .cls-43, .cls-44, .cls-45, .cls-46, .cls-47, .cls-48, .cls-49, .cls-50 {
        mix-blend-mode: multiply;
      }

      .cls-3 {
        fill: url(#_ÂÁ_Ï_ÌÌ_È_ËÂÌÚ_48-6);
      }

      .cls-4 {
        fill: url(#_ÂÁ_Ï_ÌÌ_È_ËÂÌÚ_48-9);
      }

      .cls-5 {
        fill: #408dff;
      }

      .cls-6 {
        fill: url(#_ÂÁ_Ï_ÌÌ_È_ËÂÌÚ_48-20);
      }

      .cls-6, .cls-7, .cls-8, .cls-9, .cls-10, .cls-11, .cls-12, .cls-13, .cls-14, .cls-15, .cls-36, .cls-37, .cls-38, .cls-39, .cls-40, .cls-41 {
        opacity: .5;
      }

      .cls-7 {
        fill: url(#_ÂÁ_Ï_ÌÌ_È_ËÂÌÚ_48-17);
      }

      .cls-8 {
        fill: url(#_ÂÁ_Ï_ÌÌ_È_ËÂÌÚ_48-18);
      }

      .cls-9 {
        fill: url(#_ÂÁ_Ï_ÌÌ_È_ËÂÌÚ_48-19);
      }

      .cls-10 {
        fill: url(#_ÂÁ_Ï_ÌÌ_È_ËÂÌÚ_48-24);
      }

      .cls-11 {
        fill: url(#_ÂÁ_Ï_ÌÌ_È_ËÂÌÚ_48-10);
      }

      .cls-12 {
        fill: url(#_ÂÁ_Ï_ÌÌ_È_ËÂÌÚ_48-25);
      }

      .cls-13 {
        fill: url(#_ÂÁ_Ï_ÌÌ_È_ËÂÌÚ_48-22);
      }

      .cls-14 {
        fill: url(#_ÂÁ_Ï_ÌÌ_È_ËÂÌÚ_48-23);
      }

      .cls-15 {
        fill: url(#_ÂÁ_Ï_ÌÌ_È_ËÂÌÚ_48-21);
      }

      .cls-16 {
        fill: url(#_ÂÁ_Ï_ÌÌ_È_ËÂÌÚ_2-7);
      }

      .cls-17 {
        fill: url(#_ÂÁ_Ï_ÌÌ_È_ËÂÌÚ_2-5);
      }

      .cls-18 {
        fill: url(#_ÂÁ_Ï_ÌÌ_È_ËÂÌÚ_2-8);
      }

      .cls-19 {
        fill: url(#_ÂÁ_Ï_ÌÌ_È_ËÂÌÚ_2-6);
      }

      .cls-20 {
        fill: url(#_ÂÁ_Ï_ÌÌ_È_ËÂÌÚ_2-9);
      }

      .cls-21 {
        fill: url(#_ÂÁ_Ï_ÌÌ_È_ËÂÌÚ_2-4);
      }

      .cls-22 {
        fill: url(#_ÂÁ_Ï_ÌÌ_È_ËÂÌÚ_2-3);
      }

      .cls-23 {
        fill: url(#_ÂÁ_Ï_ÌÌ_È_ËÂÌÚ_2-2);
      }

      .cls-24 {
        fill: url(#_ÂÁ_Ï_ÌÌ_È_ËÂÌÚ_28-2);
      }

      .cls-25 {
        fill: url(#_ÂÁ_Ï_ÌÌ_È_ËÂÌÚ_28-4);
      }

      .cls-26 {
        fill: url(#_ÂÁ_Ï_ÌÌ_È_ËÂÌÚ_28-3);
      }

      .cls-27 {
        fill: url(#_ÂÁ_Ï_ÌÌ_È_ËÂÌÚ_36-5);
      }

      .cls-28 {
        fill: url(#_ÂÁ_Ï_ÌÌ_È_ËÂÌÚ_36-4);
      }

      .cls-29 {
        fill: url(#_ÂÁ_Ï_ÌÌ_È_ËÂÌÚ_36-6);
      }

      .cls-30 {
        fill: url(#_ÂÁ_Ï_ÌÌ_È_ËÂÌÚ_36-2);
      }

      .cls-31 {
        fill: url(#_ÂÁ_Ï_ÌÌ_È_ËÂÌÚ_36-3);
      }

      .cls-32 {
        fill: url(#_ÂÁ_Ï_ÌÌ_È_ËÂÌÚ_18-2);
      }

      .cls-33 {
        fill: url(#_ÂÁ_Ï_ÌÌ_È_ËÂÌÚ_18-3);
      }

      .cls-34 {
        fill: url(#_ÂÁ_Ï_ÌÌ_È_ËÂÌÚ_43-3);
      }

      .cls-35 {
        fill: url(#_ÂÁ_Ï_ÌÌ_È_ËÂÌÚ_43-2);
      }

      .cls-36 {
        fill: url(#_ÂÁ_Ï_ÌÌ_È_ËÂÌÚ_48-5);
      }

      .cls-37 {
        fill: url(#_ÂÁ_Ï_ÌÌ_È_ËÂÌÚ_48-2);
      }

      .cls-38 {
        fill: url(#_ÂÁ_Ï_ÌÌ_È_ËÂÌÚ_48-4);
      }

      .cls-39 {
        fill: url(#_ÂÁ_Ï_ÌÌ_È_ËÂÌÚ_48-3);
      }

      .cls-40 {
        fill: url(#_ÂÁ_Ï_ÌÌ_È_ËÂÌÚ_48-8);
      }

      .cls-41 {
        fill: url(#_ÂÁ_Ï_ÌÌ_È_ËÂÌÚ_48-7);
      }

      .cls-57 {
        isolation: isolate;
      }

      .cls-42 {
        fill: url(#_ÂÁ_Ï_ÌÌ_È_ËÂÌÚ_48-27);
      }

      .cls-43 {
        fill: url(#_ÂÁ_Ï_ÌÌ_È_ËÂÌÚ_48-28);
      }

      .cls-44 {
        fill: url(#_ÂÁ_Ï_ÌÌ_È_ËÂÌÚ_48-26);
      }

      .cls-45 {
        fill: url(#_ÂÁ_Ï_ÌÌ_È_ËÂÌÚ_48-15);
      }

      .cls-46 {
        fill: url(#_ÂÁ_Ï_ÌÌ_È_ËÂÌÚ_48-12);
      }

      .cls-47 {
        fill: url(#_ÂÁ_Ï_ÌÌ_È_ËÂÌÚ_48-16);
      }

      .cls-48 {
        fill: url(#_ÂÁ_Ï_ÌÌ_È_ËÂÌÚ_48-11);
      }

      .cls-49 {
        fill: url(#_ÂÁ_Ï_ÌÌ_È_ËÂÌÚ_48-13);
      }

      .cls-50 {
        fill: url(#_ÂÁ_Ï_ÌÌ_È_ËÂÌÚ_48-14);
      }

      .cls-51 {
        fill: url(#_ÂÁ_Ï_ÌÌ_È_ËÂÌÚ_43);
      }

      .cls-52 {
        fill: url(#_ÂÁ_Ï_ÌÌ_È_ËÂÌÚ_36);
      }

      .cls-53 {
        fill: url(#_ÂÁ_Ï_ÌÌ_È_ËÂÌÚ_28);
      }

      .cls-54 {
        fill: url(#_ÂÁ_Ï_ÌÌ_È_ËÂÌÚ_49);
      }

      .cls-55 {
        fill: url(#_ÂÁ_Ï_ÌÌ_È_ËÂÌÚ_23);
      }

      .cls-56 {
        fill: url(#_ÂÁ_Ï_ÌÌ_È_ËÂÌÚ_18);
      }
    </style>
    <linearGradient id="_ÂÁ_Ï_ÌÌ_È_ËÂÌÚ_2" data-name="¡ÂÁ˚ÏˇÌÌ˚È „‡‰ËÂÌÚ 2" x1="293.9" y1="245.93" x2="293.9" y2="50.16" gradientUnits="userSpaceOnUse">
      <stop offset="0" stop-color="#04092e"/>
      <stop offset="1" stop-color="#14204d"/>
    </linearGradient>
    <linearGradient id="_ÂÁ_Ï_ÌÌ_È_ËÂÌÚ_18" data-name="¡ÂÁ˚ÏˇÌÌ˚È „‡‰ËÂÌÚ 18" x1="321.19" y1="245.93" x2="321.19" y2="141.13" gradientUnits="userSpaceOnUse">
      <stop offset="0" stop-color="#04184f"/>
      <stop offset="1" stop-color="#14346f"/>
    </linearGradient>
    <linearGradient id="_ÂÁ_Ï_ÌÌ_È_ËÂÌÚ_2-2" data-name="¡ÂÁ˚ÏˇÌÌ˚È „‡‰ËÂÌÚ 2" x1="52.09" y1="245.93" x2="52.09" y2="47.7" xlink:href="#_ÂÁ_Ï_ÌÌ_È_ËÂÌÚ_2"/>
    <linearGradient id="_ÂÁ_Ï_ÌÌ_È_ËÂÌÚ_2-3" data-name="¡ÂÁ˚ÏˇÌÌ˚È „‡‰ËÂÌÚ 2" x1="152.77" x2="152.77" y2="0" xlink:href="#_ÂÁ_Ï_ÌÌ_È_ËÂÌÚ_2"/>
    <linearGradient id="_ÂÁ_Ï_ÌÌ_È_ËÂÌÚ_2-4" data-name="¡ÂÁ˚ÏˇÌÌ˚È „‡‰ËÂÌÚ 2" x1="417.09" x2="417.09" y2="55.11" xlink:href="#_ÂÁ_Ï_ÌÌ_È_ËÂÌÚ_2"/>
    <linearGradient id="_ÂÁ_Ï_ÌÌ_È_ËÂÌÚ_2-5" data-name="¡ÂÁ˚ÏˇÌÌ˚È „‡‰ËÂÌÚ 2" x1="575.71" x2="575.71" y2="64.56" xlink:href="#_ÂÁ_Ï_ÌÌ_È_ËÂÌÚ_2"/>
    <linearGradient id="_ÂÁ_Ï_ÌÌ_È_ËÂÌÚ_2-6" data-name="¡ÂÁ˚ÏˇÌÌ˚È „‡‰ËÂÌÚ 2" x1="679.35" x2="679.35" y2="82.5" xlink:href="#_ÂÁ_Ï_ÌÌ_È_ËÂÌÚ_2"/>
    <linearGradient id="_ÂÁ_Ï_ÌÌ_È_ËÂÌÚ_18-2" data-name="¡ÂÁ˚ÏˇÌÌ˚È „‡‰ËÂÌÚ 18" x1="52.09" y1="245.93" x2="52.09" y2="121.21" xlink:href="#_ÂÁ_Ï_ÌÌ_È_ËÂÌÚ_18"/>
    <linearGradient id="_ÂÁ_Ï_ÌÌ_È_ËÂÌÚ_36" data-name="¡ÂÁ˚ÏˇÌÌ˚È „‡‰ËÂÌÚ 36" x1="37.78" y1="117.12" x2="37.78" y2="47.7" gradientUnits="userSpaceOnUse">
      <stop offset="0" stop-color="#040418"/>
      <stop offset="1" stop-color="#14204d"/>
    </linearGradient>
    <linearGradient id="_ÂÁ_Ï_ÌÌ_È_ËÂÌÚ_23" data-name="¡ÂÁ˚ÏˇÌÌ˚È „‡‰ËÂÌÚ 23" x1="53.07" y1="245.93" x2="53.07" y2="141.97" gradientUnits="userSpaceOnUse">
      <stop offset="0" stop-color="#04092e"/>
      <stop offset="1" stop-color="#112c62"/>
    </linearGradient>
    <linearGradient id="_ÂÁ_Ï_ÌÌ_È_ËÂÌÚ_2-7" data-name="¡ÂÁ˚ÏˇÌÌ˚È „‡‰ËÂÌÚ 2" x1="8.66" y1="220.2" x2="8.66" y2="154.03" xlink:href="#_ÂÁ_Ï_ÌÌ_È_ËÂÌÚ_2"/>
    <linearGradient id="_ÂÁ_Ï_ÌÌ_È_ËÂÌÚ_28" data-name="¡ÂÁ˚ÏˇÌÌ˚È „‡‰ËÂÌÚ 28" x1="40.58" y1="129.74" x2="40.58" y2="121.21" gradientUnits="userSpaceOnUse">
      <stop offset="0" stop-color="#282c68"/>
      <stop offset="1" stop-color="#112c62"/>
    </linearGradient>
    <linearGradient id="_ÂÁ_Ï_ÌÌ_È_ËÂÌÚ_36-2" data-name="¡ÂÁ˚ÏˇÌÌ˚È „‡‰ËÂÌÚ 36" x1="153.21" y1="132.46" x2="153.21" y2="66.82" xlink:href="#_ÂÁ_Ï_ÌÌ_È_ËÂÌÚ_36"/>
    <linearGradient id="_ÂÁ_Ï_ÌÌ_È_ËÂÌÚ_43" data-name="¡ÂÁ˚ÏˇÌÌ˚È „‡‰ËÂÌÚ 43" x1="168.56" y1="245.93" x2="168.56" y2="122.43" gradientUnits="userSpaceOnUse">
      <stop offset="0" stop-color="#040418"/>
      <stop offset="1" stop-color="#000c3e"/>
    </linearGradient>
    <linearGradient id="_ÂÁ_Ï_ÌÌ_È_ËÂÌÚ_28-2" data-name="¡ÂÁ˚ÏˇÌÌ˚È „‡‰ËÂÌÚ 28" x1="208.4" y1="222.08" x2="208.4" y2="216.84" xlink:href="#_ÂÁ_Ï_ÌÌ_È_ËÂÌÚ_28"/>
    <linearGradient id="_ÂÁ_Ï_ÌÌ_È_ËÂÌÚ_28-3" data-name="¡ÂÁ˚ÏˇÌÌ˚È „‡‰ËÂÌÚ 28" x1="122.85" y1="159.82" x2="122.85" y2="122.43" xlink:href="#_ÂÁ_Ï_ÌÌ_È_ËÂÌÚ_28"/>
    <linearGradient id="_ÂÁ_Ï_ÌÌ_È_ËÂÌÚ_28-4" data-name="¡ÂÁ˚ÏˇÌÌ˚È „‡‰ËÂÌÚ 28" x1="163.72" y1="148.92" x2="163.72" y2="133.87" xlink:href="#_ÂÁ_Ï_ÌÌ_È_ËÂÌÚ_28"/>
    <linearGradient id="_ÂÁ_Ï_ÌÌ_È_ËÂÌÚ_48" data-name="¡ÂÁ˚ÏˇÌÌ˚È „‡‰ËÂÌÚ 48" x1="172.99" y1="245.93" x2="172.99" y2="135.24" gradientUnits="userSpaceOnUse">
      <stop offset="0" stop-color="#04092e"/>
      <stop offset="1" stop-color="#a2acc1"/>
    </linearGradient>
    <linearGradient id="_ÂÁ_Ï_ÌÌ_È_ËÂÌÚ_48-2" data-name="¡ÂÁ˚ÏˇÌÌ˚È „‡‰ËÂÌÚ 48" x1="100.78" y1="27.95" x2="100.78" y2="22.93" xlink:href="#_ÂÁ_Ï_ÌÌ_È_ËÂÌÚ_48"/>
    <linearGradient id="_ÂÁ_Ï_ÌÌ_È_ËÂÌÚ_48-3" data-name="¡ÂÁ˚ÏˇÌÌ˚È „‡‰ËÂÌÚ 48" x1="95.38" y1="63.39" x2="95.38" y2="29.46" xlink:href="#_ÂÁ_Ï_ÌÌ_È_ËÂÌÚ_48"/>
    <linearGradient id="_ÂÁ_Ï_ÌÌ_È_ËÂÌÚ_48-4" data-name="¡ÂÁ˚ÏˇÌÌ˚È „‡‰ËÂÌÚ 48" x1="111.27" y1="150.41" x2="111.27" y2="104.86" xlink:href="#_ÂÁ_Ï_ÌÌ_È_ËÂÌÚ_48"/>
    <linearGradient id="_ÂÁ_Ï_ÌÌ_È_ËÂÌÚ_48-5" data-name="¡ÂÁ˚ÏˇÌÌ˚È „‡‰ËÂÌÚ 48" x1="37.3" y1="117.12" x2="37.3" y2="74.46" xlink:href="#_ÂÁ_Ï_ÌÌ_È_ËÂÌÚ_48"/>
    <linearGradient id="_ÂÁ_Ï_ÌÌ_È_ËÂÌÚ_48-6" data-name="¡ÂÁ˚ÏˇÌÌ˚È „‡‰ËÂÌÚ 48" x1="23.4" y1="71.02" x2="23.4" y2="62.64" xlink:href="#_ÂÁ_Ï_ÌÌ_È_ËÂÌÚ_48"/>
    <linearGradient id="_ÂÁ_Ï_ÌÌ_È_ËÂÌÚ_48-7" data-name="¡ÂÁ˚ÏˇÌÌ˚È „‡‰ËÂÌÚ 48" x1="138.3" y1="85.32" x2="138.3" y2="78.64" xlink:href="#_ÂÁ_Ï_ÌÌ_È_ËÂÌÚ_48"/>
    <linearGradient id="_ÂÁ_Ï_ÌÌ_È_ËÂÌÚ_48-8" data-name="¡ÂÁ˚ÏˇÌÌ˚È „‡‰ËÂÌÚ 48" x1="153.21" y1="132.46" x2="153.21" y2="85.32" xlink:href="#_ÂÁ_Ï_ÌÌ_È_ËÂÌÚ_48"/>
    <linearGradient id="_ÂÁ_Ï_ÌÌ_È_ËÂÌÚ_36-3" data-name="¡ÂÁ˚ÏˇÌÌ˚È „‡‰ËÂÌÚ 36" x1="313.35" y1="206.93" x2="313.35" y2="63.37" xlink:href="#_ÂÁ_Ï_ÌÌ_È_ËÂÌÚ_36"/>
    <linearGradient id="_ÂÁ_Ï_ÌÌ_È_ËÂÌÚ_48-9" data-name="¡ÂÁ˚ÏˇÌÌ˚È „‡‰ËÂÌÚ 48" x1="244.21" y1="122.48" x2="244.21" y2="82.23" xlink:href="#_ÂÁ_Ï_ÌÌ_È_ËÂÌÚ_48"/>
    <linearGradient id="_ÂÁ_Ï_ÌÌ_È_ËÂÌÚ_48-10" data-name="¡ÂÁ˚ÏˇÌÌ˚È „‡‰ËÂÌÚ 48" x1="316.16" x2="316.16" y2="137" xlink:href="#_ÂÁ_Ï_ÌÌ_È_ËÂÌÚ_48"/>
    <linearGradient id="_ÂÁ_Ï_ÌÌ_È_ËÂÌÚ_48-11" data-name="¡ÂÁ˚ÏˇÌÌ˚È „‡‰ËÂÌÚ 48" x1="340.5" y1="95.13" x2="340.5" y2="74.93" xlink:href="#_ÂÁ_Ï_ÌÌ_È_ËÂÌÚ_48"/>
    <linearGradient id="_ÂÁ_Ï_ÌÌ_È_ËÂÌÚ_48-12" data-name="¡ÂÁ˚ÏˇÌÌ˚È „‡‰ËÂÌÚ 48" x1="342.51" y1="96.43" x2="342.51" y2="95.94" xlink:href="#_ÂÁ_Ï_ÌÌ_È_ËÂÌÚ_48"/>
    <linearGradient id="_ÂÁ_Ï_ÌÌ_È_ËÂÌÚ_48-13" data-name="¡ÂÁ˚ÏˇÌÌ˚È „‡‰ËÂÌÚ 48" x1="346.69" y1="152.48" x2="346.69" y2="114.96" xlink:href="#_ÂÁ_Ï_ÌÌ_È_ËÂÌÚ_48"/>
    <linearGradient id="_ÂÁ_Ï_ÌÌ_È_ËÂÌÚ_48-14" data-name="¡ÂÁ˚ÏˇÌÌ˚È „‡‰ËÂÌÚ 48" x1="314.65" y1="195.91" x2="314.65" y2="80.68" xlink:href="#_ÂÁ_Ï_ÌÌ_È_ËÂÌÚ_48"/>
    <linearGradient id="_ÂÁ_Ï_ÌÌ_È_ËÂÌÚ_48-15" data-name="¡ÂÁ˚ÏˇÌÌ˚È „‡‰ËÂÌÚ 48" x1="313.59" y1="82.85" x2="313.59" y2="66.83" xlink:href="#_ÂÁ_Ï_ÌÌ_È_ËÂÌÚ_48"/>
    <linearGradient id="_ÂÁ_Ï_ÌÌ_È_ËÂÌÚ_36-4" data-name="¡ÂÁ˚ÏˇÌÌ˚È „‡‰ËÂÌÚ 36" x1="423.76" y1="127.25" x2="423.76" y2="55.11" xlink:href="#_ÂÁ_Ï_ÌÌ_È_ËÂÌÚ_36"/>
    <linearGradient id="_ÂÁ_Ï_ÌÌ_È_ËÂÌÚ_48-16" data-name="¡ÂÁ˚ÏˇÌÌ˚È „‡‰ËÂÌÚ 48" x1="579.32" y1="188.93" x2="579.32" y2="144.26" xlink:href="#_ÂÁ_Ï_ÌÌ_È_ËÂÌÚ_48"/>
    <linearGradient id="_ÂÁ_Ï_ÌÌ_È_ËÂÌÚ_43-2" data-name="¡ÂÁ˚ÏˇÌÌ˚È „‡‰ËÂÌÚ 43" x1="417.1" y1="245.93" x2="417.1" y2="125.48" xlink:href="#_ÂÁ_Ï_ÌÌ_È_ËÂÌÚ_43"/>
    <linearGradient id="_ÂÁ_Ï_ÌÌ_È_ËÂÌÚ_2-8" data-name="¡ÂÁ˚ÏˇÌÌ˚È „‡‰ËÂÌÚ 2" x1="463.67" y1="236.98" x2="463.67" y2="163.46" xlink:href="#_ÂÁ_Ï_ÌÌ_È_ËÂÌÚ_2"/>
    <linearGradient id="_ÂÁ_Ï_ÌÌ_È_ËÂÌÚ_2-9" data-name="¡ÂÁ˚ÏˇÌÌ˚È „‡‰ËÂÌÚ 2" x1="369.24" y1="239.05" x2="369.24" y2="158.99" xlink:href="#_ÂÁ_Ï_ÌÌ_È_ËÂÌÚ_2"/>
    <linearGradient id="_ÂÁ_Ï_ÌÌ_È_ËÂÌÚ_48-17" data-name="¡ÂÁ˚ÏˇÌÌ˚È „‡‰ËÂÌÚ 48" x1="414.61" y1="148.05" x2="414.61" y2="135.28" xlink:href="#_ÂÁ_Ï_ÌÌ_È_ËÂÌÚ_48"/>
    <linearGradient id="_ÂÁ_Ï_ÌÌ_È_ËÂÌÚ_48-18" data-name="¡ÂÁ˚ÏˇÌÌ˚È „‡‰ËÂÌÚ 48" x1="417.48" x2="417.48" y2="159" xlink:href="#_ÂÁ_Ï_ÌÌ_È_ËÂÌÚ_48"/>
    <linearGradient id="_ÂÁ_Ï_ÌÌ_È_ËÂÌÚ_36-5" data-name="¡ÂÁ˚ÏˇÌÌ˚È „‡‰ËÂÌÚ 36" x1="573.56" y1="127.13" x2="573.56" y2="64.56" xlink:href="#_ÂÁ_Ï_ÌÌ_È_ËÂÌÚ_36"/>
    <linearGradient id="_ÂÁ_Ï_ÌÌ_È_ËÂÌÚ_18-3" data-name="¡ÂÁ˚ÏˇÌÌ˚È „‡‰ËÂÌÚ 18" x1="546.55" x2="546.55" y2="133" xlink:href="#_ÂÁ_Ï_ÌÌ_È_ËÂÌÚ_18"/>
    <linearGradient id="_ÂÁ_Ï_ÌÌ_È_ËÂÌÚ_48-19" data-name="¡ÂÁ˚ÏˇÌÌ˚È „‡‰ËÂÌÚ 48" x1="571.33" y1="133.72" x2="571.33" y2="121.91" xlink:href="#_ÂÁ_Ï_ÌÌ_È_ËÂÌÚ_48"/>
    <linearGradient id="_ÂÁ_Ï_ÌÌ_È_ËÂÌÚ_48-20" data-name="¡ÂÁ˚ÏˇÌÌ˚È „‡‰ËÂÌÚ 48" x1="541.38" x2="541.38" y2="162.03" xlink:href="#_ÂÁ_Ï_ÌÌ_È_ËÂÌÚ_48"/>
    <linearGradient id="_ÂÁ_Ï_ÌÌ_È_ËÂÌÚ_48-21" data-name="¡ÂÁ˚ÏˇÌÌ˚È „‡‰ËÂÌÚ 48" x1="575.76" y1="182.64" x2="575.76" y2="163.46" xlink:href="#_ÂÁ_Ï_ÌÌ_È_ËÂÌÚ_48"/>
    <linearGradient id="_ÂÁ_Ï_ÌÌ_È_ËÂÌÚ_36-6" data-name="¡ÂÁ˚ÏˇÌÌ˚È „‡‰ËÂÌÚ 36" x1="665.22" y1="185.2" x2="665.22" y2="82.5" xlink:href="#_ÂÁ_Ï_ÌÌ_È_ËÂÌÚ_36"/>
    <linearGradient id="_ÂÁ_Ï_ÌÌ_È_ËÂÌÚ_43-3" data-name="¡ÂÁ˚ÏˇÌÌ˚È „‡‰ËÂÌÚ 43" x1="677.58" y1="236.76" x2="677.58" y2="149.72" xlink:href="#_ÂÁ_Ï_ÌÌ_È_ËÂÌÚ_43"/>
    <linearGradient id="_ÂÁ_Ï_ÌÌ_È_ËÂÌÚ_49" data-name="¡ÂÁ˚ÏˇÌÌ˚È „‡‰ËÂÌÚ 49" x1="692.02" y1="245.93" x2="692.02" y2="228.77" gradientUnits="userSpaceOnUse">
      <stop offset="0" stop-color="#14346f"/>
      <stop offset="1" stop-color="#04184f"/>
    </linearGradient>
    <linearGradient id="_ÂÁ_Ï_ÌÌ_È_ËÂÌÚ_48-22" data-name="¡ÂÁ˚ÏˇÌÌ˚È „‡‰ËÂÌÚ 48" x1="418.83" y1="127.25" x2="418.83" y2="73.18" xlink:href="#_ÂÁ_Ï_ÌÌ_È_ËÂÌÚ_48"/>
    <linearGradient id="_ÂÁ_Ï_ÌÌ_È_ËÂÌÚ_48-23" data-name="¡ÂÁ˚ÏˇÌÌ˚È „‡‰ËÂÌÚ 48" x1="564.26" y1="76.11" x2="564.26" y2="72.05" xlink:href="#_ÂÁ_Ï_ÌÌ_È_ËÂÌÚ_48"/>
    <linearGradient id="_ÂÁ_Ï_ÌÌ_È_ËÂÌÚ_48-24" data-name="¡ÂÁ˚ÏˇÌÌ˚È „‡‰ËÂÌÚ 48" x1="565.54" y1="127.13" x2="565.54" y2="75.15" xlink:href="#_ÂÁ_Ï_ÌÌ_È_ËÂÌÚ_48"/>
    <linearGradient id="_ÂÁ_Ï_ÌÌ_È_ËÂÌÚ_48-25" data-name="¡ÂÁ˚ÏˇÌÌ˚È „‡‰ËÂÌÚ 48" x1="665.22" y1="185.2" x2="665.22" y2="88.47" xlink:href="#_ÂÁ_Ï_ÌÌ_È_ËÂÌÚ_48"/>
    <linearGradient id="_ÂÁ_Ï_ÌÌ_È_ËÂÌÚ_48-26" data-name="¡ÂÁ˚ÏˇÌÌ˚È „‡‰ËÂÌÚ 48" x1="648.55" y1="198.54" x2="648.55" y2="175.34" xlink:href="#_ÂÁ_Ï_ÌÌ_È_ËÂÌÚ_48"/>
    <linearGradient id="_ÂÁ_Ï_ÌÌ_È_ËÂÌÚ_48-27" data-name="¡ÂÁ˚ÏˇÌÌ˚È „‡‰ËÂÌÚ 48" x1="690.15" y1="238.75" x2="690.15" y2="228.77" xlink:href="#_ÂÁ_Ï_ÌÌ_È_ËÂÌÚ_48"/>
    <linearGradient id="_ÂÁ_Ï_ÌÌ_È_ËÂÌÚ_48-28" data-name="¡ÂÁ˚ÏˇÌÌ˚È „‡‰ËÂÌÚ 48" x1="714" y1="189.46" x2="714" y2="175.34" xlink:href="#_ÂÁ_Ï_ÌÌ_È_ËÂÌÚ_48"/>
  </defs>
  <g class="cls-57">
    <g id="Calque_2" data-name="Calque 2">
      <g id="Calque_1-2" data-name="Calque 1">
        <g>
          <path class="cls-1" d="M341.46,148.03s.02-.03.06-.08c6.39-8.4,19.5-25.98,20.83-30.19.75-2.37-1.85-9.48-5.26-17.42-.03-.08-.05-.13-.05-.13-4.61-10.72-10.67-22.92-11.95-27.03,0,0-.15-10.05-2.24-14.14,0,0-1.28-1.13-3.12-.73,0,0-1.92-.8-3.99-.09,0,0-1.59-.38-2.87.56,0,0-2-2.55-3.37-3.74-1.35-1.2-3.98-4.8-5.26-4.87-1.28-.09-1.45.94-.09,3.35,1.37,2.4,4.17,5.19,4.17,5.19,0,0,1.58,1.6,2.86,3.91,1.28,2.33,1.44,4.88,1.44,4.88,0,0-1.91-.07-4.07-2.16-2.15-2.08-1.51-2.48-3.28-3.19-1.76-.72-3.59.16-3.51,1.03.07.88,1.67,1.13,4,3.91,2.31,2.8,3.27,5.12,4.23,5.85.96.71,7.58.39,8.63,1.99,0,0,0,.01.01.02.14.21.29.59.44,1.09.01.04.02.07.04.11,1.02,3.35,2.36,11.94,3.18,18.35.03.21.05.41.08.63.03.28.06.55.1.81.02.12.04.26.05.39v.03c.54,4.03,1.22,8.41,2.44,12.04,0,.01.01.02.01.03.94,2.78,2.21,5.11,3.97,6.48.02.01.04.03.05.04h.01c-.08.11-.15.23-.23.34-1.09,1.7-6.14,9.46-10.53,14.01-.07.09-.11.13-.11.13.02-.22.03-.43.04-.66.18-3.39.92-18.64.21-23.4,0,0,3.19-1.84,2.87-5.51s-9.39-15.63-19.28-19.28c0,0,2.77-4.59,1.49-8.31-1.28-3.73-4.04-3.83-4.04-3.83h-.01c-.23-.4-5.07-8.1-11.82-3.74-4.19,2.71-4.21,7.68-3.56,11.18.41,2.29,1.11,3.95,1.11,3.95,0,0-7.35,1.07-12.79,7.14-5.43,6.08-5.11,12.79-2.77,15.13,0,0-4.55,21.66-4.14,27.05v.03c.02.24.05.46.1.62.11.48.29.94.51,1.37l.03.05c.07.15.15.29.23.43h0c.09.17.19.33.3.48h0c-.07-.03-.14-.08-.22-.14l-.11-.08h0c-.97-.69-1.88-1.38-2.66-2.01-4.37-3.51-10.12-12.78-10.55-13.84-.43-1.07-3.31-7.15-6.29-10.02-2.98-2.88-14.8-12.35-18.21-16.19-.65-.72-1.19-1.33-1.66-1.85-.03-.04-.06-.08-.1-.12-.04-.05-.07-.08-.08-.1h0s-.21-.27-.21-.27c-.19-.22-.37-.42-.53-.61-.16-.18-.29-.35-.42-.5-.19-.22-.33-.4-.46-.55l-.22-.27-.25-.32s.88-.97,1.71-2.28c.02-.04.04-.08.07-.13.94-1.51,1.76-3.43,1.09-4.83-1.27-2.67-2.99-4.79-3.73-7.56-.25-.95-.31-2-.31-2.99,0-1.93.2-3.65-.43-4.1-.96-.69-3.09,1.01-2.77,3.52.31,2.51,1.06,3.08,1.7,4.84.63,1.76-.11,3.57-.11,3.57l-.02-.02c-.35-.35-5.99-6.06-7.38-7.92-1.44-1.92-5.28-7.35-6.49-7.87-.81-.36-1.51-.52-2.01-.4-.26.05-.46.18-.61.4-.43.64,3.56,6.22,4.42,7.55s2.67,4.48,2.67,4.48c0,0-1.49,1.54-1.49,3.31,0,0-1.13,1.16-1.18,2.56-.05,1.38-.1,2.34-.1,2.34,0,0-1.18.26-1.06,2.5.1,2.24,4.84,6.66,11.12,7.72,0,0,11.56,22.06,16.2,28.13,1.45,1.92,2.75,3.31,3.9,4.4.17.18.35.33.52.48.08.07.15.13.22.21,2.13,1.89,3.78,2.84,5.26,4.5.62.7,2.27,2.45,4.4,4.79,0,0,.02.01.03.04,1.95,2.14,4.31,4.76,6.68,7.5l.07.07c5.09,5.91,10.23,12.41,11.52,16.04,0,0,0,.05-.02.14v.06s-.01.05-.01.05v.03c-.14.82-.51,3.41-.84,6.53v.12c-.46,4.31-.84,9.6-.41,12.72.8,5.92,5.43,8.16,6.07,10.08s2.88,12.63,2.88,25.41-8.31,34.68-8.31,34.68h67.44s0-.02-.02-.05c-.23-.48-2.12-4.46-5.57-9.72l-.08-.09c-2.34-3.57-5.42-7.71-9.19-11.73-9.34-9.94-17.8-23.98-19.35-27.96-.11-.3-.16-.47-.16-.47-.2-.71-.34-1.52-.42-2.34-.09-.91-.1-1.83-.09-2.66.03-1.77.21-3.15.21-3.15,0,0,1.81,3.01,4.75,6.82,1.34,1.73,2.92,3.63,4.67,5.47l-.64-4.14s2.18,2.76,4.73,5.54c2.26,2.47,4.79,4.96,6.3,5.48,0,0-3.68-28.61-4.17-38.35,0,0,2.73,14.7,4.01,17.74,0,0-.64-23.56-2.24-33.84l3.4-4.43v-.02ZM294.85,137.6l-.59-.37-.37-.23c-.99-.64-2.22-1.41-3.52-2.28-.04-.06-.08-.11-.1-.17v-.02s-.01,0-.02-.01c-.86-1.52-1.95-3.55-2.37-4.93-.74-2.46,3.09-16.52,3.09-16.52,0,0,3.84,17.69,5.22,25.36l-1.34-.83Z"/>
          <path class="cls-56" d="M287.88,245.93s8.31-21.89,8.31-34.67-2.24-23.5-2.88-25.42c-.64-1.92-5.27-4.15-6.07-10.07-.75-5.56,1.04-18.05,1.27-19.51-.06,1.34-.45,15.3,3.48,16.8,3.89,1.47,7.44-21.2,7.71-30.02.04-.74.04-1.38.01-1.9l23.33,14.24,4.79,35.21,6.33,10.87c-2.54-2.77-4.73-5.54-4.73-5.54l.64,4.14c-1.75-1.84-3.32-3.75-4.67-5.47-2.94-3.81-4.76-6.83-4.76-6.83,0,0-.18,1.38-.2,3.16-.01.83,0,1.75.09,2.66.08.82.22,1.62.42,2.34.97,3.2,9.75,18.05,19.51,28.43,3.77,4.01,6.85,8.16,9.19,11.72l.08.09c3.68,5.61,5.59,9.77,5.59,9.77h-67.44Z"/>
          <path class="cls-23" d="M104.18,245.93h-19.34s-5.28-12.47-5.75-15.34c-.48-2.88-.48-9.03-.56-14.46-.08-5.44-7.28-25.74-7.28-25.74l-1.59,2.16s-5.35,17.51-4.63,25.57c.71,8.07,6.22,27.81,6.22,27.81H16.68c-.8-5.91-1.51-25.72-1.51-25.72-5.52-6-9.67-13.59-9.67-13.59-5.11-19.35-3.19-52.59-3.19-52.59,0,0-3.76-7.58-1.69-9.5,2.08-1.91,5.43-1.44,5.43-1.44,10.32-5.75,19.27-13.35,19.27-13.35l1.75-5.58c1.36-1.53,4.23-2.17,4.23-2.17v-6.71c-6.07-4.31-8.87-9.91-8.87-9.91,0,0-.4,3.44-3.99,1.45-3.59-2.01-7.18-9.83-5.15-11.67s4.51-1.12,4.51-1.12c0,0-.79-2.02-1.7-4.71-.01-.04-.04-.08-.05-.12-1.39-4.09-3.05-9.65-2.72-11.95.56-3.84,3.91-6.23,3.91-6.23,0,0-1.11-4.08,0-6.24.52-1.01,3.43-6.82,14.95-11.75,12.38-5.28,21.09-6.14,21.65-4.7.55,1.43-4.23,5.11-4.23,5.11,5.98-.71,8.86,2,9.42,4.31.57,2.32-4.08,2.41-4.08,2.41,8.39,7.58,7.45,19.97,7.11,18.37-.3-1.6-1.67-4.07-1.67-4.07.27,1.59.28,4.92.22,7.97-.07,3.26-.22,6.17-.22,6.17,0,0,.37-.18.91-.33.93-.27,2.32-.45,3.09.56,1.2,1.61.08,9.92-1.92,11.43-1.99,1.52-2.8,0-2.8,0-.96,5.68-6.79,11.43-6.79,11.43l-.79,10.62s.15.12.38.29c.5.38,1.33,1.08,1.62,1.63.39.81.79,4.23.79,4.23,0,0,1.12,2.65,7.11,7.2,5.99,4.55,12.7,5.51,13.83,6.32.2.14.32.31.39.49.33.84-.48,1.97-.48,1.97,0,0,9.11,11.2,9.83,15.04.72,3.83,6,45.93,7.19,49.94,1.2,3.99,4.32,9.9,6.63,16.62,2.32,6.71,4.8,19.89,4.8,19.89Z"/>
          <path class="cls-22" d="M227.96,245.93h-20.94s-2.18-14.94-5.31-23.92c-.04-.13-.09-.26-.13-.38l-3.51-.31-.06-.2c-.1-.43-.42-1.59-.99-3.27l-.03-.06c-.59-1.67-1.44-3.81-2.61-6.23,0,0-2.69,20.43-1.99,33.19.03.4.05.79.08,1.18h-57.53s-9.11-45.71-11.66-73.36c0,0-.03-.07-.09-.18-.04-.07-.08-.16-.13-.27-.18-.35-.44-.9-.76-1.57-.09-.19-.19-.4-.29-.62-.19-.41-.38-.84-.59-1.31-.07-.17-.14-.32-.22-.49-.15-.33-.3-.66-.44-1.02-.16-.35-.31-.72-.46-1.09-.4-.94-.8-1.95-1.18-2.99-.1-.28-.2-.56-.31-.86-.14-.38-.28-.76-.41-1.16-.12-.38-.25-.78-.38-1.16v-.03c-.11-.36-.22-.7-.32-1.05-.13-.41-.23-.82-.33-1.21v-6.88l-.15-.27c-1.47-2.65-13.36-24.23-16.96-36.96-.98-3.48-1.95-6.23-2.91-8.59-.01-.03-.01-.04-.03-.06-2.77-6.86-5.3-10.33-6.96-18.04-1.5-6.93-3.14-20.94-4.1-30.21-.48-4.63-.8-8.07-.85-8.85-.03-.41-.28-1.16-.69-2.15-1.92-4.66-7.15-14.53-7.15-17.45,0-3.5,2.24-3.5,3.03-4.78.81-1.28,1.76-2.08,3.2-3.36,0,0-3.2-15.66-2.56-17.43.38-1.04,1.22-1.69,1.99-1.84.54-.11,1.05.02,1.37.41.81.96,2.88,5.27,2.88,10.23l1.6,7.67,3.19-.79s-.8-7.52-.47-10.4c.31-2.88.79-5.37,2.56-7.16,1.75-1.79,3.03.45,3.19,2.69.16,2.23-.8,4.15-.97,4.79-.15.64,0,8.31.33,11.19.31,2.87.48,4,.48,4,0,0,6.07-1.13,6.79.47.71,1.6,1.84,2.39,1.99,4.48.03.32-.03.74-.13,1.25-.6,2.71-2.98,7.57-4.34,9.45-1.59,2.25-5.76,3.83-5.76,3.83,0,0,2.69,12.93,5.06,20.29.02.05.04.12.06.17,2.4,7.36,9.43,18.7,10.71,23.18.35,1.22.56,2.51.67,3.75v.03c.31,3.28-.03,6.13-.03,6.13v.02s.02.04.03.08c.45,1.29,5.38,15.3,11.56,24.76l1.19,1.75s1.28-1.19,2.56,0c.15.16.28.31.4.48.1.16.18.34.24.51.36,1.05,0,2.12,0,2.12l8.83,9.17,3.8,3.93h4.31l-.06-.15s-.04-.11-.07-.19c-.02-.05-.04-.1-.05-.17-.11-.36-.26-.85-.34-1.39-.04-.18-.07-.36-.08-.53,0-.08,0-.17,0-.26-.06-.95.14-1.87.93-2.27.48-.23.98-.33,1.47-.34,1.49-.05,2.85.68,2.85.68,0,0,.2.06-.43-2.66,0,0-6.29-3.97-9.16-7.42-2.89-3.45-3.63-6.44-3.63-6.44,0,0-4.53-.74-7.4-6.02-2.88-5.28-.17-7.84,2.08-7.99v-.02c-.22-.41-3.82-7.31-3.36-11.81.47-4.64,4.64-6.87,4.64-6.87,0,0-3.04-.97-3.2-3.04s3.84,1.13,3.84,1.13c0,0-.97-3.37,0-6.09.95-2.71,9.42-8.95,21.73-10.38,12.3-1.43,20.93,10.23,20.13,12.47-.74,2.09-3.03-1.7-3.33-2.19.21.6,2.52,7.22,4.02,14.51.02.1.04.2.06.32.03.11.05.26.08.41.16.82.32,1.63.45,2.45,0,0,.91-1.32,2.26-1.11.52.08,1.11.39,1.74,1.11,1.66,1.9,1.29,9.61-.12,13.13h0c-.49,1.22-1.11,1.94-1.81,1.73,0,0,1.61,11.82-6.91,19.51,0,0-.22,1.89,1.09,7.51.16.69.34,1.43.55,2.23,0,0,4.96,2.22,7.2,5.42,2.23,3.2,2.23,4.48,2.23,4.48,0,0,10.23,8.79,18.22,12.14,0,0,9.12,7.2,12.79,17.26,0,0,3.67,14.4,2.72,28.93,0,0,1.59,7.2,3.35,11.98l-1.13,1.61s6.73,19.18,9.29,25.09Z"/>
          <path class="cls-21" d="M478.84,226.75c-6.06,8.16-30.35,10.23-30.35,10.23v8.95h-65.53l.16-6.88c-18.5-7.74-24.47-15.93-26.28-19.46h0c-.58-1.14-.73-1.79-.73-1.79-3.2-16.3,4.64-58.81,4.64-58.81,3.67-4.79,9.12-7.19,9.12-7.19,8.66-2.95,16.28-6.94,16.74-7.18h.03s-1.6-9.13-1.6-9.13c3.67-4.8,8.05-7.17,11.28-8.31.06-.03.09-.05.09-.05,2.62-.93,4.45-1.06,4.45-1.06l.02-.05,1.89-4.74c-4.47-5.12-5.7-14.22-5.7-14.22,0,0-.36,1.28-2.27,0h0c-1.92-1.32-4.8-12.63-2.72-15.04.91-1.04,1.79-1.18,2.49-.99.36.09.67.27.92.45h.01c.27.21.46.41.54.51l.04.03s-.05-.53-.14-1.44h0c-.34-3.94-1.16-14.68.14-17.4,1.36-2.88,5.31-4.47,6.41-4.85.18-.09.29-.11.29-.11,0,0,1.08-3.9,4.29-6.75.22-.19.44-.38.68-.56l.03-.03c.43-.32.89-.63,1.39-.9.36-.21.73-.39,1.13-.56,5.75-2.39,9.59,1.92,13.91,1.13,4.31-.79,6.23-5.44,6.23-5.44.96,3.03.32,7.2.32,7.2,6.71-2.4,10.71.48,12.78,8.79,2.07,8.31,8.63,8.31,8.63,8.31-1.11,4.47-3.67,4.3-3.67,4.3.64,4.48-4,18.23-4,18.23,0,0,.27-.01.65.03,1.38.09,4.32.77,2.71,4.76-1.82,4.47-6.69,6.87-7.88,7.4l-.25.1h-.02c-4.16,7.2-11.36,11.67-11.36,11.67l.17,3.05c.23.12.46.25.68.39,1.29.75,2.52,1.49,3.69,2.21h0c8.57,5.34,13.68,9.86,13.68,9.86l-2.4,6.64c15.83,6.3,24.14,15.41,24.14,15.41,7.34,19.33,10.53,63.29,10.53,63.29Z"/>
          <path class="cls-17" d="M636.13,180.25c.45-.15,1.64-.66,1.55-1.44-.1-.96-4.58-.32-7.99,1.49l-3.4,1.6s0,0-.02-.01c-.02,0-.04,0-.08-.01-.74-.2-5.51-1.39-8.75-.3-3.52,1.16-5.97,5-5.97,5,0,0-1.8,1.81-13.21,3.41-10.91,1.53-19.66,3.35-20.4,3.51h-.05s-2.78-5.43-3.94-10.86c0,0,0,0,.03-.01l2.85-2.12s.05.07.16.23c.89,1.26,5.31,7.49,7.51,8.14l.2.05c2.35.32,25.89-19.81,29.73-23.77,0,0,11.94-1.48,15.13-2.44,3.2-.96,8.2-3.51,8.52-4.47s-2.02-.96-2.02-.96c0,0,3.95-2.14,3.41-2.99s-2.45-.64-2.45-.64c0,0,.96-.85.85-1.7-.05-.4-1.04-.54-2.45-.36t-.02.01h0c-.51.07-1.08.19-1.68.35,0,0-.03.01-.05.02-1.3.36-2.75.94-4.1,1.79l-2.77,1.47s-2.12.49-4.86.26h-.01c-.62-.04-1.27-.13-1.94-.26l.52-1.04,3.63-.86s1.06.54,2.98-1.06,1.92-3.42,1.18-3.94c-.18-.13-.49-.05-.9.16-1.33.66-3.63,2.7-5.18,3.36-2.03.84-5.87.74-8.1,1.8-2.24,1.07-3.52,5.33-3.94,7.57h0c-.19.25-1.99,2.4-8.4,5.11-3.57,1.5-7.37,2.72-10.51,3.98-.06.02-.1.03-.1.03-2.84,1.14-5.13,2.31-6.23,3.76,0,0-.42-.83-1.08-2.13v-.02c-1.04-2.04-2.65-5.24-4.14-8.28-2.23-4.56-4.55-15.81-5.83-19.42-.14-.36-.25-.64-.35-.83-.62-1.13-1.36-2.71-1.92-3.94l-.03-.09c-.49-1.05-.82-1.82-.82-1.82,0,0,1.07-5.02,3.2-6.5,2.12-1.49,4.58-1.18,4.58-1.18,0,0,4.15,2.14,7.45,2.46,3.31.32,5.87-4.16,5.87-4.16,0,0,1.21-.11,1.38-.85.16-.7-2.6-2.74-3.41-4.31-.07-.17-.11-.27-.11-.27,0,0,3.52.32,5.91-.43,0,0,.49-2.61,1.18-3.47,0,0,3.41-1.11,3.83-2.66,0,0-4.74-6.54-4.84-8.63-.11-2.07,2.92-6.06,2.77-9.57-.11-2.23-.8-4.86-1.3-6.49v-.02c-.29-.94-.51-1.55-.51-1.55,0,0,5.75-2.34,5.75-3.3s-5.45,1.52-5.74,1.64c.2-.28,3.7-5.36,2.86-8.35-.25-.89-.92-1.48-1.88-1.88-2.37-1-6.53-.85-10.48-1.31-5.54-.64-6.71-2.78-9.47-3.1-2.05-.24-5.31.69-6.88,1.19-.56.18-.91.31-.91.31,0,0,.64-3.31-1.7-3.1,0,0,0-.01-.01-.02-.22-.46-3.92-8.05-10.32-7.43-6.61.64-10.23,9.37-10.34,10.65s2.03,12.15,1.81,21.41c-.13,6.06-2.1,10.85-3.44,13.44-.02.05-.04.07-.05.08h0c-.63,1.2-1.11,1.91-1.19,2.03l3.72-2.22s1.82,10.65,6.61,17.14c0,0,2.21-6.17,2.06-11.93,1.59,1.66,3.73,2.98,6.46,3.94,0,0,.75,2.03-.96,4.47.08-.01.15-.02.22-.03.05-.02.1-.02.15-.04.66-.18,2.08-.69,2.72-2.05,0,0,.04.3.02.87-.13,1.59-.95,5.29-5.35,10.64h-1.92s0,.01-.02.03-.03.04-.07.07h0c-.31.32-1.3,1.35-2.59,2.84-.19.23-.4.47-.61.72-.38.46-.77.94-1.18,1.45-.45.57-.91,1.17-1.38,1.8-.15.21-.31.42-.46.64-.16.22-.31.44-.46.66-.3.44-.61.89-.91,1.35-.25.39-.5.78-.74,1.18-.04.07-.09.14-.13.22-.25.42-.49.84-.72,1.26-.3.55-.58,1.1-.84,1.65-.12.24-.23.48-.33.73-.16.35-.3.69-.43,1.03-.11.27-.2.54-.29.8-.06.18-.12.37-.18.55-.06.19-.11.37-.16.55-2.24,8.24-1.6,32.01-5.54,41.16-2.66,6.19-9.55,13.64-15.33,20.88-2.76,3.48-5.28,6.92-6.94,10.13-5.11,9.9-7.13,23.23-7.13,23.23h58.81s-2.78-10.97-4.9-20.88c-2.13-9.91-3.09-21.85-2.77-23.55.2-1.05.96-2.83,1.51-4.04.02-.03.03-.05.03-.05.34-.73.59-1.24.59-1.24v.02c.19.57,3.09,9.5,6.6,10.64,0,0,14.92-3.95,25.78-8.43,10.87-4.47,16.2-7.55,16.2-7.55,0,0,12.47-.96,14.81-1.5,2.34-.53,5.65-2.45,6.07-3.41s-1.18-1.6-1.18-1.6c0,0,5.76-2.66,5.87-3.83.09-1.01-2.58-.41-3.26-.26ZM557.8,89.76c.58-4.77.56-9.87.19-12.27-.53-3.52,4.16-1.38,4.16-1.38,0,0-2.46,3.19.64,4.36,0,0-2.56,4.15-4.99,9.29Z"/>
          <path class="cls-19" d="M696.09,184.26c.32.34,5.48,5.87,7.65,10.21,2.23,4.47,7.89,10.44,11.29,9.8,3.41-.64,12.36-30.9,14.49-40.06s3.3-13.31,3.08-14.39c-.2-1.06-13.62-14.38-16.5-15.02-2.22-.5-8.74,1.93-11.62,3.52-.03-.49-.09-.99-.21-1.49,0,0-7.35-.75-8.84-8.95-1.5-8.2-.11-13.96-3.74-24.72-3.61-10.75-14.9-20.78-20.87-20.66h0c-.17.07-1.89.68-4.42,1.42-.39.11-.79.23-1.22.35-2.1.59-4.6,1.22-7.2,1.71l-.81.15c-.07.01-.14.02-.21.04-.23.04-.46.07-.7.11-.27.05-.54.09-.8.12-.52.08-1.04.15-1.55.21-.55.06-1.09.11-1.62.15-8.53.64-14.28-.43-17.26,1.7h0c-.74.54-1.68,1.17-2.65,1.92-.49.38-.99.79-1.48,1.24-.48.44-.95.91-1.4,1.42-.13.15-.27.31-.4.47-.09.1-.17.21-.26.32-.19.25-.38.51-.56.78-.15.22-.3.46-.44.7-.05.08-.09.16-.14.24-.08.14-.16.3-.24.46-.41.8-.74,1.66-.98,2.61-.03.13-.07.28-.09.42-.02.08-.04.17-.06.26-.03.15-.05.3-.08.45,0,.06-.02.12-.02.18-.03.18-.05.37-.07.56-.02.22-.04.45-.05.68,0,.24-.02.47-.02.71s0,.48.01.7c0,.18.02.34.03.51.01.18.02.36.04.54,0,.18.03.35.06.51.02.16.04.31.07.46.05.29.11.57.18.82.04.12.07.25.11.36h0c.06.19.13.36.19.52.06.14.12.26.19.37.08.16.17.3.26.43.08.12.16.22.24.3s.17.16.25.23h0c.13.12.26.21.4.28.08.05.17.08.25.12.09.03.17.06.26.08l.12.03c.35.07.66.05.87.01.04-.01.07-.02.11-.02.06-.02.11-.03.15-.04.03-.01.05-.02.05-.02,0,0,3.41,9.91,8.09,10.87,4.69.95,4.79-2.56,4.79-2.56,0,0,.13.22.34.61.25.52.62,1.36.96,2.46,0,0,.03.13.1.36.03.1.06.21.09.33.03.06.05.13.06.2.27,1.03.49,2.24.59,3.59.29,4.18,1.65,8.62,5.19,11.06.35.25.71.47,1.1.67,0,0-.66.35-1.35,1.17,0,0,0,.01-.01.02-.81.98-1.65,2.62-1.42,5.1.03.23.05.45.12.65.97,3.96,7.13,4.35,7.13,4.35,0,0-6.5,6.04-10.02,8.29-1.71,1.1-3.03,1.74-4.03,2.28h0c-1.03.57-1.74,1.02-2.2,1.79-.9,1.5-1.76,18.32-1.33,27.38,0,0-2.55,11.61-3.31,19.39-.51,5.4.3,10.95,1,14.41.01.07.02.14.04.21.23,1.13.44,2.01.58,2.58-.01.02,0,.03,0,.05.02.11.06.21.09.32.42,1.72,13.62,11.09,28.54,13.11l.58-1.27c-.07.31-.14.62-.21.9-.2.85-.39,1.62-.58,2.29-1.7,6.07-2.13,7.25-2.13,7.25h58.6s-3.55-6.32-7.82-12.35c-1.47-2.08-3.03-4.12-4.55-5.87-5.95-6.82-12.35-13.21-13.84-17.16-1.5-3.94.96-26.31.96-26.31l.02.02ZM697.15,150.35c.39-.28,6.11-4.36,7.18-9.85h0c.02-.15.05-.28.06-.41,1.58.26,4.28.06,6.06-1.02,0,0-.86,1.92-.96,2.88s.1,1.48.96,2.12,6.07,2.03,6.07,2.03c0,0,.59-3.69-2.34-2.67l2.93-1.02s-.05,1.46,1.33,5.18c1.38,3.73,7.67,4.15,7.67,4.15,0,0-1.28,7.89-3.41,12.47-2.13,4.59-10.33,12.14-11.07,15.77,0,0-3.52-2.99-6.19-10.12-2.66-7.14-5-15.45-8.31-19.5h.02ZM666.51,230.57c-1.7-.89-5.04-2.86-7.84-5.74-3.94-4.05-12.36-10.01-12.36-10.01,0,0,.22-18.54,4.47-26.21.04.07.08.13.13.21.05.09.1.18.17.26,1.39,2.18,7.26,11.45,12.39,19.67,3.95,6.33,3.97,14.99,3.04,21.82Z"/>
          <path class="cls-32" d="M104.18,245.93h-19.34s-5.28-12.47-5.75-15.34c-.48-2.88-.48-9.03-.56-14.46-.08-5.44-7.28-25.74-7.28-25.74l-1.59,2.16s-.01.03-.03.1c-.01.04-.03.1-.05.16-.66,2.21-5.22,17.83-4.55,25.31.69,7.82,5.88,26.59,6.2,27.75,0,.04.02.06.02.06H16.68c-.8-5.91-1.51-25.72-1.51-25.72-5.52-6-9.67-13.59-9.67-13.59-5.11-19.35-3.19-52.59-3.19-52.59-.02-.01-.02-.04-.03-.05-.33-.68-3.63-7.62-1.66-9.45,2.08-1.91,5.43-1.44,5.43-1.44,10.32-5.75,19.27-13.35,19.27-13.35v-6.77s2.4-.55,5.98-1.04c5.68-.77,14.35-1.37,21.17.67.5.38,1.33,1.08,1.62,1.63.39.81.79,4.23.79,4.23,0,0,1.12,2.65,7.11,7.2,5.99,4.55,12.7,5.51,13.83,6.32,1.05.74.05,2.27-.08,2.45h-.01s.67.84,1.67,2.11c0,.01,0,.02.02.03,2.66,3.44,7.62,10.12,8.14,12.91.72,3.83,6,45.93,7.19,49.94.41,1.35,1.04,2.95,1.8,4.71,1.43,3.4,3.31,7.48,4.83,11.91,2.32,6.71,4.8,19.89,4.8,19.89Z"/>
          <path class="cls-52" d="M62.06,78.53c-.28-1.5-1.51-3.76-1.66-4.04.26,1.6.27,4.91.21,7.94,0,0,.83,1.58.69,5.84-.08,2.52-.5,6-1.63,10.64-3.03,12.46-16.45,18.21-16.45,18.21-4.64-.16-15.73-5.46-19.82-12.31-1.9-3.19-4.78-9.57-7.3-15.49-.01-.04-.04-.08-.05-.12-1.39-4.09-3.05-9.65-2.72-11.95.56-3.84,3.91-6.23,3.91-6.23,0,0,0-.01-.01-.02,0-.03-.02-.08-.04-.16t0-.02c-.02-.11-.05-.26-.09-.44,0-.01,0-.02-.01-.03-.26-1.25-.67-3.95.16-5.57.52-1.01,3.43-6.82,14.95-11.75,12.38-5.28,21.09-6.14,21.65-4.7.55,1.43-4.23,5.11-4.23,5.11,5.98-.71,8.86,2,9.42,4.31.57,2.32-4.08,2.41-4.08,2.41,8.39,7.58,7.45,19.97,7.11,18.37Z"/>
          <path class="cls-55" d="M104.18,245.93h-19.33s-5.28-12.47-5.75-15.34c-.49-2.88-.49-9.03-.56-14.46-.08-5.43-7.27-25.74-7.27-25.74l-1.6,2.16s-5.34,17.5-4.63,25.57c.72,8.07,6.23,27.81,6.23,27.81H16.68c-.79-5.91-1.51-25.72-1.51-25.72-5.52-6-9.67-13.59-9.67-13.59-5.11-19.34-3.2-52.58-3.2-52.58.95,2.15,6.76,9.44,6.76,9.44,0,0,8.73,23.97,16.25,26.42,12.46,4.06,27.67-7.67,27.67-7.67-7.95,2.6-21.06,4.44-22.65,4.65,13.82-2.4,31.94-12.96,31.94-12.96-.7-25.57,13.55-31.94,13.55-31.94,2.37.86.12,2.34-.08,2.45h-.01c-7.91,3.15-11.05,22.65-11.05,22.65,0,0,14.06,34.74,21.09,41.55,2.6,2.52,5.78,4.28,8.77,5.5,1.43,3.4,3.31,7.48,4.83,11.9,2.31,6.71,4.79,19.89,4.79,19.89Z"/>
          <path class="cls-16" d="M15.17,220.2c-5.52-6-9.67-13.59-9.67-13.59-5.11-19.34-3.2-52.58-3.2-52.58,0,0,7.42,11.7,10.7,21.48,3.29,9.77,2.16,44.7,2.16,44.7Z"/>
          <path class="cls-53" d="M54.88,128.46s-.28-.1-.79-.26c-3.19-.98-15.56-4.11-28.77,1.54v-6.77s2.4-.55,5.98-1.04c2.28-.31,5.04-.59,7.97-.68.33-.02.66-.03.99-.02,3.42-.07,7.02.15,10.32.89.04.01.06.01.06.01.62.13,1.23.29,1.83.47,1.56.37,3.01.37,3.29.92.39.8-.88,4.94-.88,4.94Z"/>
          <path class="cls-30" d="M176.9,117.12c-4.27,11.83-16.39,15.34-16.39,15.34-.28,0-9.98-.05-18.37-6.99-8.53-7.04-10.7-21.45-10.7-21.45h-.01c-.2-.42-3.81-7.33-3.35-11.83.47-4.64,4.64-6.87,4.64-6.87,0,0-2.4-.77-3.04-2.39-.09-.2-.14-.42-.15-.65-.09-1.05.89-.74,1.89-.2.97.55,1.94,1.33,1.94,1.33,0,0-.26-.88-.37-2.1-.12-1.16-.1-2.66.37-3.99.95-2.71,9.42-8.95,21.73-10.38,12.3-1.43,20.93,10.23,20.12,12.47-.74,2.1-3.03-1.7-3.32-2.19.2.6,2.52,7.22,4.01,14.51.03.1.04.2.06.32.03.11.05.26.08.41.13.72.38,1.78.69,3.08,1.18,5.01,2.98,13.76.17,21.58Z"/>
          <path class="cls-51" d="M219.8,219.23l-1.13,1.61-17.09.79-3.51-.31-.06-.2c-.1-.43-.42-1.59-.99-3.27l-.03-.06c-.59-1.67-1.44-3.81-2.61-6.23,0,0-2.69,20.43-1.99,33.19l-.68,1.18h-56.77s-9.11-45.71-11.66-73.36c0,0-.03-.07-.09-.18-.04-.07-.08-.16-.13-.27-.18-.35-.44-.9-.76-1.57-.09-.19-.19-.4-.29-.62-.19-.41-.38-.84-.59-1.31-.07-.17-.14-.32-.22-.49-.15-.33-.3-.66-.44-1.02-.16-.35-.31-.72-.46-1.09-.4-.94-.8-1.95-1.18-2.99-.1-.28-.2-.56-.31-.86-.14-.38-.28-.76-.41-1.16-.12-.38-.25-.78-.38-1.16v-.03c-.11-.36-.22-.7-.32-1.05-.05-3.09-.14-5.93-.33-8.09-.82-9.58,7.56-27.19,7.81-27.71h0s1.28-1.2,2.56-.01c.15.16.28.31.4.48.1.16.18.34.24.51.36,1.05,0,2.12,0,2.12l8.83,9.17,3.8,3.93h4.31l-.06-.15s-.04-.11-.07-.19c-.02-.05-.04-.1-.05-.17-.11-.36-.26-.85-.34-1.39-.04-.18-.07-.36-.08-.53,0-.08,0-.17,0-.26-.06-.95.14-1.87.93-2.27.48-.23.98-.33,1.47-.34.97.36,1.94.61,2.85.68,2.94.22,12.67,2.21,18.59,3.46h.02s.04.02.07.03c2.74.57,4.64.98,4.64.98,0,0,4.96,2.22,7.2,5.42,2.23,3.2,2.23,4.48,2.23,4.48,0,0,10.23,8.79,18.22,12.14,0,0,9.12,7.2,12.79,17.26,0,0,3.67,14.4,2.72,28.93,0,0,1.59,7.2,3.35,11.98Z"/>
          <path class="cls-24" d="M219.8,219.23l-1.12,1.61s-10.55,1.6-16.97,1.16c-1.51-.1-2.79-.32-3.64-.69l-.05-.19-1-3.27-.03-.06s15.03,1.61,21.75-.95l1.06,2.39Z"/>
          <path class="cls-26" d="M128.39,123.95v2.12c-5.05,6.15-10.23,33.04-10.37,33.75-.12-.36-.22-.7-.32-1.05-.05-3.09-.14-5.93-.33-8.09-.83-9.72,7.82-27.72,7.82-27.72,0,0,1.28-1.19,2.56,0,.32.29.51.64.64.98Z"/>
          <path class="cls-25" d="M182.73,148.92c-16.59-11.4-37.4-9.74-37.4-9.74l-.06-.15c-.27-.74-1.3-3.95.38-4.81.49-.23.98-.33,1.47-.35.97.36,1.94.61,2.85.68,4.32.33,23.32,4.47,23.32,4.47,0,0,4.96,2.22,7.2,5.42,2.24,3.2,2.24,4.47,2.24,4.47Z"/>
          <path class="cls-2" d="M227.96,245.93h-20.94s-2.17-14.93-5.31-23.92c-1.51-.1-2.79-.32-3.64-.69l-.05-.19-1-3.27-.03-.06c-.59-1.66-1.44-3.81-2.61-6.23,0,0-2.7,20.43-1.99,33.19.03.4.05.79.08,1.18h-57.53s-9.1-45.71-11.66-73.36c0,0-.03-.06-.09-.18-.04-.06-.08-.15-.13-.27-.18-.35-.43-.89-.75-1.57-.09-.19-.19-.4-.29-.61-.19-.41-.38-.84-.59-1.32-.08-.17-.14-.32-.22-.49-.15-.33-.31-.66-.45-1.02-.15-.35-.31-.72-.46-1.09-.4-.95-.79-1.96-1.18-2.99-.1-.28-.2-.56-.31-.86-.14-.38-.28-.77-.41-1.16-.13-.38-.26-.78-.38-1.16v-.03c8.66-20.43,19.2-24.58,19.2-24.58l3.8,3.94c-8.95,4.63-10.07,35.38-10.07,35.38,13.36,16.71,40.89,26.12,41.74,26.4-14.27-8.6-31.81-28.13-32.36-28.74,15.14,14.27,43.89,23.43,49,15.97,4.4-6.41,9.81-21.82,11.25-26.04-1.8,5.56,1.75,17.02,7.81,24.98,6.8,8.95,8.05,20.14,8.05,20.14,0,0,1.59,7.2,3.35,11.98l-1.12,1.61s6.72,19.18,9.28,25.08Z"/>
          <path class="cls-37" d="M104.18,23.79l-6.79,4.16v-4.63s6.07-1.13,6.79.47Z"/>
          <path class="cls-39" d="M95.95,42.8s2.68,12.93,5.06,20.29l-.08.29s-9.58-16.13-12.62-13.58c-1.06.88-1.69,3.59-2.05,6.74-.49-4.63-.81-8.07-.86-8.85-.03-.41-.28-1.16-.69-2.15,1.16-.46,8.72-3.45,12.54-5.65,4.15-2.4,8.68-10.45,8.68-10.45l.1.06c-.6,2.71-2.98,7.57-4.35,9.45-1.59,2.25-5.75,3.84-5.75,3.84Z"/>
          <path class="cls-38" d="M117.22,150.41c-1.47-2.65-13.36-24.23-16.95-36.96-.98-3.48-1.96-6.23-2.91-8.59,3.25,6.64,7.66,14.98,10.74,18.1,5.45,5.5,15.92-1.75,15.92-1.75l1.19,1.75s-8.64,16.97-7.98,27.45Z"/>
          <path class="cls-36" d="M61.3,88.27c-.08,2.52-.5,6-1.62,10.64-3.03,12.47-16.45,18.22-16.45,18.22-4.64-.17-15.73-5.46-19.82-12.31-1.9-3.2-4.78-9.58-7.3-15.49-.01-.04-.04-.08-.05-.12-1.39-4.09-3.06-9.65-2.72-11.95,0,0,3.53,14.61,11.99,22.4l-3.23-12.81c.29.75,2.79,7.04,9.78,14.63,0,0,10.23.86,15.56-6.81,0,0-.22,2.34-5.33,7.67,0,0,10.85-4.62,13.74-12.54,2.88-7.91,4.55-15.32,4.55-15.32.27,1.59.28,4.92.22,7.96,0,0,.83,1.59.69,5.84Z"/>
          <path class="cls-3" d="M17.24,71.02s6.95-4.16,12.39-7.63c0,0-13.59-4.27-12.39,7.63Z"/>
          <path class="cls-41" d="M132.71,85.32s-2.4-.77-3.04-2.39l1.74-.86,1.57-.77s8.51-3.99,13.95-2.22c0,0-13.21,3.29-14.22,6.24Z"/>
          <path class="cls-40" d="M176.9,117.12c-4.27,11.83-16.39,15.34-16.39,15.34-.28,0-9.98-.05-18.37-6.99-8.53-7.04-10.7-21.45-10.7-21.45h-.01c-.2-.42-3.81-7.33-3.35-11.83.47-4.64,4.64-6.87,4.64-6.87,0,0-3.03,4.83,0,14.32,3.03,9.49,11.99,19.39,11.99,19.39,0,0-2.89-7.9-3.85-14.18,0,0,5.43,8.74,14.7,12.26,0,0,3.84-13.58,3.2-21.32,0,0,2.56,10.14,1.11,18.13,0,0,4.17-6.56,5.11-10.39,0,0,.81,5.56.01,9.88.35-.84,5.77-14.42,6.38-21.7,0,0,0,11.98-1.59,19.33,0,0,5.65-7.06,6.94-15.51,1.18,5.01,2.98,13.76.17,21.58Z"/>
          <path class="cls-31" d="M336.3,168.58c.49,9.74,4.17,38.35,4.17,38.35-3.2-1.13-11.03-11.02-11.03-11.02l.64,4.14c-5.59-5.91-9.42-12.3-9.42-12.3,0,0-.18,1.38-.2,3.16l-15.3-25.21v6.07c-6.71-16.62-8.95-33.34-8.95-33.34-1.38-7.67-5.22-25.36-5.22-25.36,0,0-3.84,14.06-3.09,16.52.42,1.38,1.51,3.43,2.38,4.95l-3.64-2.4-.22-.14-.12-.08h0s-.2-.69-.2-.69l-.03-.05-.61-1.99v-.03c-.41-5.4,4.14-27.05,4.14-27.05-2.34-2.34-2.66-9.05,2.77-15.12s12.78-7.15,12.78-7.15c0,0-4.47-10.65,2.45-15.12,6.92-4.47,11.83,3.73,11.83,3.73,0,0,2.76.1,4.04,3.84,1.28,3.72-1.48,8.31-1.48,8.31,9.88,3.64,18.96,15.61,19.28,19.28s-2.88,5.51-2.88,5.51c.72,4.76-.03,20.01-.2,23.4-.01.23-.03.45-.04.66-.28,6.25-.08,23.05-.08,23.05,1.6,10.28,2.24,33.84,2.24,33.84-1.28-3.04-4-17.75-4-17.75Z"/>
          <path class="cls-4" d="M259.82,122.48c-1.15-1.09-2.44-2.48-3.9-4.4-4.64-6.07-16.2-28.13-16.2-28.13-6.28-1.06-11.02-5.48-11.12-7.72,0,0,5.59,6.12,9.9,5.48,4.32-.64,6.14-2.45,6.14-2.45l.26.32,1.62,1.93.22.26s-1.99,3.15-1.67,6.34c.31,3.09,9.23,22.86,14.77,28.37Z"/>
          <path class="cls-11" d="M287.88,245.93s8.31-21.89,8.31-34.67-2.24-23.5-2.88-25.42c-.64-1.92-5.27-4.15-6.07-10.07-.75-5.56,1.04-18.05,1.27-19.51.01-.09.01-.14.01-.14-1.29-3.63-6.43-10.14-11.52-16.04,3.39,3.4,7.44,6.9,10.79,7.98,7.12,2.31,6.1-11.05,6.1-11.05l.37.23.59.37,1.34.83,3.5,4.6,4.49,5.88.96,16.79,8.21,6.71,10.01,14.7,2.05,7.47s-2.02-.66-4.87-1.01c-2.98-.37-6.85-.4-10.28,1.01-6.71,2.76-7.99,15.8-7.03,27.5.96,11.7,35.99,17.54,46.43,13.99l.08.09c3.68,5.61,5.59,9.77,5.59,9.77h-67.44Z"/>
          <path class="cls-48" d="M342.38,76.04s-.79,12.13-.01,19.09c-.03-.22-.05-.42-.08-.63-.96-7.5-2.63-17.98-3.67-19.57l3.76,1.11Z"/>
          <path class="cls-46" d="M342.52,96.36v-.03c-.01-.13-.03-.27-.05-.4.03.17.05.33.08.5l-.03-.08Z"/>
          <path class="cls-49" d="M339.9,129.59c-3.06,4.24,1.38,17.94,1.56,18.45h0s-3.4,4.45-3.4,4.45l.08-23.05s.04-.04.1-.13c4.4-4.55,9.45-12.31,10.53-14.01.08-.12.15-.23.23-.33,0,0,3.76,1.2,6.32,1.2,0,0-12.3,9.1-15.42,13.42Z"/>
          <path class="cls-50" d="M293.39,85.89s-4.87,6.62-2.48,12.85c0,0,5.91,1.76,12.62-1.12,6.71-2.88,7.99-11.73,7.99-11.73,0,0-1.92,10.77-8.79,16.68,0,0,12.47-4.15,13.9-11.99,0,0,.91,7.66-3.3,14.22,0,0,11.13-.95,12.57-6.7,1.44-5.75-7.67-17.42-7.67-17.42,0,0,10.07,9.76,10.87,15.75.8,5.99-3.04,8.38-3.04,8.38,0,0,6.23.81,9.59-2.23,3.36-3.04-.97-12.91-.97-12.91,0,0,7.04,7.39,6.56,10.2-.48,2.81-.96,4.31-2.88,5.51l-4.31,20.38s-1.12-13.9-1.92-16.46c-.8-2.56,4.15,59.29,4.15,59.29,0,0-4.31-51.94-9.42-60.57,0,0-7.03,14.54-4.15,38.51,2.88,23.97,6.71,49.39,6.71,49.39,0,0-8.63-48.91-11.03-64.73s-9.59-24.29-9.59-24.29c0,0-.8,11.19.48,17.1,0,0-4.63-7.99-6.23-15.66,0,0-9.06,4.97-9.13,18.7l-2.96-13.97s1.29-8.25,1.01-9.85l-2.41-1.12s-5.38-7.16,3.81-16.21Z"/>
          <path class="cls-45" d="M305.37,66.83s-.87,8.48,4.25,11.81c5.11,3.33,9.81-10.2,9.81-10.2,0,0-.86,4.9-1.02,8.57s5.07-.14,5.07-.14l-1.49,3.72s-13.32,5.58-16.84-.75c0,0-3.38-7.83.23-13Z"/>
          <path class="cls-28" d="M448.49,83.71c.64,4.47-4,18.23-4,18.23,0,0,.27-.01.65.03-.79,1.21-1.65,2.58-2.57,4.1-.08.12-.18.27-.28.43-.87,1.44-1.82,3.03-2.81,4.76-8.51,14.7-22.37,15.98-22.37,15.98-4.07-1.92-8.31-6.83-8.31-6.83h-2.34c-5.69-7.27-8.82-19.78-10.52-29.84h0c-.35-3.94-1.16-14.68.14-17.4,1.59-3.36,6.7-4.96,6.7-4.96,0,0,1.76-6.39,7.52-8.8,5.75-2.39,9.59,1.92,13.91,1.13,4.31-.79,6.23-5.43,6.23-5.43.96,3.03.32,7.2.32,7.2,6.71-2.4,10.71.47,12.78,8.78,2.07,8.31,8.63,8.31,8.63,8.31-1.11,4.47-3.67,4.31-3.67,4.31Z"/>
          <path class="cls-47" d="M584.63,188.93l-.2-.05c-2.2-.65-6.62-6.88-7.5-8.14,0,0,4.61-4.92,4.19-7.04-.42-2.12-5.36-8.31-5.36-8.31l-1.96-21.12c1.28,3.61,3.59,14.86,5.83,19.42,2.44,5,5.22,10.43,5.22,10.43-2.39,5.01-.22,14.82-.22,14.82Z"/>
          <path class="cls-35" d="M478.85,226.75c-6.06,8.16-30.35,10.23-30.35,10.23v8.92l-.05.03h-65.48l.17-6.88c-21.36-8.94-26.02-18.47-26.86-20.74l-.15-.51c-3.2-16.3,4.64-58.81,4.64-58.81,3.67-4.79,9.12-7.18,9.12-7.18,8.67-2.95,16.29-6.94,16.75-7.18h.03s-1.6-9.13-1.6-9.13c6.71-8.78,15.81-9.42,15.81-9.42l.03-.05c7.68-1.11,17.26-.73,28.31,3.32,10.79,6.24,17.39,12.07,17.39,12.07l-2.4,6.64c15.83,6.3,24.14,15.42,24.14,15.42,7.34,19.33,10.53,63.28,10.53,63.28Z"/>
          <path class="cls-18" d="M478.85,226.75c-6.06,8.16-30.35,10.23-30.35,10.23l3.67-41.06s2.02-23.07,16.15-32.45c7.34,19.33,10.53,63.28,10.53,63.28Z"/>
          <path class="cls-20" d="M383.13,239.05c-24.46-10.23-27.01-21.25-27.01-21.25-3.2-16.3,4.64-58.81,4.64-58.81,0,0,8.48,8.1,15.02,25.14l7.35,54.91Z"/>
          <path class="cls-7" d="M385.04,135.49s34.99-2.86,59.13,12.55c0,0-37.77-6.29-57.56-3.43l-1.57-9.13Z"/>
          <path class="cls-8" d="M478.85,226.75c-6.06,8.16-30.35,10.23-30.35,10.23v8.92l-.05.03h-65.48l.17-6.88c-21.36-8.94-26.02-18.47-26.86-20.74l-.15-.51s10.39,6.97,20.3,4.28l-3.84-5.24,7.93,2.62-4.73-35.32s-11.49-18.41-15.01-25.13c.45.54,14.89,17.92,47.93,20.12,32.5,2.16,57.97-14.55,59.54-15.61-1.07.84-14,11.31-15.76,30.01l1.93,19.16,7.03,4.15h-9.27s16.67,10.11,26.68,9.91Z"/>
          <path class="cls-27" d="M596.67,88.3s3.73-5.28,2.88-8.36c-.86-3.09-6.81-2.56-12.36-3.2-5.54-.64-6.71-2.77-9.47-3.09-2.77-.32-7.79,1.5-7.79,1.5,0,0,.64-3.31-1.7-3.09,0,0-3.73-8.09-10.33-7.45-6.61.64-10.23,9.37-10.34,10.65-.1,1.28,2.03,12.15,1.82,21.41-.2,8.91-4.35,15.06-4.67,15.53.04-.03.19-.1.42-.26l3.29-1.96s1.82,10.65,6.61,17.14c0,0,2.21-6.17,2.06-11.93,1.59,1.66,3.73,2.98,6.46,3.94,0,0,.75,2.03-.96,4.47.08-.01.15-.03.22-.04.05-.01.1-.01.15-.04,1.07-.2,1.97-.63,2.74-1.18,3.86-2.83,4.14-8.97,4.14-8.97-4.77-2.47-2.86-10.36.78-12.63.43-.28.88-.47,1.36-.58,6.17-1.28,5.96,7.25,5.96,7.25,0,0,7.03-8.95,7.67-10.99.6-1.94-2.42-1.37-2.74-1.32h-.03c.95-1.09,2.02-1.94,3.13-2.62,4.91-3.03,10.71-2.54,10.71-2.54,0,0,5.75-2.34,5.75-3.3s-5.75,1.65-5.75,1.65ZM561.2,83.19c-.12.2-.24.43-.37.65-.01.01-.03.03-.03.04-.88,1.6-1.96,3.64-3,5.88.58-4.77.56-9.87.19-12.27-.54-3.52,4.15-1.38,4.15-1.38h-.01v.03s-.09.1-.13.18c-.27.4-.78,1.29-.78,2.2,0,.05,0,.12.01.18.05.69.43,1.37,1.55,1.78,0,0-.7,1.18-1.59,2.72Z"/>
          <path class="cls-33" d="M581.11,173.69c-.41,2.92-2.06,5.43-4.19,7.04-1.48,1.11-2.84,1.8-3.02,1.89-.01.01-.03.01-.03.01l-3.41-16.62s0-19.82-4.69-23.01c-4.68-3.2-12.15.32-15.12,7.52-2.98,7.19-3.41,24.66,0,30.62,3.41,5.97,10.42,0,10.42,0l4.18,15.02s-1.82,3.63-2.13,5.33c-.32,1.7.64,13.64,2.77,23.55,2.12,9.91,4.9,20.88,4.9,20.88h-58.81s2.02-13.32,7.13-23.23c5.11-9.91,18.33-21.84,22.27-31,3.94-9.15,3.3-32.92,5.54-41.17,2.24-8.26,11.51-17.53,11.51-17.53,0,0,9.06,5.96,11.19,12.35,2.13,6.39,3.95,13.65,3.95,13.65l1.38,1.9s-2.28-19.34-4.26-23.33c0,0,2.1,4.08,2.76,5.86.66,1.78,2.45,16.2,3.25,20.03.8,3.84,4.78,7.67,4.42,10.23Z"/>
          <path class="cls-9" d="M578.45,129.9s-7.98-4.77-12.22-7.99l-2.02,5.22,7.75,6.59s1.94-5.65,6.49-3.82Z"/>
          <path class="cls-6" d="M570.78,245.93h-58.81s2.02-13.32,7.13-23.23c1.66-3.21,4.18-6.65,6.94-10.13,7.11,1.09,18.67,1.9,24.6-2.76,8.95-7.03,5.11-29.4,5.11-29.4l-1.12-18.37,3.17,2.17s4.65,25.43,7.44,31.96c0,0-1.82,3.63-2.13,5.33-.32,1.7.64,13.64,2.77,23.55,2.12,9.91,4.9,20.88,4.9,20.88Z"/>
          <path class="cls-15" d="M570.41,163.46s4.43,11.84,10.7,10.23c0,0,.01,5.75-7.24,8.95,0,0-3.33-16.31-3.47-19.18Z"/>
          <path class="cls-29" d="M704.36,138.38c0,.51,0,1.09-.02,1.7,0,.14,0,.27,0,.41h0c-1.07,5.5-6.79,9.58-7.18,9.86h-.02s-2.88-.63-2.88-.63c-1.16,6.93-6.6,10.65-8.09,12.89-1.5,2.24,3.62,5.87,3.94,10.76.32,4.9-9.16,7.99-9.16,7.99,2.66.64,1.28,3.84,1.28,3.84-.43-1.82-7.03-.74-6.51-3.62.54-2.88,5.65-2.13,5.65-4.69s-6.71.32-7.35-3.84c-.64-4.15,3.84-5.75,2.88-8.84-.96-3.09-17.58-.11-21.2-5.22-3.63-5.11,0-12.04,0-12.04,0,0-6.16-.39-7.13-4.35.28-.48.58-.97.9-1.48h0c1.05-1.69,2.23-3.51,3.03-5.36.16-.35.3-.71.43-1.06,1.92-5.43.96-10.56-1.13-12.79-2.07-2.23-6.39-3.51-8.95-7.03,0,0,.16.92.29,2.11-.21-.39-.34-.61-.34-.61,0,0-.1,3.51-4.79,2.56-4.68-.96-8.09-10.87-8.09-10.87,0,0-.02.01-.05.02-.04,0-.09.02-.15.04-.04,0-.07.01-.11.02-.21.04-.52.06-.87-.01l-.12-.03c-.09-.02-.17-.05-.26-.08-.08-.04-.17-.07-.25-.12-.14-.07-.27-.16-.4-.27h0c-.08-.08-.17-.16-.25-.24s-.16-.18-.24-.3c-.09-.13-.18-.27-.26-.43-.07-.11-.13-.23-.19-.37-.06-.16-.13-.33-.19-.51h0c-.04-.12-.07-.25-.11-.37-.07-.25-.13-.53-.18-.82-.03-.15-.05-.3-.07-.46-.03-.16-.05-.33-.06-.51-.02-.18-.03-.36-.04-.54,0-.17-.02-.33-.03-.51-.01-.22-.01-.46-.01-.7s.01-.47.02-.71c.01-.23.03-.46.05-.68.02-.19.04-.38.07-.56,0-.06.01-.12.02-.18.03-.15.05-.3.08-.45.02-.09.04-.18.06-.26.02-.14.06-.29.09-.42.24-.95.57-1.81.98-2.61.08-.16.16-.32.24-.46.05-.08.09-.16.14-.24.14-.24.29-.48.44-.7.18-.27.37-.53.56-.78.09-.11.17-.22.26-.32.13-.16.27-.32.4-.47.45-.51.92-.98,1.4-1.42.49-.45.99-.86,1.48-1.24.97-.75,1.91-1.38,2.65-1.91h0c2.98-2.14,8.73-1.07,17.26-1.71.53-.04,1.07-.09,1.62-.15.51-.06,1.03-.13,1.55-.21.26-.03.53-.07.8-.12.24-.04.47-.07.7-.11.07-.02.14-.03.21-.04l.81-.15c2.6-.49,5.1-1.12,7.2-1.71.42-.11.83-.23,1.22-.35,2.53-.74,4.25-1.35,4.42-1.41h0c5.97-.13,17.26,9.9,20.87,20.65,3.63,10.76,2.24,16.52,3.74,24.72,1.49,8.2,8.84,8.95,8.84,8.95.06.35.09.89.09,1.55Z"/>
          <path class="cls-34" d="M713.51,233.58c-32.42-9.79-45.77.68-48.07,2.81-.26.24-.37.37-.37.37l1.44-6.19c.93-6.83.91-15.49-3.04-21.82-5.13-8.22-10.99-17.49-12.39-19.66-.06-.09-.12-.18-.17-.27-.05-.08-.09-.14-.13-.2-2.51-3.96-9.14-31.08-9.14-31.08h0c.66-3.49,4.03-2.29,4.03-2.29.84,12.66,7.03,30.38,13.86,33.37,6.81,2.99,22.16,5.54,28.13-5.97,5.96-11.51,6.6-32.92,6.6-32.92l2.88.64c-2.67,12.68-1.06,33.88-1.06,33.88,0,0-2.45,22.37-.96,26.31,1.5,3.95,7.89,10.34,13.85,17.16,1.52,1.75,3.08,3.8,4.55,5.87Z"/>
          <path class="cls-54" d="M721.32,245.93h-58.59s.59-3.91,1.57-7.17c.38-1.29.84-2.47,1.34-3.26,1.76-2.77,12.21-6.61,21.9-6.72,9.7-.1,23.04,2.47,25.97,4.81.86.68,1.7,1.64,2.49,2.72,2.95,3.98,5.32,9.63,5.32,9.63Z"/>
          <path class="cls-13" d="M442.29,106.51c-.87,1.44-1.82,3.03-2.81,4.76-8.51,14.7-22.37,15.98-22.37,15.98-4.07-1.92-8.31-6.83-8.31-6.83h-2.34c-5.69-7.27-8.82-19.78-10.52-29.84h0c-.35-3.94-1.16-14.68.14-17.4,0,0,2.39,19.75,5.37,25.51,2.91,5.61,10.69,9.81,11.07,10.01-.11-.31-2.06-5.24-3.5-9.47-1.5-4.37-.54-8.04-.54-8.04,0,0,.43,3.67,2.45,7.94,2.02,4.26,6.16,7.03,6.16,7.03,0,0,4.38-2.99,7.36-8.43,0,0-.42,10.02-2.24,14.38,0,0,8.74-6.6,12.68-12.67,3.69-5.69,4.96-8.86,5.1-9.23-.18.69-2.83,10.46-4.46,14.77-1.65,4.33-5.89,9.64-6.16,9.97.29-.11,10.1-3.96,12.91-8.44Z"/>
          <path class="cls-14" d="M568.22,72.05s-5.62,2.34-7.93,3.41l1.85.64s3.2-2.53,6.07-4.05Z"/>
          <path class="cls-10" d="M585.96,92.5l-3.11,2.62h-.03c-7.84-1.47-14.19-8.08-14.59-8.49,2.25,5.47,8.82,10.8,9.23,11.14-7.17-2.97-12.68-14.05-12.68-14.05,0,0-.23,7.2,3.44,13.67.66,1.18,1.48,2.3,2.38,3.38-3.64,2.28-5.55,10.16-.78,12.63,0,0-.28,6.15-4.14,8.97-.77.55-1.66.97-2.74,1.18-.05.03-.1.03-.15.04-.06.01-.14.03-.22.04,1.71-2.44.96-4.47.96-4.47-2.72-.96-4.87-2.28-6.46-3.94.15,5.75-2.06,11.93-2.06,11.93-4.79-6.49-6.61-17.14-6.61-17.14l-3.29,1.96c1.18-.79,4.42-3.31,5.52-7.93,1.36-5.68.96-21.4.96-21.4,1.52,6.65,1.67,21.4,1.67,21.4,3.2-6.47,4.53-14.25,4.53-14.25.41-1.21,1.79-3.76,3-5.88,0-.01.01-.03.03-.04.13-.22.26-.45.37-.65.88-1.55,1.59-2.72,1.59-2.72-1.04-.5-1.44-1.14-1.55-1.78-.01-.06-.01-.13-.01-.18-.06-.92.49-1.82.78-2.2.04-.08.09-.14.13-.18-.08.28-.73,2.9,1.37,3.2,2.21.31,6.42-4.18,6.42-4.18,0,0-1.53,4.73,2.94,10.01,4.47,5.28,13.09,7.34,13.09,7.34Z"/>
          <path class="cls-12" d="M704.37,138.38c0,.51,0,1.09-.03,1.7,0,.14-.01.27-.01.41h0c-1.06,5.5-6.79,9.58-7.17,9.86h-.03s-2.88-.63-2.88-.63c-1.16,6.93-6.6,10.65-8.09,12.89s3.62,5.87,3.94,10.76-9.15,7.99-9.15,7.99c2.66.64,1.28,3.84,1.28,3.84-.43-1.82-7.03-.74-6.51-3.62.54-2.88,5.65-2.14,5.65-4.69s-6.71.32-7.35-3.84,3.84-5.75,2.88-8.85c-.96-3.08-17.58-.1-21.2-5.22-3.63-5.11,0-12.04,0-12.04,0,0-6.16-.38-7.13-4.35,1.37-2.37,3.39-5.14,4.36-7.9,1.92-5.43.96-10.56-1.12-12.78-2.07-2.24-6.39-3.52-8.95-7.03,0,0,.15.92.28,2.11-.2-.4-.33-.61-.33-.61,0,0-.1,3.52-4.79,2.56-4.68-.96-8.09-10.87-8.09-10.87,0,0-3.84,1.48-3.84-6.19s5.96-11.28,8.94-13.41c-.37.42-7.58,8.53-4.46,13.88l4.47-5.92s-2.66,13.32,2.56,16.63c5.22,3.31,8.73-4.26,8.73-4.26,0,0,5.64,13.27,18.91,13.67,0,0-8.02,3.8-8.55,12.81-.55,9,13.19,1.71,13.19,1.71,0,0,5.06,19.41,17.26,15.48,12.2-3.92,17.16-15.65,17.16-15.65.05.35.09.88.09,1.55Z"/>
          <path class="cls-44" d="M646.31,175.34l1.47,23.2s.66-6.52,3-9.93c0,0-2.99-7.84-4.47-13.27Z"/>
          <path class="cls-42" d="M716,236.3l-.32.46c-28.67-13.63-50.83,1.92-50.83,1.92l-.55.08c.38-1.29.84-2.47,1.34-3.26,1.76-2.77,12.21-6.61,21.9-6.72,9.7-.1,23.04,2.47,25.97,4.81.86.68,1.7,1.64,2.49,2.72Z"/>
          <path class="cls-43" d="M711.63,179.98s1.33,1.34,4.37,9.48c0,0,1.56-9.71-1.67-14.12,0,0-1.74,1.56-2.7,4.64Z"/>
          <path class="cls-5" d="M53.84,48.33c-2.57-.97-17.67,3.44-28.97,11.27-8.1,5.62-8.02,9.1-7.8,10.75-.26-1.25-.67-3.95.16-5.57.52-1.01,3.43-6.82,14.95-11.75,12.38-5.28,21.09-6.14,21.65-4.7Z"/>
          <path class="cls-5" d="M49.61,53.44l-3.03,1.36s7.92-.51,12.45,2.95c0,0-.56-5.16-9.42-4.31Z"/>
          <path class="cls-5" d="M54.96,60.15s5.05,7.07,7.11,18.37c0,0,2.69-9.19-7.11-18.37Z"/>
          <path class="cls-5" d="M61.3,88.27s1.33-.3,2.33,3.03-1.15,8.96-1.15,8.96c0,0,3.09-3.15,2.29-10.39-.4-3.57-3.46-1.6-3.46-1.6Z"/>
          <path class="cls-5" d="M76.21,142.47c-1.61-.12-7.11-.79-13.12-4.67-7.15-4.62-9-9.6-9-9.6v-3.97c-2.02-2.25-11.18-2.83-14.82-2.98-.92-.03-1.49-.04-1.49-.04.86-.01,1.69,0,2.48.02,5.74.11,9.8.8,10.32.89.04.01.06.01.06.01l2.24-10.44-.79,10.62s.15.12.38.29c1.56.37,3.01.37,3.29.92.39.8-.88,4.94-.88,4.94,0,0,1.12,2.65,7.11,7.2,5.99,4.55,12.7,5.51,13.83,6.32.2.14.32.31.39.49Z"/>
          <path class="cls-5" d="M104.18,245.93l-1.43.37c-.02-.12-.05-.24-.07-.37-1.54-7.47-9.78-26.91-11.14-33.2-1.37-6.4-5.62-42.26-6.82-49.6-1-6.11-5.76-14.08-7.3-16.56,2.66,3.44,7.62,10.12,8.14,12.91.72,3.83,6,45.93,7.19,49.94.41,1.35,1.04,2.95,1.8,4.71,1.43,3.4,3.31,7.48,4.83,11.91,2.32,6.71,4.8,19.89,4.8,19.89Z"/>
          <path class="cls-5" d="M71.23,245.87c-.48-1.27-9.14-24.18-8.96-28.07.18-3.84,6.82-23.57,7.36-25.15-.43,1.42-5.29,17.76-4.6,25.47.69,7.82,5.88,26.59,6.2,27.75Z"/>
          <path class="cls-5" d="M95.38.03s1.5,3.31.62,7.56,1.39,15.72,1.39,15.72c0,0-.66-13.22,0-15.22,0,0,1.57-8.06-2.01-8.06Z"/>
          <path class="cls-5" d="M89.08,19l-2.16-4.37s-.67-2.04-1.11-6.04-2.59-7.89-2.59-7.89h.01c.54-.12,1.05.01,1.37.4.81.96,2.88,5.27,2.88,10.23l1.6,7.67Z"/>
          <path class="cls-5" d="M175.21,79.41s-3.58-7.69-14.96-10.07c-11.38-2.38-26.9,7.98-26.9,7.98.95-2.71,9.42-8.95,21.73-10.38,12.3-1.43,20.93,10.23,20.13,12.47Z"/>
          <path class="cls-5" d="M172.33,78.52s5.8,23.13,6.07,28.95c0,0-1.83-20.73-6.07-28.95Z"/>
          <path class="cls-5" d="M180.37,108.04c-.02-1.29-.01-3.15.05-5.69.13-5.88-2.03-8.36-2.03-8.36l.36-.19c.52.08,1.11.39,1.74,1.11,1.66,1.9,1.29,9.61-.12,13.13Z"/>
          <path class="cls-5" d="M112.44,90.19c-.19-2.94-7.73-13.97-10.69-21.89-2.97-7.95-5.81-25.5-5.81-25.5,0,0,2.69,12.93,5.06,20.29.02.05.04.12.06.17,2.4,7.36,9.43,18.7,10.71,23.18.35,1.22.56,2.51.67,3.75Z"/>
          <path class="cls-5" d="M124,121.21l1.19,1.75h0s-.6,1.26-.6,1.26c-4.91-6.33-11.67-26.08-12.14-27.77.45,1.29,5.38,15.3,11.56,24.76Z"/>
          <path class="cls-5" d="M141.02,139.17l-13.68-11.53c-.41-4.01-2.15-4.68-2.15-4.68,0,0,1.28-1.19,2.56,0,.15.16.28.31.4.48.1.16.18.34.24.51.36,1.05,0,2.12,0,2.12l8.83,9.17,3.8,3.93Z"/>
          <path class="cls-5" d="M214.58,206.93s1.17-19.46-2.66-28.29c-3.84-8.84-11.94-14.75-11.94-14.75-13.05-6.23-20.61-17.07-20.61-17.07-2.15-5.97-10.28-8.64-10.79-8.8h-.01s4.17-1.23,4.17-1.23c.16.69.34,1.43.55,2.23,0,0,4.96,2.22,7.2,5.42,2.23,3.2,2.23,4.48,2.23,4.48,0,0,10.23,8.79,18.22,12.14,0,0,9.12,7.2,12.79,17.26,0,0,3.67,14.4,2.72,28.93,0,0,1.59,7.2,3.35,11.98l-5.22-12.3Z"/>
          <path class="cls-5" d="M194.09,213.3s-5.4,23.58-1.62,32.62c0,0-.08-14.6,1.62-32.62Z"/>
          <path class="cls-5" d="M218.68,220.84s4.35,20.92,6.63,25.02l2.65.06s-5.21-13.67-9.28-25.08Z"/>
          <path class="cls-5" d="M319.41,68.43c-.27-.22-5.64-4.62-10.83-1.94-5.31,2.76-4.16,9.65-4.16,9.65l-.39-.26c-.65-3.5-.63-8.47,3.56-11.18,6.75-4.36,11.59,3.34,11.82,3.73Z"/>
          <path class="cls-5" d="M241.83,75.28l-5.46-3.69s-2.87-3.37-6.24-8.22c-3.14-4.5-4.58-3.99-4.77-3.89l.59-.39c.5-.12,1.2.04,2.01.4,1.21.52,5.05,5.95,6.49,7.87,1.39,1.86,7.03,7.57,7.38,7.92Z"/>
          <path class="cls-5" d="M246.41,82.85c1.53-2.73-.41-4.63-2.2-8.88-1.8-4.25-.75-6.5-.75-6.5,0,.99.06,2.04.31,2.99.74,2.77,2.46,4.89,3.73,7.56.67,1.4-.15,3.32-1.09,4.83Z"/>
          <path class="cls-5" d="M286.31,131.66c1.08.99,2.05,1.7,2.76,2.17-2.62-1.58-8.8-5.47-10.53-8.08-2.22-3.35-7.46-13.68-12.41-16.86-4.73-3.03-18.08-19.47-19.32-21.01.49.54,1.06,1.19,1.76,1.97,3.41,3.84,15.23,13.31,18.21,16.19,2.98,2.87,5.86,8.95,6.29,10.02.43,1.06,6.18,10.33,10.55,13.84.78.63,1.69,1.32,2.66,2h0s.11.09.11.09c.08.06.15.11.22.15h0c-.11-.16-.21-.32-.3-.48Z"/>
          <path class="cls-5" d="M289.41,134.04c.35.2.61.35.74.43-.14-.07-.39-.21-.74-.43Z"/>
          <path class="cls-5" d="M348.99,114.95s-.03-.03-.05-.04c-.34-.32-2.25-1.02-3.97-6.48,0,0-.01-.02-.01-.03-1.22-3.63-1.9-8.01-2.44-12.04v-.03c-.01-.13-.03-.27-.05-.39-.04-.26-.07-.53-.1-.81-.03-.22-.05-.42-.08-.63-.82-6.41-2.16-15-3.18-18.35,1.01,2.64,3.36,9.22,4.52,16.44,1.5,9.37,3.06,20.48,5.36,22.36Z"/>
          <path class="cls-5" d="M338.38,105.37s-1.81,7.08-1.18,15.52,1.05,8.41,1.05,8.41c0,0,.51-16.78.14-23.93Z"/>
          <path class="cls-5" d="M290.98,113.07s7.28,15.95,5.22,25.36c0,0-5.37-24.32-5.22-25.36Z"/>
          <path class="cls-5" d="M290.26,134.53s-1.93-2.52-3.2-6.69c-1.27-4.17,3.92-14.78,3.92-14.78,0,0-4.1,12.68-.72,21.47Z"/>
          <path class="cls-5" d="M297.25,215.72c-.11,10.29-6.4,28.33-7.07,30.21-.03.11-.05.16-.05.16l-2.25-.16s8.31-21.89,8.31-34.68-2.24-23.49-2.88-25.41-5.27-4.16-6.07-10.08c-.43-3.12-.05-8.41.4-12.72v-.12s.84-6.53.84-6.53v-.03c-.12,1.35-1.39,14.76.43,20.47,1.93,6.03,4.98,8.14,4.98,8.14,0,0,3.48,19.88,3.36,30.75Z"/>
          <path class="cls-5" d="M336.3,168.58s-1.37,25.94,4.17,38.35c0,0-3.53-30.29-4.17-38.35Z"/>
          <path class="cls-5" d="M355.32,245.93l-2.95.16s-.03-.06-.09-.16c-.9-1.59-8.37-14.66-17.28-25.09-8.46-9.91-13-21.94-13.89-24.46,1.55,3.98,10.01,18.02,19.35,27.96,3.77,4.02,6.85,8.16,9.19,11.73l.08.09c3.45,5.26,5.34,9.24,5.57,9.72.01.03.02.05.02.05Z"/>
          <path class="cls-5" d="M362.35,117.76c-1.33,4.21-14.44,21.79-20.83,30.19,1.13-1.59,18.32-25.52,19.23-30.61.82-4.6-3.15-15.58-3.66-17,3.41,7.94,6.01,15.05,5.26,17.42Z"/>
          <path class="cls-5" d="M407.06,61.47c.22-.19.44-.38.68-.56-.27.3-.49.48-.68.56Z"/>
          <path class="cls-5" d="M430.43,55.11s-.82,6.19-6.67,7.03c-5.08.72-11.06-3.38-14.6-2.16.36-.21.73-.39,1.13-.56,5.75-2.39,9.59,1.92,13.91,1.13,4.31-.79,6.23-5.44,6.23-5.44Z"/>
          <path class="cls-5" d="M452.16,79.41s-4.08,1.06-6.58-1.44-2.35-7.99-6-12.17c-3.64-4.17-11.36-1.24-11.36-1.24l2.53-2.25c6.71-2.4,10.71.48,12.78,8.79,2.07,8.31,8.63,8.31,8.63,8.31Z"/>
          <path class="cls-5" d="M402.48,68.33c-.82.37-3.16,1.91-4.9,7.78-2.13,7.22-.92,18.43-.92,18.43l-1.02-2.65-.07-.2-.08-.2c.27.2.46.4.54.5l.04.03s-.05-.53-.14-1.44h0c-.34-3.94-1.16-14.68.14-17.4,1.36-2.88,5.31-4.47,6.41-4.85Z"/>
          <path class="cls-5" d="M447.85,106.73c-1.82,4.47-6.69,6.87-7.88,7.4l-.25.1c.33-.23,5.75-4.03,6.7-7.76.97-3.85-1.93-4.53-1.93-4.53,0,0,.27-.01.65.03,1.38.09,4.32.77,2.71,4.76Z"/>
          <path class="cls-5" d="M395.96,91.95c-.07-.03-.18-.07-.32-.06-.51.02-1.42.64-2.22,4.05-1.19,5.03,1.25,10.82,1.37,11.11-1.92-1.31-4.8-12.62-2.72-15.03.91-1.04,1.79-1.18,2.49-.99l1.01.66.39.26Z"/>
          <path class="cls-5" d="M478.84,226.75c-2.21-13.95-12.27-61.79-12.27-61.79-6.01-7.41-24.28-16.18-24.28-16.18l1.88-7.65c-.08-2.01-11.33-9.59-11.33-9.59h.04s0,.02,0,.02c8.57,5.33,13.68,9.85,13.68,9.85l-2.4,6.64c15.83,6.3,24.14,15.41,24.14,15.41,7.34,19.33,10.53,63.29,10.53,63.29Z"/>
          <path class="cls-5" d="M387.56,135.36l2.16,8.9s-24.67,9.91-27.24,14.74c0,0-7.05,50.85-5.64,60.58-.58-1.13-.73-1.78-.73-1.78-3.2-16.3,4.64-58.81,4.64-58.81,3.67-4.79,9.12-7.19,9.12-7.19,8.66-2.95,16.28-6.94,16.74-7.18h.03s-1.6-9.13-1.6-9.13c3.67-4.8,8.05-7.17,11.28-8.31-.87.52-7.84,4.8-8.76,8.18Z"/>
          <path class="cls-5" d="M547.55,75.25s2.61,13.25,3.03,19.97c.4,6.32-4.11,13.99-4.66,14.88,1.34-2.59,3.31-7.38,3.44-13.44.22-9.26-1.92-20.13-1.81-21.41Z"/>
          <path class="cls-5" d="M568.21,72.03c-.34-.37-6.78-7.42-12.29-4.89-5.67,2.59-8.37,8.11-8.37,8.11.11-1.28,3.73-10.01,10.34-10.65,6.4-.62,10.1,6.97,10.32,7.43Z"/>
          <path class="cls-5" d="M597.66,78.06c-11.5.17-14.24-1.17-18.08-2.6-3.83-1.42-8.75-.62-8.75-.62,1.57-.5,4.83-1.43,6.88-1.19,2.76.32,3.93,2.46,9.47,3.1,3.95.46,8.11.31,10.48,1.31Z"/>
          <path class="cls-5" d="M600.55,116.21c-1.03-.42-5.8-7.07-5.72-8.57.09-1.5,1.84-3.27,2.34-7.67.51-4.4,0-8.47,0-8.47v.02c.51,1.63,1.2,4.26,1.31,6.49.15,3.51-2.88,7.5-2.77,9.57.1,2.09,4.84,8.63,4.84,8.63Z"/>
          <path class="cls-5" d="M558.39,133.03c-.48.58-8.13,10.07-10.39,17.86-2.33,8.03-3.58,37.08-5.33,42.41-1.75,5.34-18.09,21.42-21.25,29.5-3.17,8.09-5.67,23.13-5.67,23.13h-3.78s2.02-13.33,7.13-23.23c1.66-3.21,4.18-6.65,6.94-10.13,5.78-7.24,12.67-14.69,15.33-20.88,3.94-9.15,3.3-32.92,5.54-41.16,2.18-8.03,10.99-17.01,11.48-17.5Z"/>
          <path class="cls-5" d="M570.78,245.93h-1.71c-.26-1.33-7.89-39.99-7.58-41.95.3-1.87,2.81-6.01,3.13-6.52-.55,1.21-1.31,2.99-1.51,4.04-.32,1.7.64,13.64,2.77,23.55,2.12,9.91,4.9,20.88,4.9,20.88Z"/>
          <path class="cls-5" d="M626.19,181.88c-.51-.09-2.94-.43-6.27.17-3.77.69-7.84,5.5-7.84,5.5l-36.32,8.09c.83-1.17,2.05-2.13,2.05-2.13h.05c.74-.17,9.49-1.99,20.4-3.52,11.41-1.6,13.21-3.41,13.21-3.41,0,0,2.45-3.84,5.97-5,3.24-1.09,8.01.1,8.75.3Z"/>
          <path class="cls-5" d="M627.31,148.5s-.98,2.64-3.23,3.47-7.41.94-10.16,3.28c-2.76,2.33-3.09,7.3-3.09,7.3-3.57,3.26-18.29,7.39-19.66,7.77,3.14-1.26,6.94-2.48,10.51-3.98,6.41-2.71,8.21-4.86,8.4-5.1h0c.42-2.25,1.7-6.51,3.94-7.58,2.23-1.06,6.07-.96,8.1-1.8,1.55-.66,3.85-2.7,5.18-3.36Z"/>
          <path class="cls-5" d="M578.45,163.46c-1.35-2.98-3.47-11.37-3.6-11.89.45,2.97,1.88,11.7,2.01,12.57-.2-.64-1.82-5.97-2.44-11.59-.56-4.98-2.32-11.12-2.9-13.06.56,1.23,1.3,2.81,1.92,3.94.1.19.21.47.35.83,1.28,3.61,3.6,14.86,5.83,19.42,1.49,3.04,3.1,6.24,4.13,8.28-.23-.32-3.96-5.51-5.3-8.5Z"/>
          <path class="cls-5" d="M629.48,153.77c1.35-.85,2.8-1.43,4.1-1.79-2.52,1.11-5.72,4.24-6.27,4.24-.69,0-5.49-.71-5.49-.71h.02s.01-.01.01-.01c2.74.23,4.86-.26,4.86-.26l2.77-1.47Z"/>
          <path class="cls-5" d="M635.34,151.6h0s0,.01-.02.01t.02-.01Z"/>
          <path class="cls-5" d="M593.15,127.35s-1.23-.46-2.08-1.71c-.64-.94-1.13-2.08-1.33-2.6.81,1.57,3.57,3.61,3.41,4.31Z"/>
          <path class="cls-5" d="M670.81,82.51c-.22.16-3.77,2.84-10.39,4.29-6.84,1.5-19.5,1-26.84,5.87-7.2,4.79-5.93,14.59-5.88,14.96-.08-.06-.17-.14-.25-.23-.08-.08-.16-.18-.24-.3-.09-.13-.18-.27-.26-.43-.07-.11-.13-.23-.19-.37-.06-.16-.13-.33-.19-.51h0c-.04-.12-.07-.25-.11-.37-.07-.25-.13-.53-.18-.82-.03-.15-.05-.3-.07-.46-.03-.16-.05-.33-.06-.51-.02-.18-.03-.36-.04-.54,0-.17-.02-.33-.03-.51-.01-.22-.01-.46-.01-.7s.01-.47.02-.71c.01-.23.03-.46.05-.68.02-.19.04-.38.07-.56,0-.06.01-.12.02-.18.03-.15.05-.3.08-.45.02-.09.04-.18.06-.26.02-.14.06-.29.09-.42.24-.95.57-1.81.98-2.61.08-.16.16-.32.24-.46.05-.08.09-.16.14-.24.14-.24.29-.48.44-.7.18-.27.37-.53.56-.78.09-.11.17-.22.26-.32.13-.16.27-.32.4-.47.45-.51.92-.98,1.4-1.42.49-.45.99-.86,1.48-1.24.97-.75,1.91-1.38,2.65-1.91h0c2.98-2.14,8.73-1.07,17.26-1.71.53-.04,1.07-.09,1.62-.15.51-.06,1.03-.13,1.55-.21.26-.03.53-.07.8-.12.24-.04.47-.07.7-.11.07-.02.14-.03.21-.04l.81-.15c2.6-.49,5.1-1.12,7.2-1.71.43-.12.83-.24,1.22-.35,2.53-.74,4.25-1.35,4.42-1.41Z"/>
          <path class="cls-5" d="M629.91,108.07s4.85,10.55,9.53,11.03c0,0-5.88,3.4-9.53-11.03Z"/>
          <path class="cls-5" d="M652.32,135.7l-2.2-.71c-3.54-2.44-4.9-6.88-5.19-11.06-.1-1.35-.32-2.56-.59-3.59.59,1.94,2.13,6.7,4.21,10.46,2.11,3.84,3.34,4.71,3.77,4.9Z"/>
          <path class="cls-5" d="M652.49,135.76s-.04,0-.14-.04l.14.04Z"/>
          <path class="cls-5" d="M655.69,146.95s-6.16-.39-7.13-4.35c-.07-.2-.09-.42-.12-.65-.23-2.48.61-4.12,1.42-5.1-.07.18-.75,2.1-.4,4.26h0c.35,2.25,1.82,4.75,6.23,5.84Z"/>
          <path class="cls-5" d="M640.58,164.21c.34,3.93-1.14,22.73-1.14,22.73,0,0-5.61,20.97-3.64,33.55-.7-3.46-1.51-9.01-1-14.41.76-7.78,3.31-19.39,3.31-19.39-.43-9.06.43-25.88,1.33-27.38.46-.77,1.17-1.22,2.2-1.78-.11.22-1.38,2.92-1.06,6.68Z"/>
          <path class="cls-5" d="M650.79,188.61s13.66,15.52,16.23,24.19c2.57,8.67-.5,17.77-.5,17.77,0,0,.54-11.18-.85-16.11-1.39-4.93-14.88-25.85-14.88-25.85Z"/>
          <path class="cls-5" d="M715.03,204.27c-3.4.64-9.06-5.33-11.29-9.8-2.17-4.34-7.33-9.87-7.65-10.21.43.35,7.37,6.05,9.99,11.38,2.71,5.5,8.95,8.63,8.95,8.63Z"/>
          <path class="cls-5" d="M723.42,166.6c-4.67,4.46-11.79,13.38-11.79,13.38.74-3.63,8.94-11.18,11.07-15.77,2.13-4.58,3.41-12.47,3.41-12.47,0,0,1.97,10.4-2.69,14.86Z"/>
        </g>
      </g>
    </g>
  </g>
</svg>