<?xml version="1.0" encoding="UTF-8"?>
<svg id="Calque_2" data-name="Calque 2" xmlns="http://www.w3.org/2000/svg" viewBox="0 0 132.23 120.88">
  <defs>
    <style>
      .cls-1 {
        fill: #fedb97;
      }

      .cls-1, .cls-2, .cls-3, .cls-4, .cls-5 {
        stroke-width: 0px;
      }

      .cls-2 {
        fill: #fcc582;
      }

      .cls-6 {
        opacity: .47;
      }

      .cls-3 {
        fill: #4d4135;
        fill-rule: evenodd;
      }

      .cls-4 {
        fill: #e49d5d;
      }

      .cls-5 {
        fill: #fdecda;
        opacity: .77;
      }
    </style>
  </defs>
  <g id="Calque_1-2" data-name="Calque 1">
    <g>
      <g>
        <polygon class="cls-1" points="0 23.54 59.95 61.53 132.23 37.39 71.39 0 0 23.54"/>
        <polygon class="cls-4" points="59.95 61.53 59.95 120.88 129.79 95.56 132.23 37.39 59.95 61.53"/>
        <polygon class="cls-2" points="0 23.54 0 71.92 59.95 120.88 59.95 61.53 0 23.54"/>
        <polygon class="cls-5" points="26.45 14.82 88.98 52.13 88.98 70.73 110.95 63.2 110.95 45.02 49.49 7.22 26.45 14.82"/>
      </g>
      <g class="cls-6">
        <g>
          <path class="cls-3" d="M45.65,93.15v.26s-.37,10.87-.37,10.87v.26s-.25-.2-.25-.2l-9.18-7.51-.22-.18v-.25s.39-10.46.39-10.46v-.25s.23.17.23.17l9.15,7.1.24.19ZM36.1,96.52l8.71,7.11.34-10.33-8.69-6.76h0l-.36,9.98Z"/>
          <path class="cls-3" d="M40.44,94.32l-.02.5.07.05-.13,3.64c0,.25-.2.3-.42.12-.22-.18-.4-.53-.39-.77l.02-.62s-.03-.1-.07-.14h0s-.08-.03-.08.01l-.02.62c-.01.33.23.81.53,1.06.3.25.56.17.57-.16l.13-3.65.07.05.02-.5c.68.2.95.42,1.7,1.42.86.29.99.39,1.86,1.48,0-.13,0-.32-.01-.45-.01-.14-.04-.28-.06-.42-.06-.29-.14-.58-.26-.88-.11-.3-.25-.6-.41-.89-.15-.29-.32-.57-.51-.83-.72-1.03-1.61-1.79-2.29-2.33l.06.05v-.88s-.04-.09-.07-.12h-.01s-.06-.03-.06.01l-.07.81.06.05c-.98-.76-1.87-1.3-2.53-1.3-.66,0-1.09.61-1.12,1.38.75.17,1.11.46,1.79,1.42.68.12.98.36,1.67,1.26h0Z"/>
        </g>
        <g>
          <path class="cls-3" d="M56.73,101.74v.27s-.34,11.35-.34,11.35v.27s-.27-.21-.27-.21l-9.92-8.12-.24-.2v-.26s.37-10.9.37-10.9v-.26s.25.19.25.19l9.89,7.68.26.2ZM46.46,104.98l9.42,7.69.31-10.79-9.39-7.3h0l-.34,10.4Z"/>
          <polygon class="cls-3" points="54.7 109.76 47.69 104.09 47.66 105.11 54.67 110.81 54.7 109.76"/>
          <polygon class="cls-3" points="53.32 108.04 53.46 103.3 54.03 103.75 52.95 100.91 51.77 101.96 52.33 102.41 52.18 107.13 53.32 108.04"/>
          <polygon class="cls-3" points="50.16 105.5 50.31 100.81 50.87 101.25 49.81 98.45 48.65 99.5 49.2 99.94 49.05 104.6 50.16 105.5"/>
        </g>
        <g>
          <path class="cls-3" d="M35.41,85.2v.25s-.39,10.43-.39,10.43v.25s-.23-.18-.23-.18l-8.51-6.96-.21-.17v-.24s.41-10.05.41-10.05v-.24s.22.16.22.16l8.49,6.59.22.17ZM26.5,88.67l8.08,6.6.37-9.92-8.06-6.27h0l-.38,9.59Z"/>
          <path class="cls-3" d="M29.57,82.03c-.12.24-.33.66-.45,1.13-.18.69-.29,1.35.31,2.37.37.64.89,1.33,1,1.71.09.46,0,3.09-.15,3.17-.41.25-.95-.15-1-.12-.03.01-.03.1,0,.13l2.43,1.98s.03-.07.01-.13c-.04-.1-.59-.58-.96-1.47-.13-.31-.02-2.93.1-3.22.14-.19.68-.04,1.08-.06.65-.03.6-.83.48-1.77-.08-.63-.25-1.36-.35-1.78l-.32.28.15.12-.39.47.16.12-.53.65.03-.75.18-.63-.33-.26.21-.67-.14-.11-1.54-1.2Z"/>
        </g>
      </g>
    </g>
  </g>
</svg>