<?xml version="1.0" encoding="UTF-8"?>
<svg xmlns="http://www.w3.org/2000/svg" viewBox="0 0 81.94 91.28">
  <defs>
    <style>
      .cls-1 {
        fill: #95979b;
      }

      .cls-1, .cls-2, .cls-3, .cls-4, .cls-5, .cls-6, .cls-7, .cls-8, .cls-9, .cls-10, .cls-11, .cls-12, .cls-13 {
        stroke-width: 0px;
      }

      .cls-2 {
        fill: #722a1f;
      }

      .cls-3, .cls-5 {
        opacity: .7;
      }

      .cls-3, .cls-8 {
        fill: #fff;
        mix-blend-mode: soft-light;
      }

      .cls-4 {
        fill: #797c81;
      }

      .cls-5, .cls-7, .cls-11 {
        fill: #7a001f;
      }

      .cls-5, .cls-11, .cls-12 {
        mix-blend-mode: multiply;
      }

      .cls-6 {
        fill: #430c0f;
      }

      .cls-8 {
        opacity: .27;
      }

      .cls-14 {
        isolation: isolate;
      }

      .cls-9 {
        fill: #9f4734;
      }

      .cls-10 {
        fill: #607380;
      }

      .cls-11 {
        opacity: .41;
      }

      .cls-12 {
        opacity: .43;
      }

      .cls-12, .cls-13 {
        fill: #405766;
      }
    </style>
  </defs>
  <g class="cls-14">
    <g id="Calque_2" data-name="Calque 2">
      <g id="Calque_1-2" data-name="Calque 1">
        <g>
          <polygon class="cls-13" points="53.67 34.28 72.99 32.03 72.99 38.11 54.37 37.64 53.67 34.28"/>
          <path class="cls-9" d="M71.03,32.21s1.46-3.4,6.33-3.4l-14.63,1.7s-1.82.31-2.38,2.76l10.68-1.07Z"/>
          <path class="cls-7" d="M77.36,28.82c3.16,0,4.48,3.21,4.48,3.21l-10.81.19s.47-3.4,6.33-3.4Z"/>
          <path class="cls-2" d="M65.43,37.86h-2.52s-.36-6.48,5.94-8.06l2.61-.3s-5.46,2.36-6.03,8.36Z"/>
          <polygon class="cls-13" points="11.76 91.28 10.35 91.28 11.05 51.75 0 2.3 1.35 .74 15.42 49.77 11.76 91.28"/>
          <polygon class="cls-10" points="57.1 91.28 57.52 52.78 47.01 2.3 54.36 3.52 64.68 53.47 59.6 91.28 57.1 91.28"/>
          <polygon class="cls-1" points="26.93 44.92 74.86 44.92 74.86 56.1 26.93 56.06 26.93 44.92"/>
          <polygon class="cls-10" points="11.76 91.28 12.19 52.78 1.35 .74 8.3 0 19.35 53.47 14.43 91.28 11.76 91.28"/>
          <polygon class="cls-13" points="5.46 3.52 5.46 6.35 15.42 46.01 17.24 45.59 5.46 3.52"/>
          <polygon class="cls-4" points="5.46 3.52 17.24 45.59 62.91 44.92 57.04 5.83 5.46 3.52"/>
          <polygon class="cls-13" points="7.71 11.13 57.72 11.13 57.83 11.85 7.92 11.85 7.71 11.13"/>
          <polygon class="cls-13" points="11.37 26 60.13 26 60.35 27.51 11.76 27.14 11.37 26"/>
          <polygon class="cls-13" points="15.42 40.88 61.85 37.83 62.08 39.36 15.42 41.52 15.42 40.88"/>
          <polygon class="cls-1" points="74.33 91.28 72.99 32.03 81.94 32.03 77.47 91.28 74.33 91.28"/>
          <polygon class="cls-12" points="50.06 11.49 20.73 34.28 30.15 38.11 52.91 44.92 17.24 45.59 5.46 3.52 49.82 5.25 50.06 11.49"/>
          <polygon class="cls-13" points="8.21 33.68 24.76 32.03 24.76 36.53 8.8 36.53 8.21 33.68"/>
          <polygon class="cls-13" points="22.9 36.53 25.6 91.28 26.09 91.28 24.76 32.03 22.9 36.53"/>
          <polygon class="cls-13" points="70.68 32.3 72.99 91.28 74.33 91.28 72.99 32.03 70.68 32.3"/>
          <polygon class="cls-13" points="57.1 91.28 55.84 91.28 55.25 56.1 57.49 56.1 57.1 91.28"/>
          <polygon class="cls-1" points="26.09 91.28 24.76 32.03 33.71 32.03 29.23 91.28 26.09 91.28"/>
          <polygon class="cls-13" points="24.5 45.06 10.35 46.04 11.78 55.16 24.76 55.95 24.5 45.06"/>
          <path class="cls-9" d="M22.9,32.22s1.46-3.4,6.33-3.4l-14.63,1.7s-1.82.31-2.38,2.76l10.68-1.07Z"/>
          <path class="cls-7" d="M29.23,28.82c3.16,0,4.48,3.21,4.48,3.21l-10.81.19s.47-3.4,6.33-3.4Z"/>
          <path class="cls-2" d="M16.95,36.53h-2.25s-.29-5.14,6.02-6.72l2.61-.3s-5.82,1.03-6.38,7.02Z"/>
          <polygon class="cls-3" points="62.08 31.05 72.06 29.81 70.23 31.64 61.28 32.22 62.08 31.05"/>
          <path class="cls-3" d="M12.82,32.77l1.25-1.72,10.43-1.34s-1.53.52-2.39,2.32l-9.29.74Z"/>
          <polygon class="cls-3" points="73.77 32.22 74.87 90.79 75.62 90.79 75.62 33.02 81.28 32.77 73.77 32.22"/>
          <polygon class="cls-3" points="26.93 90.79 25.4 33.02 32.77 32.77 26.46 33.68 28.1 90.79 26.93 90.79"/>
          <polygon class="cls-3" points="33.71 46.01 32.77 55.31 41.71 55.31 42.47 46.01 33.71 46.01"/>
          <polygon class="cls-3" points="43.32 46.01 47.57 46.01 48.38 55.31 42.36 55.31 43.32 46.01"/>
          <polygon class="cls-8" points="40.82 12.71 57.49 12.71 59.31 25.41 42.36 25.41 40.82 12.71"/>
          <polygon class="cls-8" points="39.78 12.71 34.19 12.71 34.19 25.41 41.66 25.41 39.78 12.71"/>
          <polygon class="cls-8" points="43.46 28.36 59.31 28.36 60.35 37.45 43.46 38.11 43.46 28.36"/>
          <polygon class="cls-8" points="56.37 9.78 56.37 6.22 33.71 6.22 34.69 9.78 55.84 9.78 56.37 9.78"/>
          <polygon class="cls-6" points="23.33 6.22 24.76 9.78 39.93 9.78 40.68 6.77 23.33 6.22"/>
          <polygon class="cls-7" points="24.5 6.22 25.92 9.78 41.1 9.78 41.85 6.77 24.5 6.22"/>
          <path class="cls-7" d="M53.33,10.65v-4.43s-7.26-1.19-13.03-.72l-5.77.46,1.33,4.12,17.47.58Z"/>
          <path class="cls-9" d="M31.35,5.34l.72,5.3h14.93v-5.66c-6.18-.53-10.04-.28-15.65.36Z"/>
          <path class="cls-9" d="M49.82,5.25v5.4h3.51v-4.43c-.55-.28-1.97-.75-3.51-.97Z"/>
          <ellipse class="cls-7" cx="42.67" cy="10.65" rx="10.66" ry="1.11"/>
          <polygon class="cls-3" points="36.37 5.39 36.93 9.05 41.66 9.05 41.66 5.14 36.37 5.39"/>
          <polygon class="cls-3" points="42.17 9.05 42.17 5.17 44.74 5.17 44.45 9.05 42.17 9.05"/>
          <polygon class="cls-3" points="50.71 9.3 50.9 5.89 52.91 6.41 52.91 9.94 50.71 9.3"/>
          <polygon class="cls-5" points="31.76 5.64 33.62 5.39 34.03 9.54 32.42 9.94 31.76 5.64"/>
          <path class="cls-7" d="M48.4,82.8v-4.43s-7.26-1.19-13.03-.72l-5.77.46,1.33,4.12,17.47.58Z"/>
          <path class="cls-7" d="M48.4,82.8c0-.61-4.77-1.11-10.66-1.11s-10.66.5-10.66,1.11,4.77,1.11,10.66,1.11,10.66-.5,10.66-1.11Z"/>
          <polygon class="cls-3" points="31.45 77.54 32.01 81.21 36.74 81.21 36.74 77.3 31.45 77.54"/>
          <polygon class="cls-3" points="37.25 81.21 37.25 77.32 39.82 77.32 39.52 81.21 37.25 81.21"/>
          <polygon class="cls-3" points="45.78 81.45 45.98 78.04 47.98 78.56 47.98 82.1 45.78 81.45"/>
          <polygon class="cls-5" points="26.84 77.8 28.7 77.54 29.11 81.7 27.5 82.1 26.84 77.8"/>
          <polygon class="cls-7" points="25.4 73.69 26.09 85.36 78.71 85.36 78.71 74.4 25.4 73.69"/>
          <polygon class="cls-11" points="36.36 77.63 26.79 85.36 49.13 85.36 51.72 82.66 36.36 77.63"/>
          <polygon class="cls-6" points="25.4 73.69 10.64 74.34 10.35 85.36 26.09 85.36 25.4 73.69"/>
          <polygon class="cls-9" points="36.36 77.63 36.73 82.82 52.17 82.82 52.57 77.53 36.36 77.63"/>
          <polygon class="cls-9" points="61.36 77.48 74.86 77.97 74.29 82.66 61.36 82.66 61.36 77.48"/>
          <polygon class="cls-3" points="47.57 77.8 52.06 77.8 51.72 82.66 47.35 82.66 47.57 77.8"/>
          <polygon class="cls-3" points="70.92 78.04 74.53 78.25 73.98 82.42 70.68 82.42 70.92 78.04"/>
          <polygon class="cls-11" points="36.74 78.04 39.34 77.8 39 82.49 37.25 82.49 36.74 78.04"/>
          <polygon class="cls-11" points="61.71 82.42 61.71 77.7 65.06 77.8 63.92 82.42 61.71 82.42"/>
          <polygon class="cls-11" points="61.36 77.48 55.25 85.36 71.86 85.36 74.29 82.66 61.36 82.66 61.36 77.48"/>
          <polygon class="cls-9" points="10.64 74.34 25.68 73.15 78.77 74.05 78.71 74.4 25.4 73.69 10.64 74.34"/>
          <polygon class="cls-12" points="4.31 14.95 7.62 14.95 9.44 22.2 6.04 23.25 4.31 14.95"/>
          <polygon class="cls-12" points="6.08 29.5 7.2 28.82 9.07 37.83 7.94 37.83 6.08 29.5"/>
          <polygon class="cls-12" points="71.24 46.79 58.42 48.39 71.2 47.04 71.46 52.35 52.06 52.87 71.13 53.76 71.61 56.1 71.24 46.79"/>
          <polygon class="cls-12" points="12.22 11.85 15.42 23.25 13.1 12.31 20.53 12.34 21.4 17.92 21.18 11.87 12.22 11.85"/>
          <polygon class="cls-12" points="11.6 3.76 13.28 9.78 12.22 4.31 21.4 4.7 22.9 9.94 22.27 4.41 29.23 4.44 11.6 3.76"/>
          <polygon class="cls-12" points="35.86 27.32 37.92 37.32 37.13 27.86 47.77 27.73 48 35.67 48.66 27.42 35.86 27.32"/>
        </g>
      </g>
    </g>
  </g>
</svg>